<?xml version="1.0" encoding="UTF-8"?>
<svg width="960px" height="960px" viewBox="0 0 960 960" version="1.1" xmlns="http://www.w3.org/2000/svg" xmlns:xlink="http://www.w3.org/1999/xlink">
    <!-- Generator: Sketch 60.1 (88133) - https://sketch.com -->
    <title>dimmable_spot/icon</title>
    <desc>Created with Sketch.</desc>
    <g id="dimmable_spot/icon" stroke="none" stroke-width="1" fill="none" fill-rule="evenodd">
        <path d="M656.126445,765 C629.442802,773.69336 567.774345,776.871674 481.977258,777 C396.181479,776.871674 330.810088,773.69336 304.126445,765" id="Stroke-20" stroke="#000000" stroke-width="20"></path>
        <path d="M681.126445,486 C650.652512,494.69336 580.224331,497.871674 482.240157,498 C384.257478,497.871674 309.600378,494.69336 279.126445,486" id="Stroke-20" stroke="#000000" stroke-width="20"></path>
        <path d="M355.126445,898 L433.126445,898 L433.126445,943.685267 C416.608782,947.34048 400.092481,948.672949 383.576181,947.684073 C377.811829,947.339083 372.047476,946.711957 366.284487,945.801296 C362.564231,945.213278 358.845338,944.507935 355.126445,943.685267 L355.126445,898 Z" id="Stroke-22" stroke="#000000" stroke-width="20" stroke-linejoin="round"></path>
        <polygon id="Stroke-24" stroke="#000000" stroke-width="20" stroke-linejoin="round" points="373.126445 898 415.126445 898 415.126445 846 373.126445 846"></polygon>
        <polygon id="Stroke-31" stroke="#000000" stroke-width="20" stroke-linejoin="round" points="545.126445 898 587.126445 898 587.126445 846 545.126445 846"></polygon>
        <polygon id="Fill-32" fill="#000000" points="385 846 385 898 390.865986 898 397 898 397 846"></polygon>
        <path d="M380.693392,898 L374.875913,898 L368.126445,898 L368.126445,946.105251 C374.125499,947.021702 380.12739,947.652817 386.126445,948 L386.126445,898 L380.693392,898 Z" id="Fill-33" fill="#000000"></path>
        <path d="M527.126445,898 L605.126445,898 L605.126445,943.685267 C588.60907,947.34048 572.093058,948.672949 555.575684,947.684073 C549.811432,947.339083 544.048543,946.711957 538.284292,945.801296 C534.565464,945.213278 530.845273,944.507935 527.126445,943.685267 L527.126445,898 Z" id="Stroke-34" stroke="#000000" stroke-width="20" stroke-linejoin="round"></path>
        <polygon id="Fill-40" fill="#000000" points="557 846 557 898 562.865237 898 569 898 569 846"></polygon>
        <path d="M552.692964,898 L546.876445,898 L540.126445,898 L540.126445,946.105251 C546.125972,947.021702 552.126918,947.652817 558.126445,948 L558.126445,898 L552.692964,898 Z" id="Fill-41" fill="#000000"></path>
        <path d="M369.096439,835 L368.591043,834.987689 C352.113865,834.193559 322.851804,795.185624 305.89884,778.010847 L304.401642,776.510259 C301.677094,773.722819 301.161379,772.178251 301.037933,767.32918 L300.936231,763.597659 C299.213925,703.177925 294.545764,667.908255 294.545764,548.519613 C294.545764,520.226714 286.393565,499.559863 267.037862,486.467415 C231.30718,459.601596 108.308881,329.48715 78.2654634,100.980228 C63.7021692,96.0965889 54.4783628,90.0502059 53.7969886,79.1472816 L53.7762912,78.7558204 C53.7274269,77.6475901 53.6551077,76.5667597 53.5763384,75.5118615 L53.4152382,73.4362062 C53.3487284,72.5853941 53.2862906,71.7522507 53.236069,70.9340576 C53.1614151,69.706768 53.1264447,68.5148156 53.1264447,67.3554822 C53.1437697,66.9409491 53.1587004,66.5304935 53.1831326,66.1227561 C53.2713599,64.6345145 53.4885346,63.1965605 53.9065961,61.8020986 C54.1196989,61.0912763 54.385738,60.3926862 54.7142149,59.70361 C56.8696746,55.1750064 61.8744787,51.2228165 72.2415777,47.0800595 C120.148354,27.9362147 421.86458,23.7633458 483.124737,23.0567158 C544.384894,22.3500858 840.583603,28.1276531 888.011312,47.0800595 L889.121117,47.5312776 C898.738629,51.5110107 903.461595,55.3396829 905.538675,59.70361 C905.867151,60.3926862 906.133191,61.0912763 906.346293,61.8020986 C906.764355,63.1965605 906.98153,64.6345145 907.069757,66.1227561 C907.094189,66.5304935 907.10912,66.9409491 907.126445,67.3554822 C907.126445,68.5148156 907.091474,69.706768 907.016821,70.9340576 C906.983339,71.4795196 906.944429,72.0316263 906.902502,72.591183 L906.676551,75.5118615 C906.624038,76.215127 906.574392,76.9299179 906.532651,77.656669 L906.476598,78.7558204 C905.993384,89.9060796 896.724093,96.0384504 881.987426,100.980228 C851.944009,329.48715 728.94571,459.601596 693.215027,486.467415 C673.859324,499.559863 665.707126,520.226714 665.707126,548.519613 C665.707126,669.126506 660.943209,703.888956 659.264863,765.455215 L659.214957,767.32918 C659.09151,772.178251 658.575795,773.722819 655.851247,776.510259 L654.354049,778.010847 C637.401086,795.185624 608.139024,834.193559 591.661846,834.987689 L591.15645,835 L369.096439,835 Z" id="Path" stroke="#000000" stroke-width="40"></path>
    </g>
</svg>