<?xml version="1.0" encoding="UTF-8"?>
<svg width="960px" height="960px" viewBox="0 0 960 960" version="1.1" xmlns="http://www.w3.org/2000/svg" xmlns:xlink="http://www.w3.org/1999/xlink">
    <!-- Generator: Sketch 60.1 (88133) - https://sketch.com -->
    <title>dimmable_spot/learnmode</title>
    <desc>Created with Sketch.</desc>
  <style type="text/css">
    #pair {
    animation-name: toggles;
    animation-delay: 3s;
    animation-duration: 14.2s;
    animation-iteration-count: infinite;
    opacity: 0;
    }

    @keyframes toggles {
    1%,	/* low toggle 1 */
    6%,	/* low toggle 1 */
    10%,	/* low toggle 2 */
    15%,	/* low toggle 2 */
    18%,	/* low toggle 3 */
    23%,	/* low toggle 3 */
    27%,	/* low toggle 4 */
    32%,	/* low toggle 4 */
    35%,	/* low toggle 5 */
    40%,	/* low toggle 5 */
    44%,	/* low toggle 6 */
    48%	/* low toggle 6 */
    {
    opacity: 0;
    }
    3%,	/* high toggle 1 */
    5%,	/* high toggle 1 */
    11%,	/* high toggle 2 */
    13%,	/* high toggle 2 */
    20%,	/* high toggle 3 */
    22%,	/* high toggle 3 */
    28%,	/* high toggle 4 */
    30%,	/* high toggle 4 */
    36%,	/* high toggle 5 */
    39%,	/* high toggle 5 */
    45%,	/* high toggle 6 */
    47%	/* high toggle 6 */
    {
    opacity: 1;
    }
    }
  </style>

  <g id="dimmable_spot/learnmode" stroke="none" stroke-width="1" fill="none" fill-rule="evenodd">
        <path d="M656.126445,765 C629.442802,773.69336 567.774345,776.871674 481.977258,777 C396.181479,776.871674 330.810088,773.69336 304.126445,765" id="Stroke-20" stroke="#000000" stroke-width="10"></path>
        <path d="M681.126445,489 C650.652512,497.69336 580.224331,500.871674 482.240157,501 C384.257478,500.871674 309.600378,497.69336 279.126445,489" id="Stroke-20" stroke="#000000" stroke-width="10"></path>
        <path d="M355.126445,896 L433.126445,896 L433.126445,941.685267 C416.608782,945.34048 400.092481,946.672949 383.576181,945.684073 C377.811829,945.339083 372.047476,944.711957 366.284487,943.801296 C362.564231,943.213278 358.845338,942.507935 355.126445,941.685267 L355.126445,896 Z" id="Stroke-22" stroke="#000000" stroke-width="10"></path>
        <polygon id="Stroke-24" stroke="#000000" stroke-width="10" points="373.126445 896 415.126445 896 415.126445 844 373.126445 844"></polygon>
        <polygon id="Stroke-31" stroke="#000000" stroke-width="10" points="545.126445 896 587.126445 896 587.126445 844 545.126445 844"></polygon>
        <polygon id="Fill-32" fill="#000000" points="385 844 385 896 390.865986 896 397 896 397 844"></polygon>
        <path d="M380.693392,896 L374.875913,896 L368.126445,896 L368.126445,944.105251 C374.125499,945.021702 380.12739,945.652817 386.126445,946 L386.126445,896 L380.693392,896 Z" id="Fill-33" fill="#000000"></path>
        <path d="M527.126445,896 L605.126445,896 L605.126445,941.685267 C588.60907,945.34048 572.093058,946.672949 555.575684,945.684073 C549.811432,945.339083 544.048543,944.711957 538.284292,943.801296 C534.565464,943.213278 530.845273,942.507935 527.126445,941.685267 L527.126445,896 Z" id="Stroke-34" stroke="#000000" stroke-width="10"></path>
        <polygon id="Fill-40" fill="#000000" points="557 844 557 896 562.865237 896 569 896 569 844"></polygon>
        <path d="M552.692964,896 L546.876445,896 L540.126445,896 L540.126445,944.105251 C546.125972,945.021702 552.126918,945.652817 558.126445,946 L558.126445,896 L552.692964,896 Z" id="Fill-41" fill="#000000"></path>
        <path d="M479.906445,129 C715.732034,129 906.906445,105.271092 906.906445,76 C906.906445,69.8733931 904.4343,54.4763125 889.027562,49.0020616 C830.825524,28.3219823 666.372389,23 479.906445,23 C309.75545,23 140.77526,30.8148967 72.1480231,48.689453 C45.6593986,55.5886439 52.9064455,67.8483527 52.9064455,76 C52.9064455,105.271092 244.080857,129 479.906445,129 Z" id="pair" fill="#FFF67A"></path>
        <path d="M369.096439,835 L368.591043,834.987689 C352.113865,834.193559 322.851804,795.185624 305.89884,778.010847 L304.401642,776.510259 C301.677094,773.722819 301.161379,772.178251 301.037933,767.32918 L300.936231,763.597659 C299.213925,703.177925 294.545764,667.908255 294.545764,548.519613 C294.545764,520.226714 286.393565,499.559863 267.037862,486.467415 C231.30718,459.601596 108.308881,329.48715 78.2654634,100.980228 C63.7021692,96.0965889 54.4783628,90.0502059 53.7969886,79.1472816 L53.7762912,78.7558204 C53.7274269,77.6475901 53.6551077,76.5667597 53.5763384,75.5118615 L53.4152382,73.4362062 C53.3487284,72.5853941 53.2862906,71.7522507 53.236069,70.9340576 C53.1614151,69.706768 53.1264447,68.5148156 53.1264447,67.3554822 C53.1437697,66.9409491 53.1587004,66.5304935 53.1831326,66.1227561 C53.2713599,64.6345145 53.4885346,63.1965605 53.9065961,61.8020986 C54.1196989,61.0912763 54.385738,60.3926862 54.7142149,59.70361 C56.8696746,55.1750064 61.8744787,51.2228165 72.2415777,47.0800595 C120.148354,27.9362147 421.86458,23.7633458 483.124737,23.0567158 C544.384894,22.3500858 840.583603,28.1276531 888.011312,47.0800595 L889.121117,47.5312776 C898.738629,51.5110107 903.461595,55.3396829 905.538675,59.70361 C905.867151,60.3926862 906.133191,61.0912763 906.346293,61.8020986 C906.764355,63.1965605 906.98153,64.6345145 907.069757,66.1227561 C907.094189,66.5304935 907.10912,66.9409491 907.126445,67.3554822 C907.126445,68.5148156 907.091474,69.706768 907.016821,70.9340576 C906.983339,71.4795196 906.944429,72.0316263 906.902502,72.591183 L906.676551,75.5118615 C906.624038,76.215127 906.574392,76.9299179 906.532651,77.656669 L906.476598,78.7558204 C905.993384,89.9060796 896.724093,96.0384504 881.987426,100.980228 C851.944009,329.48715 728.94571,459.601596 693.215027,486.467415 C673.859324,499.559863 665.707126,520.226714 665.707126,548.519613 C665.707126,669.126506 660.943209,703.888956 659.264863,765.455215 L659.214957,767.32918 C659.09151,772.178251 658.575795,773.722819 655.851247,776.510259 L654.354049,778.010847 C637.401086,795.185624 608.139024,834.193559 591.661846,834.987689 L591.15645,835 L369.096439,835 Z" id="Path" stroke="#000000" stroke-width="20" stroke-linejoin="round"></path>
    </g>
</svg>
