<?xml version="1.0" encoding="UTF-8"?>
<svg width="960px" height="960px" viewBox="0 0 960 960" version="1.1" xmlns="http://www.w3.org/2000/svg" xmlns:xlink="http://www.w3.org/1999/xlink">
    <!-- Generator: Sketch 60.1 (88133) - https://sketch.com -->
    <title>dimmable_bulb</title>
    <desc>Created with Sketch.</desc>
    <g id="dimmable_bulb" stroke="none" stroke-width="1" fill="none" fill-rule="evenodd">
        <path d="M480,22 C620.280326,22 734,135.6197 734,275.776702 C734,282.49491 733.738716,289.152146 733.225747,295.738818 C729.109074,347.883106 717.822531,392.573618 697.817612,429.814016 L695.61893,433.900883 C660.050797,499.918067 641.304429,530.187879 636.625414,563.891046 L636.058107,568.020973 C626.990274,634.752182 627.561901,666.084608 627.267248,675.266584 L627.255113,675.473636 C626.991118,678.668659 622.925679,688.808179 612.819215,703.422848 L612.12075,704.426209 C607.072481,711.630767 600.278174,724.720071 592.33906,729.815679 C564.757982,747.518199 520.369869,749.909426 482.321381,750 L478.841363,750 L475.376565,749.989756 C437.85234,749.807102 394.687582,747.162342 367.66094,729.815679 C359.721826,724.720071 352.927519,711.630767 347.87925,704.426209 L347.180785,703.422848 C336.844629,688.476027 332.82721,678.210083 332.732752,675.266584 L332.707826,674.360689 C332.458932,663.917806 332.743653,631.376891 323.374586,563.891046 C318.600081,529.500059 299.178187,498.683994 262.182388,429.814016 C242.377518,392.946022 231.132937,348.774376 226.900137,297.29908 L226.774253,295.736987 C226.261284,289.152146 226,282.49491 226,275.776702 C226,135.6197 339.719674,22 480,22 Z" id="Path" stroke="#000000" stroke-width="40"></path>
        <path d="M262,430 C297.759049,458 370.425715,472 480,472 C589.574285,472 662.240951,458 698,430" id="Path-19" stroke="#000000" stroke-width="20"></path>
        <path d="M337,683.568729 C374.23624,692.52291 421.848425,697 479.836554,697 C539.039669,697 587.427484,692.333333 625,683" id="Path-19" stroke="#000000" stroke-width="20"></path>
        <g id="Fixture-E27" transform="translate(350.000000, 728.000000)" fill="#000000" stroke="#000000" stroke-linejoin="bevel" stroke-width="7">
            <path d="M159.368629,210.744492 L176.68359,195.64322 C174.153608,196.027966 171.333762,196.027966 168.122893,196.027966 C162.384959,196.413674 156.353272,196.413674 149.641669,196.413674 C143.319146,196.413674 136.510274,196.797458 129.799645,196.797458 C122.698964,196.797458 115.986389,196.413674 109.567568,196.413674 C103.146802,196.413674 97.1160874,196.413674 91.4744508,196.027966 C88.2645541,196.027966 85.4437358,196.027966 82.6238902,195.64322 L100.423254,210.744492 L101.105114,211.417797 C104.704089,214.591949 108.204821,217.766102 129.895941,218.439407 C151.587061,217.766102 155.08974,214.591949 158.688715,211.417797 L159.368629,210.744492 Z M236.600689,13.5622881 C230.861783,14.2355932 224.441989,14.9088983 217.730387,15.2936441 C204.891773,15.9669492 191.07949,16.6402542 176.877157,17.0259619 C160.925915,17.6983051 144.584623,18.0830508 129.313297,18.0830508 C114.040997,18.0830508 97.9915138,17.6983051 82.0392999,17.0259619 C67.4488605,16.7364407 53.5393082,15.9669492 40.7979637,15.2936441 C34.3771976,14.9088983 28.3474554,14.2355932 22.3167404,13.8508475 L18.4259565,13.1785042 C19.8850005,14.9088983 20.9539933,17.0259619 22.0249316,18.7563559 C23.4839755,21.5457627 24.5529684,24.7208771 25.2348283,27.509322 C25.9157154,29.240678 27.0009752,31.6927363 28.8338033,39.725 C29.221909,42.129661 29.9027962,44.6305085 30.2928473,47.4199153 C30.9727618,51.2673729 31.6536489,55.5005381 32.0437,60.020339 C44.4932357,61.0783898 58.0146823,61.8478814 72.2150707,62.5211864 C94.977129,63.5792373 118.80818,63.9639831 139.721143,63.9639831 L139.721143,70.6008475 C118.80818,70.6008475 94.977129,70.2161017 71.9242346,69.1580508 C58.1109792,68.3885593 44.8832868,67.7152542 33.2109352,66.6572034 C33.2109352,69.447572 33.502744,72.2360169 33.8908497,75.4101695 C34.1836312,78.9690678 34.1836312,82.8165254 34.5717368,86.6639831 C46.2440884,87.3372881 59.0836752,88.395339 72.2150707,88.7800847 C94.977129,89.8381356 118.80818,90.5114407 139.721143,90.5114407 L139.721143,96.8607076 C118.80818,96.8607076 94.977129,96.475 71.9242346,95.417911 C59.0836752,95.0322034 46.3423307,93.9751144 34.9617879,93.3008475 C35.252624,98.5911017 35.6426751,103.881356 35.6426751,109.460169 L35.6426751,113.019068 C47.0222452,114.077119 59.4737262,114.84661 72.2150707,115.519915 C94.977129,116.578928 118.80818,116.962712 139.721143,116.962712 L139.721143,123.599576 C118.80818,123.599576 94.977129,122.926271 71.9242346,121.869182 C59.4737262,121.483475 47.0222452,120.810169 36.0307808,119.752119 L36.0307808,141.875 L39.9215646,142.259746 C43.1314613,142.549267 46.3423307,142.549267 49.1621763,142.933051 C53.4430113,142.933051 57.3337951,143.22161 61.224579,143.606356 C65.5034685,143.606356 69.7833308,143.992064 73.6741146,143.992064 C78.3430553,144.279661 82.9147263,144.279661 87.1955612,144.664407 C91.7662596,144.664407 96.4361729,144.664407 101.006871,145.049153 L115.597311,145.049153 C120.168982,145.049153 125.227001,145.43486 129.799645,145.43486 C134.371316,145.43486 139.040256,145.049153 144.000033,145.049153 L158.590472,145.049153 C162.773065,144.664407 167.442978,144.664407 172.402755,144.664407 C176.68359,144.375847 181.352531,144.375847 185.924202,143.992064 C189.814986,143.992064 194.093875,143.606356 198.37471,143.606356 C202.265494,143.317797 206.156278,142.933051 210.047062,142.933051 C212.96515,142.644492 216.077777,142.644492 219.675779,142.259746 L223.566563,141.875 C223.566563,131.679237 223.566563,120.810169 223.955641,109.556356 C224.24745,98.0139831 224.637501,86.3754237 225.706494,75.5063559 C226.387381,65.3105932 227.846425,55.884322 228.916391,47.4199153 C230.278165,39.725 232.12726,32.7033898 233.878113,27.4131356 C234.655297,24.6237288 236.018044,21.4495763 237.477088,18.6601695 C238.546081,16.5450297 239.616046,14.8127119 240.881524,13.1785042 L236.600689,13.5622881 Z M255.860069,0 L258,8.7529661 C257.319113,9.13771186 256.931007,9.81197881 255.860069,10.8690678 C255.179182,11.5423729 254.791076,12.2166398 254.109216,12.6004237 C252.067527,15.4860169 250.218432,18.2754237 248.468552,21.0648305 C247.397614,23.565678 246.327648,25.970339 245.93857,28.4711864 L245.550464,28.8559322 C243.799612,33.7614407 242.436865,40.3983051 240.977821,47.8056229 C239.518777,56.2690678 238.449784,65.695339 237.378846,75.8911017 C236.697958,87.1449153 236.018044,99.0720339 235.627993,110.326809 C235.238914,123.311979 235.238914,135.622881 235.627993,147.165254 L235.627993,151.012712 L204.015374,184.390369 L204.405425,184.390369 L193.705769,193.528081 L166.37204,217.093758 L165.691153,217.477542 C160.730404,221.709746 155.770627,225.941949 129.799645,227 L129.409593,227 C103.82769,225.941949 98.8679128,221.709746 93.9061907,217.477542 L93.2253035,217.093758 L65.8925469,193.528081 L55.1928913,184.390369 L55.5829424,184.390369 L23.9703235,151.012712 L23.9703235,147.165254 C24.3584292,135.622881 24.3584292,123.311979 23.9703235,110.326809 C23.677542,99.0720339 22.8993853,87.1449153 22.2184981,75.8911017 C21.1485325,65.695339 20.0795397,56.2690678 18.6204957,47.8056229 C17.2577487,40.3983051 15.7987047,33.7614407 14.0488247,28.8559322 L13.6587736,28.8559322 L13.6587736,28.4711864 C13.3669648,25.970339 12.2979719,23.565678 10.838928,21.0648305 C9.47618094,18.1792373 7.33624982,15.3898305 5.1963187,12.6004237 C4.80821301,12.3118644 4.12635314,11.5423729 3.73727475,10.8690678 C3.05736027,10.1957627 2.2782308,9.42627119 1.59831632,8.7529661 L0,0 L6.16901466,2.11706356 C10.7406857,2.40466102 16.0905135,3.17415254 21.4403413,3.84745763 C27.1802202,4.23220339 33.5990409,4.90550847 40.3116157,5.29025424 C53.1512025,5.96452119 67.3515909,6.73305085 81.552952,7.4073178 C97.8952169,7.69491525 114.236509,8.07966102 129.507836,8.07966102 C144.77819,8.07966102 161.120455,7.79110169 177.461747,7.4073178 C191.760377,6.73305085 205.960766,5.96452119 218.703083,5.29025424 C225.804736,5.00265678 232.223557,4.23220339 237.865194,3.55986017 C243.50683,3.27033898 248.564849,2.50084746 253.13652,1.82754237 L255.860069,0 Z" id="Fill-21"></path>
        </g>
    </g>
</svg>