<?xml version="1.0" encoding="UTF-8"?>
<svg width="960px" height="960px" viewBox="0 0 960 960" version="1.1" xmlns="http://www.w3.org/2000/svg" xmlns:xlink="http://www.w3.org/1999/xlink">
    <!-- Generator: Sketch 60.1 (88133) - https://sketch.com -->
    <title>dimmable_bulb/learnmode</title>
    <desc>Created with Sketch.</desc>
    <style type="text/css">
      #pair {
        animation-name: toggles;
        animation-delay: 3s;
        animation-duration: 14.2s;
        animation-iteration-count: infinite;
        opacity: 0;
      }

      @keyframes toggles {
        1%,	/* low toggle 1 */
        6%,	/* low toggle 1 */
        10%,	/* low toggle 2 */
        15%,	/* low toggle 2 */
        18%,	/* low toggle 3 */
        23%,	/* low toggle 3 */
        27%,	/* low toggle 4 */
        32%,	/* low toggle 4 */
        35%,	/* low toggle 5 */
        40%,	/* low toggle 5 */
        44%,	/* low toggle 6 */
        48%	/* low toggle 6 */
        {
          opacity: 0;
        }
        3%,	/* high toggle 1 */
        5%,	/* high toggle 1 */
        11%,	/* high toggle 2 */
        13%,	/* high toggle 2 */
        20%,	/* high toggle 3 */
        22%,	/* high toggle 3 */
        28%,	/* high toggle 4 */
        30%,	/* high toggle 4 */
        36%,	/* high toggle 5 */
        39%,	/* high toggle 5 */
        45%,	/* high toggle 6 */
        47%	/* high toggle 6 */
        {
          opacity: 1;
        }
      }
    </style>
    <g id="dimmable_bulb/learnmode" stroke="none" stroke-width="1" fill="none" fill-rule="evenodd">
        <path d="M481,22 C621.280326,22 735,135.719674 735,276 C735,331.767017 716.711904,389.199357 685.862901,438.15965 C646.979353,460.71916 578.359281,472 480,472 C382.424351,472 314.115933,460.898194 275.074744,438.694581 C244.785234,389.619171 227,331.970827 227,276 C227,135.719674 340.719674,22 481,22 Z" id="pair" fill="#FFF67A"></path>
        <path d="M480,22 C620.280326,22 734,135.6197 734,275.776702 C734,282.49491 733.738716,289.152146 733.225747,295.738818 C729.109074,347.883106 717.822531,392.573618 697.817612,429.814016 L695.61893,433.900883 C660.050797,499.918067 641.304429,530.187879 636.625414,563.891046 L636.058107,568.020973 C626.990274,634.752182 627.561901,666.084608 627.267248,675.266584 L627.255113,675.473636 C626.991118,678.668659 622.925679,688.808179 612.819215,703.422848 L612.12075,704.426209 C607.072481,711.630767 600.278174,724.720071 592.33906,729.815679 C564.757982,747.518199 520.369869,749.909426 482.321381,750 L478.841363,750 L475.376565,749.989756 C437.85234,749.807102 394.687582,747.162342 367.66094,729.815679 C359.721826,724.720071 352.927519,711.630767 347.87925,704.426209 L347.180785,703.422848 C336.844629,688.476027 332.82721,678.210083 332.732752,675.266584 L332.707826,674.360689 C332.458932,663.917806 332.743653,631.376891 323.374586,563.891046 C318.600081,529.500059 299.178187,498.683994 262.182388,429.814016 C242.377518,392.946022 231.132937,348.774376 226.900137,297.29908 L226.774253,295.736987 C226.261284,289.152146 226,282.49491 226,275.776702 C226,135.6197 339.719674,22 480,22 Z" id="Path" stroke="#000000" stroke-width="20" stroke-linejoin="round"></path>
        <path d="M262,430 C297.759049,458 370.425715,472 480,472 C589.574285,472 662.240951,458 698,430" id="Path-19" stroke="#000000" stroke-width="20"></path>
        <path d="M337,683.568729 C374.23624,692.52291 421.848425,697 479.836554,697 C539.039669,697 587.427484,692.333333 625,683" id="Path-19" stroke="#000000" stroke-width="10"></path>
        <path d="M593.092309,732 L595,739.827542 C594.393008,740.17161 594.047022,740.774589 593.092309,741.719915 C592.485317,742.322034 592.139331,742.925013 591.531472,743.26822 C589.711362,745.848729 588.062944,748.34322 586.502973,750.837712 C585.548261,753.074153 584.594415,755.224576 584.247562,757.461017 L583.901577,757.805085 C582.340739,762.191949 581.125887,768.127119 579.825189,774.751284 C578.524491,782.319915 577.571513,790.749576 576.6168,799.867373 C576.009808,809.931356 575.403683,820.597458 575.055963,830.662301 C574.70911,842.274589 574.70911,853.283898 575.055963,863.605932 L575.055963,867.04661 L546.874171,896.895352 L547.221891,896.895352 L537.683438,905.066962 L513.31616,926.141114 L512.709167,926.484322 C508.286794,930.269068 503.865287,934.053814 480.712861,935 L480.365141,935 C457.559568,934.053814 453.138062,930.269068 448.714821,926.484322 L448.107829,926.141114 L423.741418,905.066962 L414.202965,896.895352 L414.550685,896.895352 L386.368893,867.04661 L386.368893,863.605932 C386.714879,853.283898 386.714879,842.274589 386.368893,830.662301 C386.107886,820.597458 385.414181,809.931356 384.807188,799.867373 C383.853343,790.749576 382.900365,782.319915 381.599667,774.751284 C380.384815,768.127119 379.084117,762.191949 377.524146,757.805085 L377.176426,757.805085 L377.176426,757.461017 C376.916286,755.224576 375.963308,753.074153 374.66261,750.837712 C373.447758,748.257203 371.540068,745.762712 369.632377,743.26822 C369.286391,743.010169 368.678532,742.322034 368.331679,741.719915 C367.725554,741.117797 367.030981,740.429661 366.424856,739.827542 L365,732 L370.499509,733.893233 C373.866318,734.1057 377.706547,734.612265 381.6291,735.121477 C383.134429,737.756449 384.861549,740.889196 386.811006,744.519101 C386.172003,744.471823 385.533392,744.427311 384.894769,744.386441 L381.42624,743.785182 C382.726938,745.332627 383.679917,747.22586 384.634629,748.773305 C385.935327,751.267797 386.888305,754.107216 387.496165,756.600847 C388.103157,758.149153 389.070637,760.341962 390.704553,767.525 C391.050539,769.675424 391.657532,771.911864 392.005251,774.406356 C392.611377,777.847034 393.218369,781.63264 393.566089,785.674576 C404.664512,786.620763 416.718515,787.308898 429.377776,787.911017 C449.669534,788.857203 470.914269,789.201271 489.557608,789.201271 L489.557608,795.136441 C470.914269,795.136441 449.669534,794.792373 429.118504,793.846186 C416.804361,793.158051 405.012232,792.555932 394.606648,791.609746 C394.606648,794.105097 394.866787,796.598729 395.212773,799.437288 C395.47378,802.619915 395.47378,806.060593 395.819765,809.501271 C406.22535,810.10339 417.671493,811.049576 429.377776,811.393644 C449.669534,812.339831 470.914269,812.941949 489.557608,812.941949 L489.557608,818.619928 C470.914269,818.619928 449.669534,818.275 429.118504,817.329674 C417.671493,816.984746 406.31293,816.039419 396.167485,815.436441 C396.426758,820.167373 396.774478,824.898305 396.774478,829.887288 L396.774478,833.069915 C406.919056,834.016102 418.019213,834.704237 429.377776,835.306356 C449.669534,836.253403 470.914269,836.59661 489.557608,836.59661 L489.557608,842.53178 C470.914269,842.53178 449.669534,841.929661 429.118504,840.984335 C418.019213,840.639407 406.919056,840.037288 397.120463,839.091102 L397.120463,858.875 L400.588992,859.219068 C403.450528,859.477979 406.31293,859.477979 408.826746,859.821186 C412.642995,859.821186 416.111523,860.079237 419.580051,860.423305 C423.394565,860.423305 427.209946,860.768233 430.678474,860.768233 C434.840708,861.025424 438.916229,861.025424 442.732477,861.369492 C446.807131,861.369492 450.970232,861.369492 455.044885,861.713559 L468.051866,861.713559 C472.127387,861.713559 476.636474,862.058487 480.712861,862.058487 C484.788382,862.058487 488.950616,861.713559 493.372122,861.713559 L506.379103,861.713559 C510.107771,861.369492 514.270872,861.369492 518.692379,861.369492 C522.508627,861.111441 526.670861,861.111441 530.746381,860.768233 C534.21491,860.768233 538.029424,860.423305 541.845672,860.423305 C545.3142,860.165254 548.782728,859.821186 552.251256,859.821186 C554.852653,859.563136 557.627475,859.563136 560.834997,859.219068 L564.303525,858.875 C564.303525,849.757203 564.303525,840.037288 564.650378,829.973305 C564.910517,819.651271 565.258237,809.24322 566.211216,799.523305 C566.818208,790.405508 568.118906,781.975847 569.072751,774.406356 C570.286736,767.525 571.935154,761.245763 573.495992,756.514831 C574.188831,754.020339 575.403683,751.18178 576.704381,748.687288 C577.657359,746.795775 578.611204,745.24661 579.739343,743.785182 L576.973,744.034 L584.373065,734.518007 C586.580293,734.242938 588.674018,733.928373 590.66434,733.634322 L593.092309,732 Z M522.508627,906.958475 C520.253216,907.302542 517.7394,907.302542 514.876997,907.302542 C509.761785,907.64747 504.3847,907.64747 498.401488,907.64747 C492.76513,907.64747 486.695205,907.990678 480.712861,907.990678 C474.382797,907.990678 468.398719,907.64747 462.676514,907.64747 C456.952576,907.64747 451.576357,907.64747 446.546991,907.302542 C443.685455,907.302542 441.170772,907.302542 438.656956,906.958475 L454.524606,920.463136 L455.132466,921.065254 L455.324994,921.23555 C458.472173,924.016461 461.848403,926.754415 480.798707,927.344492 C500.135752,926.742373 503.258295,923.903814 506.466684,921.065254 L507.072809,920.463136 L522.508627,906.958475 Z" id="Combined-Shape" stroke="#000000" stroke-width="7" fill="#000000" stroke-linejoin="bevel"></path>
    </g>
</svg>
