<?xml version="1.0" encoding="UTF-8"?>
<svg width="960px" height="960px" viewBox="0 0 960 960" version="1.1" xmlns="http://www.w3.org/2000/svg" xmlns:xlink="http://www.w3.org/1999/xlink">
    <!-- Generator: Sketch 60.1 (88133) - https://sketch.com -->
    <title>dimmable_bulb_e14</title>
    <desc>Created with Sketch.</desc>
    <g id="dimmable_bulb_e14" stroke="none" stroke-width="1" fill="none" fill-rule="evenodd">
        <path d="M479,21 C619.280326,21 733,134.943531 733,275.5 C733,337.294216 711.019904,393.9446 674.466046,438.030238 C678.983886,437.375447 683.495942,436.698575 688,436 L684,441.890969 C656.096045,487.06117 638.831185,515.300451 633.650624,532.825163 C626.038371,558.575762 624.689485,612.087765 624.593754,623.835921 L624.583229,625.901153 C624.481567,635.314965 622.743679,663.164324 619.841701,666.093126 L619.641866,666.288143 C616.085062,669.663661 596.834823,683.783858 579.940198,700.093425 L578.310161,701.676373 C567.347558,712.356025 559.995175,720.073165 556.253012,724.827792 C532.236111,727.027329 509.457827,728.35719 487.91816,728.817373 L487.918072,729 C485.134439,729 482.3288,728.984549 479.501156,728.953648 C477.614955,728.974247 475.739124,728.987981 473.873272,728.994849 L471.081928,729 L471.082829,728.817394 C449.54287,728.35723 426.764257,727.027363 402.746988,724.827792 C399.004825,720.073165 391.652442,712.356025 380.689839,701.676373 L379.581545,700.598533 C362.216455,683.738946 342.150029,669.11251 339.158299,666.093126 C336.256321,663.164324 334.518433,635.314965 334.416771,625.901153 L334.406246,623.835921 C334.310515,612.087765 332.961629,558.575762 325.349376,532.825163 C320.063089,514.942803 299.946631,482.667749 271,436 C275.126907,436.640079 279.260528,437.261938 283.399613,437.865576 C246.925607,393.804068 225,337.217574 225,275.5 C225,134.943531 338.719674,21 479,21 Z" id="Combined-Shape" stroke="#000000" stroke-width="40" stroke-linejoin="round"></path>
        <path d="M274,436 C343.421522,446.256549 411.75507,451.589883 479.000643,452 C546.245599,451.58983 614.578818,446.256499 684,436 L682.28159,438.644364" id="Path" stroke="#000000" stroke-width="20"></path>
        <path d="M351,663 C395.93518,666.757788 440.439279,668.757788 484.512298,669 C525.632853,668.773983 567.128773,667.017788 609,663.731413" id="Path" stroke="#000000" stroke-width="20"></path>
        <g id="Fixture-E27" transform="translate(384.000000, 723.000000)" fill="#000000" stroke="#000000" stroke-linejoin="bevel" stroke-width="9">
            <path d="M118.59991,215.386441 L131.485462,199.952542 C129.602685,200.345763 127.504195,200.345763 125.114711,200.345763 C120.844621,200.739966 116.355923,200.739966 111.361242,200.739966 C106.656108,200.739966 101.589041,201.132203 96.5950843,201.132203 C91.3108569,201.132203 86.3154524,200.739966 81.5386556,200.739966 C76.7604111,200.739966 72.2724371,200.739966 68.0740099,200.345763 C65.6852496,200.345763 63.586036,200.345763 61.4875462,199.952542 L74.7335841,215.386441 L75.2410147,216.074576 C77.9193218,219.318644 80.5245182,222.562712 96.6667471,223.250847 C112.808976,222.562712 115.41562,219.318644 118.093927,216.074576 L118.59991,215.386441 Z M176.074931,13.8610169 C171.804117,14.5491525 167.026597,15.2372881 162.031916,15.6305085 C152.477599,16.3186441 142.19869,17.0067797 131.629512,17.4009831 C119.758821,18.0881356 107.597859,18.4813559 96.2331509,18.4813559 C84.8677188,18.4813559 72.9239172,18.0881356 61.0525023,17.4009831 C50.1945008,17.1050847 39.8432061,16.3186441 30.3612753,15.6305085 C25.5830308,15.2372881 21.0957807,14.5491525 16.6078068,14.1559322 L13.7123397,13.4687797 C14.7981399,15.2372881 15.5936695,17.4009831 16.3906468,19.1694915 C17.4764469,22.020339 18.2719765,25.2653898 18.7794071,28.1152542 C19.2861138,29.8847458 20.093749,32.3908142 21.4577141,40.6 C21.746537,43.0576271 22.2532437,45.6135593 22.5435143,48.4644068 C23.0494971,52.3966102 23.5562039,56.7230169 23.8464744,61.3423729 C33.1112452,62.4237288 43.1737171,63.2101695 53.741448,63.8983051 C70.6806541,64.979661 88.4153898,65.3728814 103.978525,65.3728814 L103.978525,72.1559322 C88.4153898,72.1559322 70.6806541,71.7627119 53.5250118,70.6813559 C43.2453799,69.8949153 33.4015157,69.2067797 24.7151146,68.1254237 C24.7151146,70.9772542 24.9322746,73.8271186 25.2210974,77.0711864 C25.4389813,80.7084746 25.4389813,84.640678 25.7278042,88.5728814 C34.4142053,89.2610169 43.9692466,90.3423729 53.741448,90.7355932 C70.6806541,91.8169492 88.4153898,92.5050847 103.978525,92.5050847 L103.978525,98.9942034 C88.4153898,98.9942034 70.6806541,98.6 53.5250118,97.5196271 C43.9692466,97.1254237 34.4873159,96.0450508 26.0180747,95.3559322 C26.2345109,100.762712 26.5247815,106.169492 26.5247815,111.871186 L26.5247815,115.508475 C34.9932987,116.589831 44.2595172,117.376271 53.741448,118.064407 C70.6806541,119.146746 88.4153898,119.538983 103.978525,119.538983 L103.978525,126.322034 C88.4153898,126.322034 70.6806541,125.633898 53.5250118,124.553525 C44.2595172,124.159322 34.9932987,123.471186 26.8136043,122.389831 L26.8136043,145 L29.7090714,145.39322 C32.0978317,145.689119 34.4873159,145.689119 36.5858056,146.081356 C39.7715433,146.081356 42.6670103,146.376271 45.5624774,146.769492 C48.7467673,146.769492 51.931781,147.163695 54.8272481,147.163695 C58.3018086,147.457627 61.7039824,147.457627 64.88972,147.850847 C68.2911699,147.850847 71.7664543,147.850847 75.1679042,148.244068 L86.0259057,148.244068 C89.4280794,148.244068 93.1921866,148.638271 96.5950843,148.638271 C99.9972581,148.638271 103.471819,148.244068 107.162815,148.244068 L118.020817,148.244068 C121.133444,147.850847 124.608728,147.850847 128.299725,147.850847 C131.485462,147.555932 134.960023,147.555932 138.362197,147.163695 C141.257664,147.163695 144.441954,146.769492 147.627691,146.769492 C150.523158,146.474576 153.418625,146.081356 156.314092,146.081356 C158.485693,145.786441 160.802066,145.786441 163.479649,145.39322 L166.375117,145 C166.375117,134.579661 166.375117,123.471186 166.664663,111.969492 C166.881823,100.172881 167.172094,88.2779661 167.967623,77.1694915 C168.47433,66.7491525 169.56013,57.1152542 170.356384,48.4644068 C171.369797,40.6 172.745868,33.4237288 174.048828,28.0169492 C174.627198,25.1661017 175.641335,21.9220339 176.727135,19.0711864 C177.522665,16.9094576 178.318918,15.1389831 179.260669,13.4687797 L176.074931,13.8610169 Z M190.407493,0 L192,8.94576271 C191.493293,9.33898305 191.20447,10.0281017 190.407493,11.1084746 C189.900786,11.7966102 189.611964,12.4857288 189.104533,12.8779661 C187.585137,15.8271186 186.209066,18.6779661 184.90683,21.5288136 C184.109852,24.0847458 183.313599,26.5423729 183.024052,29.0983051 L182.735229,29.4915254 C181.432269,34.5050847 180.418132,41.2881356 179.332332,48.8586102 C178.246531,57.5084746 177.451002,67.1423729 176.654025,77.5627119 C176.147318,89.0644068 175.641335,101.254237 175.351064,112.756915 C175.061518,126.028102 175.061518,138.610169 175.351064,150.40678 L175.351064,154.338983 L151.825395,188.451831 L152.115665,188.451831 L144.153131,197.790814 L123.811751,221.875559 L123.305044,222.267797 C119.613324,226.59322 115.922327,230.918644 96.5950843,232 L96.3048137,232 C77.2671178,230.918644 73.5761212,226.59322 69.8836768,222.267797 L69.3769701,221.875559 L49.036314,197.790814 L41.0737796,188.451831 L41.3640501,188.451831 L17.8383803,154.338983 L17.8383803,150.40678 C18.1272031,138.610169 18.1272031,126.028102 17.8383803,112.756915 C17.6204964,101.254237 17.041403,89.0644068 16.5346963,77.5627119 C15.7384428,67.1423729 14.9429132,57.5084746 13.8571131,48.8586102 C12.8429758,41.2881356 11.7571756,34.5050847 10.4549393,29.4915254 L10.1646687,29.4915254 L10.1646687,29.0983051 C9.94750869,26.5423729 9.15197912,24.0847458 8.06617897,21.5288136 C7.05204163,18.579661 5.45953475,15.7288136 3.86702787,12.8779661 C3.57820503,12.5830508 3.07077443,11.7966102 2.78122772,11.1084746 C2.27524485,10.420339 1.69542757,9.63389831 1.18944471,8.94576271 L0,0 L4.59089463,2.16369492 C7.99306843,2.45762712 11.9743356,3.2440678 15.9556028,3.93220339 C20.2271406,4.32542373 25.0039374,5.01355932 29.9993419,5.40677966 C39.5543832,6.09589831 50.1221141,6.88135593 60.6905689,7.57047458 C72.8522544,7.86440678 85.0132161,8.25762712 96.3779243,8.25762712 C107.741909,8.25762712 119.903594,7.96271186 132.064556,7.57047458 C142.705397,6.88135593 153.273128,6.09589831 162.755783,5.40677966 C168.040734,5.11284746 172.817531,4.32542373 177.015958,3.63827119 C181.214385,3.34237288 184.978492,2.5559322 188.380666,1.86779661 L190.407493,0 Z" id="Fill-21"></path>
        </g>
    </g>
</svg>