<?xml version="1.0" encoding="UTF-8"?>
<svg width="960px" height="960px" viewBox="0 0 960 960" version="1.1" xmlns="http://www.w3.org/2000/svg" xmlns:xlink="http://www.w3.org/1999/xlink">
    <!-- Generator: Sketch 60.1 (88133) - https://sketch.com -->
    <title>dimmable_bulb_e14/learnmode</title>
    <desc>Created with Sketch.</desc>
  <style type="text/css">
    #pair {
    animation-name: toggles;
    animation-delay: 3s;
    animation-duration: 14.2s;
    animation-iteration-count: infinite;
    opacity: 0;
    }

    @keyframes toggles {
    1%,	/* low toggle 1 */
    6%,	/* low toggle 1 */
    10%,	/* low toggle 2 */
    15%,	/* low toggle 2 */
    18%,	/* low toggle 3 */
    23%,	/* low toggle 3 */
    27%,	/* low toggle 4 */
    32%,	/* low toggle 4 */
    35%,	/* low toggle 5 */
    40%,	/* low toggle 5 */
    44%,	/* low toggle 6 */
    48%	/* low toggle 6 */
    {
    opacity: 0;
    }
    3%,	/* high toggle 1 */
    5%,	/* high toggle 1 */
    11%,	/* high toggle 2 */
    13%,	/* high toggle 2 */
    20%,	/* high toggle 3 */
    22%,	/* high toggle 3 */
    28%,	/* high toggle 4 */
    30%,	/* high toggle 4 */
    36%,	/* high toggle 5 */
    39%,	/* high toggle 5 */
    45%,	/* high toggle 6 */
    47%	/* high toggle 6 */
    {
    opacity: 1;
    }
    }
  </style>

  <g id="dimmable_bulb_e14/learnmode" stroke="none" stroke-width="1" fill="none" fill-rule="evenodd">
        <path d="M481,22 C621.280326,22 735,135.719674 735,276 C735,322.808473 722.115647,370.790201 699.733688,413.950498 L698,410.376169 C691.338642,420.235353 687.068544,428.620806 675.648093,433.321414 C635.090916,450.014573 565.498778,448.648221 480,448.648221 C393.360447,448.648221 321.994904,453.250629 281.504227,436 C271.297856,431.651682 272.737597,423.447882 265.463427,417.344688 L262,410.376169 L260.585943,412.672976 C239.195007,369.844529 227,322.347144 227,276 C227,135.719674 340.719674,22 481,22 Z" id="pair" fill="#FFF67A"></path>
        <path d="M479,21 C619.280326,21 733,134.943531 733,275.5 C733,337.294216 711.019904,393.9446 674.466046,438.030238 C678.983886,437.375447 683.495942,436.698575 688,436 L684,441.890969 C656.096045,487.06117 638.831185,515.300451 633.650624,532.825163 C626.038371,558.575762 624.689485,612.087765 624.593754,623.835921 L624.583229,625.901153 C624.481567,635.314965 622.743679,663.164324 619.841701,666.093126 L619.641866,666.288143 C616.085062,669.663661 596.834823,683.783858 579.940198,700.093425 L578.310161,701.676373 C567.347558,712.356025 559.995175,720.073165 556.253012,724.827792 C532.236111,727.027329 509.457827,728.35719 487.91816,728.817373 L487.918072,729 C485.134439,729 482.3288,728.984549 479.501156,728.953648 C477.614955,728.974247 475.739124,728.987981 473.873272,728.994849 L471.081928,729 L471.082829,728.817394 C449.54287,728.35723 426.764257,727.027363 402.746988,724.827792 C399.004825,720.073165 391.652442,712.356025 380.689839,701.676373 L379.581545,700.598533 C362.216455,683.738946 342.150029,669.11251 339.158299,666.093126 C336.256321,663.164324 334.518433,635.314965 334.416771,625.901153 L334.406246,623.835921 C334.310515,612.087765 332.961629,558.575762 325.349376,532.825163 C320.063089,514.942803 299.946631,482.667749 271,436 C275.126907,436.640079 279.260528,437.261938 283.399613,437.865576 C246.925607,393.804068 225,337.217574 225,275.5 C225,134.943531 338.719674,21 479,21 Z" id="Combined-Shape" stroke="#000000" stroke-width="20" stroke-linejoin="round"></path>
        <path d="M274,436 C343.421522,446.256549 411.75507,451.589883 479.000643,452 C546.245599,451.58983 614.578818,446.256499 684,436 L682.28159,438.644364" id="Path" stroke="#000000" stroke-width="20" stroke-linejoin="round"></path>
        <path d="M343,662.813953 C390.721857,666.804783 437.985901,668.928814 484.79213,669.186047 C528.462798,668.946013 572.532108,667.080907 617,663.590726" id="Path" stroke="#000000" stroke-width="10" stroke-linejoin="round"></path>
        <path d="M572.44067,711 L574,719.714407 C573.50385,720.097458 573.221044,720.768754 572.44067,721.821186 C571.94452,722.491525 571.661714,723.162822 571.164855,723.544915 C569.677113,726.417797 568.32971,729.194915 567.054604,731.972034 C566.27423,734.461864 565.494566,736.855932 565.211051,739.345763 L564.928245,739.728814 C563.65243,744.612712 562.659421,751.220339 561.596241,758.595025 C560.533062,767.021186 559.754106,776.405932 558.973732,786.55678 C558.477582,797.761017 557.982141,809.635593 557.697917,820.840788 C557.414403,833.768754 557.414403,846.025424 557.697917,857.516949 L557.697917,861.347458 L534.662366,894.578076 L534.946589,894.578076 L527.149941,903.675534 L507.232339,927.137398 L506.736189,927.519492 C503.121379,931.733051 499.507278,935.94661 480.582687,937 L480.298463,937 C461.657386,935.94661 458.043285,931.733051 454.427767,927.519492 L453.931617,927.137398 L434.014724,903.675534 L426.218076,894.578076 L426.502299,894.578076 L403.466747,861.347458 L403.466747,857.516949 C403.749553,846.025424 403.749553,833.768754 403.466747,820.840788 C403.253403,809.635593 402.686374,797.761017 402.190223,786.55678 C401.410559,776.405932 400.631603,767.021186 399.568423,758.595025 C398.575414,751.220339 397.512234,744.612712 396.237128,739.728814 L395.952905,739.728814 L395.952905,739.345763 C395.740269,736.855932 394.961313,734.461864 393.898134,731.972034 C392.905124,729.099153 391.345794,726.322034 389.786465,723.544915 C389.503659,723.257627 389.0068,722.491525 388.723285,721.821186 C388.227844,721.150847 387.660106,720.384746 387.164665,719.714407 L386,711 L390.495251,713.107737 C393.826546,713.394068 397.72487,714.160169 401.623194,714.830508 L402.197,714.885 L405.861835,725.155563 C404.65802,725.02006 403.459942,724.894267 402.261811,724.789831 L399.426666,724.120449 C400.489845,725.84322 401.268801,727.950958 402.049175,729.673729 C403.112354,732.450847 403.89131,735.611975 404.388169,738.388136 C404.88432,740.111864 405.675129,742.553121 407.010678,750.55 C407.293484,752.944068 407.789634,755.433898 408.073858,758.211017 C408.569299,762.041525 409.06545,766.256042 409.349673,770.755932 C418.421428,771.809322 428.274265,772.575424 438.621834,773.245763 C455.20814,774.299153 472.573403,774.682203 487.812306,774.682203 L487.812306,781.289831 C472.573403,781.289831 455.20814,780.90678 438.409907,779.85339 C428.344434,779.087288 418.705651,778.416949 410.200216,777.363559 C410.200216,780.141636 410.412852,782.917797 410.695658,786.077966 C410.909003,789.621186 410.909003,793.451695 411.191808,797.282203 C419.697243,797.952542 429.053221,799.005932 438.621834,799.388983 C455.20814,800.442373 472.573403,801.112712 487.812306,801.112712 L487.812306,807.434008 C472.573403,807.434008 455.20814,807.05 438.409907,805.997568 C429.053221,805.613559 419.76883,804.561127 411.476032,803.889831 C411.687959,809.15678 411.972182,814.423729 411.972182,819.977966 L411.972182,823.521186 C420.264272,824.574576 429.337444,825.340678 438.621834,826.011017 C455.20814,827.065364 472.573403,827.447458 487.812306,827.447458 L487.812306,834.055085 C472.573403,834.055085 455.20814,833.384746 438.409907,832.332314 C429.337444,831.948305 420.264272,831.277966 412.254988,830.224576 L412.254988,852.25 L415.090132,852.633051 C417.429127,852.921297 419.76883,852.921297 421.823601,853.30339 C424.942969,853.30339 427.778114,853.590678 430.613259,853.973729 C433.73121,853.973729 436.849869,854.357737 439.685014,854.357737 C443.087188,854.644068 446.418483,854.644068 449.537851,855.027119 C452.868437,855.027119 456.27132,855.027119 459.601906,855.410169 L470.233699,855.410169 C473.564994,855.410169 477.250683,855.794178 480.582687,855.794178 C483.913982,855.794178 487.316156,855.410169 490.930257,855.410169 L501.56205,855.410169 C504.60983,855.027119 508.012713,855.027119 511.626814,855.027119 C514.746182,854.739831 518.148356,854.739831 521.479651,854.357737 C524.314796,854.357737 527.432746,853.973729 530.552114,853.973729 C533.387259,853.686441 536.222404,853.30339 539.057549,853.30339 C541.183907,853.016102 543.452023,853.016102 546.073823,852.633051 L548.908968,852.25 C548.908968,842.099153 548.908968,831.277966 549.192483,820.073729 C549.405119,808.582203 549.689342,796.994915 550.468298,786.173729 C550.964448,776.022881 552.027628,766.638136 552.807292,758.211017 C553.799593,750.55 555.146996,743.559322 556.422811,738.292373 C556.989131,735.515254 557.982141,732.355085 559.04532,729.577966 C559.824276,727.472144 560.603941,725.747458 561.526072,724.120449 L558.406703,724.502542 C557.2533,724.68743 556.062153,724.872318 554.839211,725.051178 C555.333309,723.540745 555.805318,722.138771 556.254501,720.845589 C556.914787,718.94465 557.660942,716.889575 558.492965,714.680363 C558.774636,714.634326 559.052652,714.589033 559.328126,714.544178 C563.439086,714.255932 567.124774,713.489831 570.456069,712.819492 L572.44067,711 Z M514.746182,905.781356 C512.902629,906.164407 510.847858,906.164407 508.508154,906.164407 C504.327025,906.548415 499.931841,906.548415 495.041217,906.548415 C490.434106,906.548415 485.472603,906.930508 480.582687,906.930508 C475.408547,906.930508 470.517214,906.548415 465.839934,906.548415 C461.161236,906.548415 456.766761,906.548415 452.655801,906.164407 C450.316807,906.164407 448.261327,906.164407 446.206556,905.781356 L459.176634,920.816102 L459.673494,921.486441 C462.296003,924.64661 464.846924,927.80678 480.652857,928.477119 C496.458789,927.80678 499.011128,924.64661 501.633637,921.486441 L502.129079,920.816102 L514.746182,905.781356 Z" id="Combined-Shape" stroke="#000000" stroke-width="9" fill="#000000" stroke-linejoin="bevel"></path>
    </g>
</svg>
