<?xml version="1.0" encoding="UTF-8"?>
<svg width="960px" height="960px" viewBox="0 0 960 960" version="1.1" xmlns="http://www.w3.org/2000/svg" xmlns:xlink="http://www.w3.org/1999/xlink">
    <!-- Generator: Sketch 60.1 (88133) - https://sketch.com -->
    <title>motion_sensor/pair</title>
    <desc>Created with Sketch.</desc>
        <style type="text/css">
    #pair {
    	animation: fillpulse 4s infinite;
    }
    
    @keyframes fillpulse {
    	0%, 15%, 35%, 55%, 75%, 100% {
    		fill: rgba(255,255,255,0);
    	}
    	25%, 45%, 65%, 85% {
    		fill: #0078CC;
    	}
    }
    </style>
    <g id="motion_sensor/pair" stroke="none" stroke-width="1" fill="none" fill-rule="evenodd">
        <rect id="Rectangle" stroke="#000000" stroke-width="20" x="211" y="10" width="539" height="939" rx="269.5"></rect>
        <path d="M680,279.5 C680,225.860031 658.746339,175.610734 621.567803,138.432197 C584.389266,101.253661 534.139969,80 480.5,80 C426.860031,80 376.610734,101.253661 339.432197,138.432197 C302.253661,175.610734 281,225.860031 281,279.5 L281,679.5 C281,733.139969 302.253661,783.389266 339.432197,820.567803 C376.610734,857.746339 426.860031,879 480.5,879 C534.139969,879 584.389266,857.746339 621.567803,820.567803 C658.746339,783.389266 680,733.139969 680,679.5 L680,279.5 Z" id="Rectangle" stroke="#000000" stroke-width="20"></path>
        <circle id="Oval" stroke="#000000" stroke-width="5" cx="481" cy="176" r="33.5"></circle>
        <circle id="pair" fill="#004DFF" cx="481" cy="176" r="26"></circle>
        <circle id="Oval" stroke="#000000" stroke-width="7.5" cx="481" cy="176" r="22.25"></circle>
        <g id="Group" transform="translate(335.000000, 251.000000)" stroke="#000000">
            <circle id="Oval" stroke-width="5" cx="36" cy="36" r="33.5"></circle>
            <circle id="Oval" stroke-width="7.5" cx="36" cy="36" r="22.25"></circle>
        </g>
        <g id="Group" transform="translate(553.000000, 251.000000)" stroke="#000000">
            <circle id="Oval" stroke-width="5" cx="36" cy="36" r="33.5"></circle>
            <circle id="Oval" stroke-width="7.5" cx="36" cy="36" r="22.25"></circle>
        </g>
        <path d="M469.000411,253.409022 C466.341257,254.351917 463.397194,254.163338 461.02295,253.031865 C458.553735,251.900391 456.55937,249.826024 455.609673,247.185919 L455.609673,247.185919 C454.659975,244.545815 454.849914,241.622842 455.989552,239.265606 C457.129189,236.814081 459.218524,234.834003 461.877678,233.891108 C464.821741,232.853924 467.765804,231.81674 470.709866,230.685267 C473.36902,229.742373 476.313083,229.930952 478.687327,231.062425 C481.156542,232.193898 483.150907,234.268266 484.100605,236.90837 L484.100605,236.90837 L484.100605,237.00266 L485.050302,236.531212 L486,236.154055 C484.860363,232.948214 482.391149,230.496688 479.542055,229.176636 C476.597992,227.856584 473.27405,227.573716 470.045078,228.705189 C467.101015,229.742373 464.156952,230.779557 461.212889,231.91103 C457.983917,233.042503 455.514703,235.494029 454.185126,238.322712 C452.855549,241.151395 452.57064,244.451525 453.710277,247.657366 L453.805247,247.845945 C454.944884,251.051786 457.414098,253.503312 460.263191,254.823364 C463.207254,256.143416 466.531196,256.426284 469.760169,255.294811 L478.592358,252.08897 L477.927569,250.203181 L469.000411,253.409022 Z" id="Path" stroke="#000000" stroke-width="2" fill="#000000" fill-rule="nonzero"></path>
        <path d="M508.289723,228.342634 L508.289723,228.154055 C507.150086,224.948214 504.680872,222.496688 501.831778,221.176636 C498.887715,219.856584 495.563773,219.573716 492.334801,220.705189 L483.502612,223.91103 L484.167401,225.796819 L492.999589,222.590978 C495.658743,221.648083 498.602806,221.836662 500.97705,222.968135 C503.446265,224.099609 505.44063,226.173976 506.390327,228.814081 L506.390327,228.814081 C507.340025,231.454185 507.150086,234.377158 506.010448,236.734394 C504.870811,239.185919 502.781476,241.165997 500.122322,242.108892 C497.178259,243.240365 494.234196,244.277549 491.290134,245.314733 C488.63098,246.257627 485.781887,246.069048 483.312673,244.937575 C480.843458,243.806102 478.849093,241.731734 477.899395,239.09163 L477.899395,239.09163 L477.899395,238.99734 L476.949698,239.468788 L476,239.845945 C477.139637,243.051786 479.608851,245.503312 482.457945,246.823364 C485.402008,248.143416 488.72595,248.426284 491.954922,247.294811 L500.787111,244.08897 C504.016083,242.957497 506.485297,240.505971 507.814874,237.677288 C509.144451,234.754316 509.42936,231.454185 508.289723,228.342634 Z" id="Path" stroke="#000000" stroke-width="2" fill="#000000" fill-rule="nonzero"></path>
        <line x1="283.307857" y1="357.232979" x2="679.124905" y2="357.232979" id="Path-2" stroke="#000000" stroke-width="10"></line>
        <path d="M619,432.5 L619,716.5 C619,792.439153 557.439153,854 481.5,854 C405.560847,854 344,792.439153 344,716.5 L344,432.5 C344,404.615263 352.300537,378.66922 366.565553,356.99793 L596.434447,356.99793 C610.699463,378.66922 619,404.615263 619,432.5 Z" id="Combined-Shape" stroke="#000000" stroke-width="10"></path>
    </g>
</svg>