<?xml version="1.0" encoding="UTF-8"?>
<svg width="960px" height="961px" viewBox="0 0 960 961" version="1.1" xmlns="http://www.w3.org/2000/svg" xmlns:xlink="http://www.w3.org/1999/xlink">
    <!-- Generator: Sketch 60.1 (88133) - https://sketch.com -->
    <title>rollerblind_fyrtur/icon</title>
    <desc>Created with Sketch.</desc>
    <g id="rollerblind_fyrtur/icon" stroke="none" stroke-width="1" fill="none" fill-rule="evenodd" transform="translate(0.000000, 1.000000)">
        <path d="M928,112 C944.568542,112 958,125.431458 958,142 L958,142 L958,217.745075 C958,236.581788 944.717949,252.322364 927.003074,256.096573 L927.003074,256.096573 L926.67,256.164 L926.671999,732.873395 C936.615333,737.640717 943.524233,747.725806 943.714229,759.444194 L943.714229,759.444194 L943.718248,759.940299 L943.718248,777 C943.718248,793.568542 930.28679,807 913.718248,807 L913.718248,807 L906.141722,807 C902.497252,807 899.004539,806.350127 895.77316,805.159932 L895.77316,805.159932 L895.624,805.103 L64.301,805.103 L64.1531323,805.159185 C61.0681094,806.295729 57.7448314,806.939779 54.2786445,807 L54.2786445,807 L46.2059868,807 C34.1130806,807 23.6910164,799.844803 18.9430697,789.536686 L18.9430697,789.536686 L18.899,789.438 L18.8282602,789.309102 C16.6245863,785.217328 15.3433143,780.55516 15.2629447,775.60087 L15.2629447,775.60087 L15.258921,775.104478 L15.258921,759.940299 C15.258921,748.010948 22.2217886,737.707862 32.3051698,732.873395 L32.3051698,732.873395 L32.305,255.941 L31.7823455,255.817419 C14.8796237,251.646674 2.29892785,236.510694 2,218.393376 L2,218.393376 L2,142 C2,125.431458 15.4314575,112 32,112 L32,112 Z M913.718248,759.940299 L913.5,759.94 L913.5,777 L913.718248,777 L913.718248,759.940299 Z M898.5,763.5 L53.579,763.5 L53.5792,777 L53.7825131,777 L53.7823689,775.103699 L898.5,775.103 L898.5,763.5 Z M45.579,763.5 L45.5,763.5 L45.5,775.104 L45.579,775.104 L45.579,763.5 Z M62.3053541,226.477567 L62.306,748.5 L896.671,748.5 L896.67,226.5 L62.8855597,226.5 C62.6910635,226.5 62.4975384,226.492458 62.3053541,226.477567 Z M928,142 L32,142 L32,217.745075 C32,222.832854 36.1214335,226.957313 41.2054795,226.957313 L41.2054795,226.957313 L41.4096778,226.952307 C42.7872589,226.884598 43.9857187,226.135576 44.675142,225.035141 C44.4965507,224.988458 44.3208484,224.933006 44.1476064,224.869762 C40.113074,223.396929 38.3893366,219.86112 37.3896274,214.487239 C36.7378308,210.983542 36.3973861,206.315807 36.3384589,200.396061 L36.3384589,200.396061 L36.3299859,199.059917 L36.3339296,197.130227 C36.3765493,191.061717 36.707928,186.27508 37.3571181,182.689727 C38.3502394,177.204907 40.0710254,173.618259 44.1476064,172.130075 C44.8340725,171.879476 45.5591692,171.751208 46.2899466,171.751101 L46.2899466,171.751101 L51.7968542,171.750292 C53.7116192,171.749986 55.4833764,172.394897 56.8989722,173.484689 C58.3097614,171.610655 60.5250617,170.5 62.8855597,170.5 L62.8855597,170.5 L911.11444,170.5 C913.559342,170.5 915.850786,171.691706 917.254698,173.69335 C920.957873,178.973195 922.5,187.109373 922.5,198.5 L922.5,198.5 L922.5,199.153544 C922.439888,210.2025 920.886658,218.128341 917.254698,223.30665 C916.743403,224.035636 916.114388,224.657193 915.403114,225.152882 C916.13698,226.24171 917.382177,226.957313 918.794521,226.957313 C923.878566,226.957313 928,222.832854 928,217.745075 L928,217.745075 L928,142 Z M906.275,185.5 L67.727,185.5 L67.683473,185.668866 C66.9726038,188.484701 66.528382,192.621806 66.5013123,197.977869 L66.5013123,197.977869 L66.5013123,199.093741 C66.5322836,204.392882 66.972842,208.488437 67.6688121,211.280983 L67.6688121,211.280983 L67.725,211.5 L906.274,211.5 L906.331188,211.280983 C907.03038,208.475509 907.47179,204.354932 907.498695,199.020065 L907.498695,199.020065 L907.498695,197.906259 C907.467716,192.607118 907.027158,188.511563 906.331188,185.719017 L906.331188,185.719017 L906.275,185.5 Z" id="Combined-Shape" fill="#000000" fill-rule="nonzero"></path>
    </g>
</svg>