<?xml version="1.0" encoding="UTF-8"?>
<svg width="960px" height="960px" viewBox="0 0 960 960" version="1.1" xmlns="http://www.w3.org/2000/svg" xmlns:xlink="http://www.w3.org/1999/xlink">
    <!-- Generator: Sketch 60.1 (88133) - https://sketch.com -->
    <title>updown_remote_control/pair</title>
        <style type="text/css">
        		#pair {
        			animation: fillpulse 4s infinite;
        		}
        
        		@keyframes fillpulse {
        			0%, 15%, 35%, 55%, 75%, 100% {
        				fill: rgba(255,255,255,0);
        			}
        			25%, 45%, 65%, 85% {
        				fill: #0078CC;
        			}
        		}
        </style>
    <g id="updown_remote_control/pair" stroke="none" stroke-width="1" fill="none" fill-rule="evenodd">
        <rect id="Rectangle" stroke="#000000" stroke-width="20" x="10" y="10" width="940" height="939" rx="276"></rect>
        <rect id="Rectangle" stroke="#000000" stroke-width="20" x="86" y="86" width="788" height="787" rx="230"></rect>
        <circle id="Oval" stroke="#000000" stroke-width="10" cx="493.5" cy="576.5" r="269.5"></circle>
        <path d="M332,164 L443.240058,163.99899 C455.163562,149.936366 473.030091,141 493,141 C528.898509,141 558,169.877634 558,205.5 C558,241.122366 528.898509,270 493,270 C473.030565,270 455.164411,261.064058 443.240907,247.002012 L332,247" id="Path" stroke="#000000" stroke-width="5"></path>
        <circle id="pair" fill="#004DFF" cx="493.5" cy="205.5" r="50.5"></circle>
        <circle id="Oval" stroke="#000000" stroke-width="7.5" cx="493.5" cy="205.5" r="46.75"></circle>
        <path d="M376.000411,297.409022 C373.341257,298.351917 370.397194,298.163338 368.02295,297.031865 C365.553735,295.900391 363.55937,293.826024 362.609673,291.185919 L362.609673,291.185919 C361.659975,288.545815 361.849914,285.622842 362.989552,283.265606 C364.129189,280.814081 366.218524,278.834003 368.877678,277.891108 C371.821741,276.853924 374.765804,275.81674 377.709866,274.685267 C380.36902,273.742373 383.313083,273.930952 385.687327,275.062425 C388.156542,276.193898 390.150907,278.268266 391.100605,280.90837 L391.100605,280.90837 L391.100605,281.00266 L392.050302,280.531212 L393,280.154055 C391.860363,276.948214 389.391149,274.496688 386.542055,273.176636 C383.597992,271.856584 380.27405,271.573716 377.045078,272.705189 C374.101015,273.742373 371.156952,274.779557 368.212889,275.91103 C364.983917,277.042503 362.514703,279.494029 361.185126,282.322712 C359.855549,285.151395 359.57064,288.451525 360.710277,291.657366 L360.805247,291.845945 C361.944884,295.051786 364.414098,297.503312 367.263191,298.823364 C370.207254,300.143416 373.531196,300.426284 376.760169,299.294811 L385.592358,296.08897 L384.927569,294.203181 L376.000411,297.409022 Z" id="Path" stroke="#000000" stroke-width="2" fill="#000000" fill-rule="nonzero"></path>
        <path d="M415.289723,272.342634 L415.289723,272.154055 C414.150086,268.948214 411.680872,266.496688 408.831778,265.176636 C405.887715,263.856584 402.563773,263.573716 399.334801,264.705189 L390.502612,267.91103 L391.167401,269.796819 L399.999589,266.590978 C402.658743,265.648083 405.602806,265.836662 407.97705,266.968135 C410.446265,268.099609 412.44063,270.173976 413.390327,272.814081 L413.390327,272.814081 C414.340025,275.454185 414.150086,278.377158 413.010448,280.734394 C411.870811,283.185919 409.781476,285.165997 407.122322,286.108892 C404.178259,287.240365 401.234196,288.277549 398.290134,289.314733 C395.63098,290.257627 392.781887,290.069048 390.312673,288.937575 C387.843458,287.806102 385.849093,285.731734 384.899395,283.09163 L384.899395,283.09163 L384.899395,282.99734 L383.949698,283.468788 L383,283.845945 C384.139637,287.051786 386.608851,289.503312 389.457945,290.823364 C392.402008,292.143416 395.72595,292.426284 398.954922,291.294811 L407.787111,288.08897 C411.016083,286.957497 413.485297,284.505971 414.814874,281.677288 C416.144451,278.754316 416.42936,275.454185 415.289723,272.342634 Z" id="Path" stroke="#000000" stroke-width="2" fill="#000000" fill-rule="nonzero"></path>
    </g>
</svg>