<?xml version="1.0" encoding="UTF-8"?>
<svg width="960px" height="960px" viewBox="0 0 960 960" version="1.1" xmlns="http://www.w3.org/2000/svg" xmlns:xlink="http://www.w3.org/1999/xlink">
    <!-- Generator: Sketch 60.1 (88133) - https://sketch.com -->
    <title>control_outlet/icon</title>
    <desc>Created with Sketch.</desc>
    <g id="control_outlet/icon" stroke="none" stroke-width="1" fill="none" fill-rule="evenodd">
        <rect id="Rectangle" stroke="#000000" stroke-width="40" x="221" y="20" width="519" height="919" rx="259.5"></rect>
        <rect id="Rectangle" fill="#000000" x="470" y="25" width="22" height="36"></rect>
        <g id="Creation/Socket-EU" transform="translate(296.000000, 509.000000)">
            <path d="M39.6675,83.025 L39.6674841,161.437 L11.9925,161.4375 L11.9925,203.8725 L39.6674841,203.872 L39.6675,282.285 C28.2648528,264.954266 20.6227623,250.84176 16.7412284,239.947483 C12.8596945,229.053205 9.71111307,210.570711 7.29548407,184.5 C10.6321672,157.405634 14.3419352,137.912579 18.4247878,126.020834 C22.5076405,114.129089 29.5885446,99.7971444 39.6675,83.025 Z" id="Combined-Shape" stroke="#000000" stroke-width="10" fill="#000000" fill-rule="evenodd" stroke-linejoin="round"></path>
            <path d="M240.7725,183.577973 C240.7725,170.330766 251.510766,159.5925 264.757027,159.5925 C278.004234,159.5925 288.7425,170.330766 288.7425,183.577973 C288.7425,196.824234 278.004234,207.5625 264.757027,207.5625 C251.510766,207.5625 240.7725,196.824234 240.7725,183.577973 Z" id="Combined-Shape-path" fill="#000000" fill-rule="nonzero"></path>
            <path d="M79.335,183.577973 C79.335,170.330766 90.0730544,159.5925 103.32,159.5925 C116.566946,159.5925 127.305,170.330766 127.305,183.577973 C127.305,196.824234 116.566946,207.5625 103.32,207.5625 C90.0730544,207.5625 79.335,196.824234 79.335,183.577973 Z" id="Combined-Shape-path" fill="#000000" fill-rule="nonzero"></path>
            <circle id="Oval" stroke="#000000" stroke-width="15" cx="184.5" cy="184.5" r="176.1975"></circle>
            <path d="M360.782016,83.025 L360.782,161.437 L333.107016,161.4375 L333.107016,203.8725 L360.782,203.872 L360.782016,282.285 C349.379369,264.954266 341.737278,250.84176 337.855744,239.947483 C333.97421,229.053205 330.825629,210.570711 328.41,184.5 C331.746683,157.405634 335.456451,137.912579 339.539304,126.020834 C343.622156,114.129089 350.70306,99.7971444 360.782016,83.025 Z" id="Combined-Shape" stroke="#000000" stroke-width="10" fill="#000000" fill-rule="evenodd" stroke-linejoin="round" transform="translate(344.596008, 182.655000) scale(-1, 1) translate(-344.596008, -182.655000) "></path>
        </g>
    </g>
</svg>