<?xml version="1.0" encoding="UTF-8"?>
<svg width="960px" height="960px" viewBox="0 0 960 960" version="1.1" xmlns="http://www.w3.org/2000/svg" xmlns:xlink="http://www.w3.org/1999/xlink">
    <!-- Generator: Sketch 60.1 (88133) - https://sketch.com -->
    <title>control_outlet/learnmode</title>
    <style type="text/css">
    	#pair {
    		animation: pair 5s infinite;
    	}
    	
    	@keyframes pair {
    		0%, 55%, 70%, 80%, 90%, 100% {
    			fill: rgba(255,255,255,0);
    		}
    		 60%, 75%, 85% {
    			fill: #0074CC;
    		}
    	}
    	
    	#move {
    		animation: move 5s infinite;
    	}
    	
    	@keyframes move {
    		0%, 100% {
    			transform: translate3d(0px, 0px, 0px);
    	        animation-timing-function: ease-in;
    		}
    	    20%, 68% {
    	        transform: translate3d(0px, 80px, 0px);
    	        animation-timing-function: ease-out;
    	    }

    	}
    </style>
    <g id="control_outlet/learnmode" stroke="none" stroke-width="1" fill="none" fill-rule="evenodd">
        <path d="M301.652886,611.422345 L301.514,612.437 L299.982,631.629 L299.969426,631.961269 L299.945366,632.832926 L299.936929,633.291975 L299.923574,634.905018 L299.922535,962.174648 C299.922535,965.138127 297.578755,967.554187 294.643742,967.670281 L294.422535,967.674648 L289.014084,967.674648 C286.050605,967.674648 283.634545,965.330868 283.518452,962.395855 L283.514084,962.174648 L283.514084,634.356051 L283.526809,633.033366 L283.550307,631.87509 L283.573993,631.146293 L283.573993,631.146293 L283.583422,630.904255 L283.622498,629.349722 C283.791905,623.659298 284.249537,617.897605 284.980304,612.134956 L285.163,610.735 L294.264,495.801 L294.26921,494.669866 C294.646167,450.586976 313.292013,409.132113 346.854234,377.539953 L347.875833,376.585641 L348.927673,375.618124 C384.033573,343.646679 430.589138,326.049296 480,326.049296 C529.479413,326.049296 576.036869,343.647394 611.072327,375.618124 C645.919385,407.353838 665.345741,449.660541 665.730784,494.669089 L665.735,495.804 L674.292,606.778 L674.498732,608.188424 C675.651579,616.311178 676.3187,624.47634 676.504748,632.782472 L676.535545,634.445607 L676.553521,636.112676 L676.553521,962.242254 C676.553521,965.205733 674.209741,967.621793 671.274728,967.742254 L665.64507,967.742254 C662.681591,967.742254 660.265531,965.398474 660.149438,962.463461 L660.14507,962.242254 L660.14507,636.180282 C660.14507,629.839972 659.810248,623.580963 659.138974,617.368053 L658.964145,615.815766 L658.784,614.339 L658.753774,614.275054 C658.556964,613.847174 658.413212,613.389047 658.331183,612.908765 L658.077084,609.639296 L658.011,608.673 L657.994084,608.569296 L652.964,543.979 L652.528084,542.966296 L652.964,543.752 L649.344397,496.726415 C649.33899,496.65618 649.334933,496.585854 649.332228,496.515476 L649.328169,496.304225 L649.328169,496.169014 C649.328169,455.210709 631.874229,416.791588 600.011996,387.736888 C567.981683,358.523146 525.432404,342.457746 480,342.457746 C434.567596,342.457746 392.018317,358.523146 359.987604,387.737253 C328.463767,416.483374 311.022738,454.484369 310.67707,494.942272 L310.671831,496.371831 L310.667557,496.588614 L310.654742,496.80506 L306.927,543.979 L301.823758,610.226824 L301.652886,611.422345 L301.652886,611.422345 Z" id="Shape" fill="#000000" fill-rule="nonzero"></path>
        <path d="M571.760715,881.39478 C545.271595,860.989391 513.524088,850.16338 480.001876,850.16338 C446.479664,850.16338 414.732157,860.989391 388.243036,881.39478 C362.608403,901.144048 343.678213,929.160451 335.067606,960.195015 L342.100697,962.16338 C350.316926,932.637897 368.261169,905.99935 392.712665,887.168653 C417.952918,867.747446 448.122909,857.446333 480.067606,857.446333 C512.012302,857.446333 542.182293,867.747446 567.422547,887.168653 C591.874043,905.99935 609.818286,932.637897 618.034514,962.16338 L625.067606,960.195015 C616.325539,929.160451 597.461078,901.20966 571.760715,881.39478 Z" id="Path" stroke="#000000" stroke-width="3" fill="#000000" fill-rule="nonzero"></path>
        <path d="M480,374.884507 C474.388732,374.884507 470.197183,377.385915 470.197183,380.630986 C470.197183,383.943662 474.388732,386.377465 480,386.377465 C485.611268,386.377465 489.802817,383.876056 489.802817,380.630986 C489.802817,377.31831 485.611268,374.884507 480,374.884507 Z M473.577465,381.847887 L473.712676,381.847887 C473.712676,380.901408 476.214085,379.48169 480,379.48169 C483.785915,379.48169 486.287324,380.901408 486.287324,381.847887 L486.422535,381.847887 C485.273239,382.861972 482.907042,383.740845 480,383.740845 C477.092958,383.740845 474.726761,382.861972 473.577465,381.847887 Z" id="Shape" fill="#000000" fill-rule="nonzero"></path>
        <path d="M480,379.48169 C476.214085,379.48169 473.712676,380.901408 473.712676,381.847887 L473.577465,381.847887 C474.726761,382.861972 477.092958,383.740845 480,383.740845 C482.907042,383.740845 485.340845,382.861972 486.422535,381.847887 L486.287324,381.847887 C486.287324,380.901408 483.785915,379.48169 480,379.48169 Z" id="Path" fill="#000000" fill-rule="nonzero"></path>
        <path d="M292.336139,646.895775 C292.336139,609.469828 310.269177,451.895775 480.034322,451.895775" id="Path-20" stroke="#000000" stroke-width="10"></path>
        <path d="M480,646.895775 C480,609.469828 497.933038,451.895775 667.698183,451.895775" id="Path-20" stroke="#000000" stroke-width="10" transform="translate(573.849092, 549.395775) scale(-1, 1) translate(-573.849092, -549.395775) "></path>
        <path d="M464.174896,490.260217 L466.215824,418.260217 C466.307841,415.014021 468.965915,412.430226 472.213415,412.430226 L487.786585,412.430226 C491.034085,412.430226 493.692159,415.014021 493.784176,418.260217 L495.825104,490.260217 C495.918997,493.572595 493.3099,496.333923 489.997522,496.427817 C489.940866,496.429423 489.884191,496.430226 489.827513,496.430226 L470.172487,496.430226 C466.858779,496.430226 464.172487,493.743934 464.172487,490.430226 C464.172487,490.373548 464.17329,490.316872 464.174896,490.260217 Z" id="black" fill="#000000"></path>
        <polygon id="pair" fill="#0074CC" points="487.786585 418.430226 489.827 490.427 489.756 490.430226 470.172487 490.430226 472.213414 418.430226"></polygon>
        <path d="M480,29 L480.67801,29.0054928 C502.785656,29.3639346 520.639745,47.2202432 520.994616,69.3287571 L521,70 L521,191 C521,211.257003 506.309305,228.082811 487.00065,231.40469 L487,294.617572 C487,298.759708 483.642136,302.117572 479.5,302.117572 C475.439083,302.117572 472.131982,298.890098 472.003854,294.860303 L472,294.617572 L472.000606,231.220049 C453.374522,227.536336 439.28419,211.236837 439.004246,191.596184 L439,191 L439,70 C439,47.582762 456.991034,29.3675552 479.32199,29.0054928 L480,29 Z M480,49 L479.649226,49.0028704 C468.329736,49.1882527 459.188253,58.3297355 459.00287,69.6492257 L459,70 L459,191 C459,202.59798 468.40202,212 480,212 C491.480828,212 500.809836,202.78696 500.99713,191.350774 L501,191 L501,70 C501,58.5191716 491.78696,49.1901639 480.350774,49.0028704 L480,49 Z" id="move" fill="#000000" fill-rule="nonzero"></path>
    </g>
</svg>