<?xml version="1.0" encoding="UTF-8"?>
<svg width="276px" height="49px" viewBox="0 0 276 49" version="1.1" xmlns="http://www.w3.org/2000/svg" xmlns:xlink="http://www.w3.org/1999/xlink">
    <title>Artboard</title>
    <g id="Artboard" stroke="none" stroke-width="1" fill="none" fill-rule="evenodd">
        <g id="icon" fill="#000000" fill-rule="nonzero">
            <g id="g35" transform="translate(48.000000, 1.000000)">
                <path d="M40.0197368,47.6869565 C40.0197368,47.6869565 40.6434211,47.1652174 40.7473684,46.7478261 C40.9552632,45.6 40.5394737,44.5565217 40.5394737,44.5565217 L30.6644737,28.9043478 L30.6644737,28.8 L30.6644737,45.2869565 L30.9763158,46.6434783 L31.4960526,47.373913 L0.207894737,47.373913 L0.727631579,46.6434783 L1.03947368,45.2869565 L1.03947368,2.29565217 L0.727631579,1.04347826 L0.207894737,0.417391304 L31.6,0.417391304 L31.0802632,1.14782609 L30.7684211,2.50434783 L30.7684211,17.9478261 L42.0986842,3.02608696 C42.0986842,3.02608696 42.3065789,2.4 42.3065789,1.56521739 C42.3065789,1.04347826 41.7868421,0.208695652 41.7868421,0.208695652 L72.9710526,0.208695652 L59.3539474,19.6173913 L75.6736842,45.9130435 L76.9210526,46.8521739 L78.2723684,47.4782609 L39.9157895,47.4782609 C40.0197368,47.373913 40.0197368,47.6869565 40.0197368,47.6869565 Z" id="path43"></path>
            </g>
            <g id="g45" transform="translate(0.000000, 1.000000)">
                <polygon id="polygon53" points="30.3483871 45.4956522 30.6580645 46.9565217 31.1741935 47.7913043 0 47.6869565 0.412903226 46.7478261 0.516129032 45.2869565 0.516129032 2.29565217 0.412903226 1.04347826 0 0.417391304 31.1741935 0.417391304 30.6580645 1.04347826 30.3483871 2.4"></polygon>
            </g>
            <g id="g55" transform="translate(132.000000, 0.000000)">
                <polygon id="polygon63" points="47.9111111 18.7659574 49.362963 18.5574468 50.1925926 18.0361702 50.1925926 31.2765957 49.2592593 30.7553191 47.9111111 30.4425532 30.5925926 30.4425532 30.5925926 34.8212766 53.2 34.8212766 54.7555556 34.5085106 55.5851852 33.8829787 55.6888889 48.8957447 0.82962963 48.7914894 1.34814815 47.8531915 1.55555556 46.393617 1.55555556 3.33617021 1.34814815 1.87659574 0.82962963 0.938297872 55.4814815 1.04255319 55.4814815 15.4297872 54.5481481 15.012766 53.0962963 14.9085106 30.5925926 14.9085106 30.5925926 18.7659574"></polygon>
            </g>
            <g id="g65" transform="translate(196.000000, 1.000000)">
                <path d="M36.7792208,20.2434783 L33.1428571,28.5913043 L40.5194805,28.5913043 L36.7792208,20.2434783 Z M17.974026,2.4 C17.974026,2.4 18.1818182,1.56521739 18.0779221,0.939130435 C17.974026,0.313043478 17.5584416,0 17.5584416,0 L60.0519481,0 C60.0519481,0 59.6363636,0.208695652 59.5324675,0.939130435 C59.4285714,1.56521739 59.6363636,2.4 59.6363636,2.4 L78.2337662,46.0173913 L78.8571429,46.9565217 L79.6883117,47.6869565 L46.1298701,47.7913043 C46.1298701,47.7913043 46.6493506,46.7478261 46.5454545,46.226087 C46.4415584,45.7043478 46.3376623,45.0782609 46.3376623,45.0782609 L44.1558442,38.9217391 L29.5064935,38.9217391 L27.1168831,45.0782609 C27.1168831,45.0782609 26.9090909,45.1826087 26.9090909,45.6 C26.9090909,46.5391304 27.4285714,47.2695652 27.4285714,47.2695652 L0.415584416,47.2695652 C0.415584416,47.2695652 1.35064935,46.8521739 1.87012987,45.8086957 C2.28571429,44.8695652 2.18181818,44.973913 2.18181818,44.973913 L17.974026,2.4 L17.974026,2.4 Z" id="path73"></path>
            </g>
        </g>
    </g>
</svg>