<?xml version="1.0" encoding="UTF-8"?>
<svg width="960px" height="960px" viewBox="0 0 960 960" version="1.1" xmlns="http://www.w3.org/2000/svg" xmlns:xlink="http://www.w3.org/1999/xlink">
    <!-- Generator: Sketch 60.1 (88133) - https://sketch.com -->
    <title>rollerblind_fyrtur/learnmode</title>
    <style type="text/css">
			#pair {
	    		animation: pair 5s infinite;
	    	}
	    	
	    	@keyframes pair {
	    		0%, 55%, 70%, 80%, 90%, 100% {
	    			fill: rgba(255,255,255,0);
	    		}
	    		 60%, 75%, 85% {
	    			fill: #0074CC;
	    		}
	    	}
	    	
	    	#button {
	    		animation: move 5s infinite;
	    	}
	    	
	    	@keyframes move {
	    		0%, 100% {
	    			fill: rgba(255,255,255,0);
	    		}
	    	    20%, 68% {
	    	        fill: #0074CC;
	    	    }
	
	    	}
	    </style>
   
    <g id="rollerblind_fyrtur/learnmode" stroke="none" stroke-width="1" fill="none" fill-rule="evenodd">
        <path d="M140,769.227051 C140,776.255883 140,786.993939 140,801.441219 C140,818.562047 126.120827,832.44122 109,832.44122 C107.06705,832.44122 105.138336,832.260432 103.239057,831.901219 C58.413019,823.423206 36,797.548834 36,754.278102 L36,181 L960,181 L960,422 L140,422 C140,437.249593 140,448.686787 140,456.311584" id="Path" stroke="#000000" stroke-width="20" stroke-linejoin="round"></path>
        <circle id="button" fill="#0074CC" cx="109" cy="249" r="23"></circle>
        <circle id="button" fill="#0074CC" cx="109" cy="357" r="23"></circle>
        <circle id="pair" fill="#0074CC" cx="109" cy="303" r="14"></circle>
        <rect id="Rectangle" stroke="#000000" stroke-width="10" stroke-linejoin="round" x="177" y="219" width="570" height="170"></rect>
        <circle id="Oval" stroke="#000000" stroke-width="10" stroke-linejoin="round" cx="109" cy="249" r="23"></circle>
        <circle id="Oval" stroke="#000000" stroke-width="10" stroke-linejoin="round" cx="109" cy="357" r="23"></circle>
        <circle id="Oval" stroke="#000000" stroke-width="10" stroke-linejoin="round" cx="109" cy="303" r="14"></circle>
        <path d="M230.665765,291.724453 L231.135223,291.779361 C235.890446,292.446425 240.223512,294.970651 243.028546,298.76616 C243.763975,299.761273 243.673614,301.129315 242.805583,302.053795 L242.682399,302.177035 L242.573523,302.270194 L241.669282,302.994263 L240.791783,303.830071 C239.605802,304.95679 237.720796,304.678094 236.864687,303.31642 L236.776481,303.16525 L236.630054,302.982378 C235.146117,301.193465 233.07202,299.966776 230.743084,299.497588 L230.408681,299.435736 L230.071029,299.384316 C227.559333,299.004052 224.828733,299.651435 222.707803,301.116061 L222.434686,301.311716 L220.634441,302.712143 L219.628063,303.483015 C218.822587,304.09668 217.950696,304.753388 216.91883,305.524148 L215.942529,306.25196 L213.085848,308.371146 C211.036685,309.894529 209.638816,312.152245 209.159247,314.675882 L209.101925,315.006521 L209.037579,315.452438 C208.729047,317.830261 209.332182,320.380381 210.682707,322.429207 L210.880705,322.718414 L211.012616,322.900215 L211.14167,323.070292 C212.772493,325.175451 215.194994,326.558425 217.908631,326.927715 C220.349054,327.297182 222.996988,326.696437 225.117287,325.297339 L225.403079,325.101621 L225.586637,324.968407 L234.998116,317.912635 C236.031344,317.138025 237.468905,317.261747 238.38603,318.208192 L238.502627,318.3363 L238.585466,318.442332 L240.060534,320.449237 C240.809799,321.468651 240.692938,322.871092 239.779159,323.786093 L239.649619,323.907763 L239.541589,323.994584 L230.21977,331.033029 C226.411921,333.841875 221.757201,335.003143 216.92263,334.385871 C212.406128,333.752296 208.266515,331.442246 205.451107,327.945546 L205.127192,327.530241 L205.020383,327.417254 L204.916795,327.297102 L204.848036,327.208706 C202.033151,323.399868 200.871528,318.731107 201.535118,314.038223 C202.186497,309.431694 204.586804,305.215622 208.153268,302.445796 L208.480689,302.198007 L209.385793,301.490558 L210.879691,300.337917 L212.377588,299.200306 L212.377588,299.200306 L213.204028,298.578702 L214.362455,297.712448 L217.838083,295.132204 C221.526937,292.411134 226.01056,291.236278 230.665765,291.724453 Z M252.720892,274.524605 L253.190352,274.579512 C257.945606,275.246564 262.278698,277.770782 265.083745,281.566287 C265.186832,281.705774 265.275317,281.855284 265.359426,282.043 L265.390072,282.117771 L265.565598,282.364798 C267.771613,285.566584 268.814786,289.416414 268.603086,293.450162 L268.574395,293.899089 L268.535348,294.349389 L268.503201,294.651719 L268.465381,294.961557 C267.827568,299.472039 265.512517,303.609052 262.019706,306.416285 L261.68882,306.675538 L252.162253,313.867622 C248.354373,316.676476 243.699621,317.837753 238.865022,317.220494 C234.109768,316.553441 229.776676,314.029224 226.971629,310.233718 C226.236195,309.238603 226.326559,307.870556 227.194597,306.946075 L227.317781,306.822836 L227.426104,306.730121 L228.33259,306.00091 L229.208416,305.169794 C230.343345,304.091584 232.131398,304.295519 233.038226,305.536496 L233.131945,305.673415 L233.218499,305.818203 L233.231025,305.844931 L233.367485,306.014269 C234.75892,307.693151 236.671182,308.880286 238.799395,309.402841 L239.137179,309.479802 L239.461971,309.54269 L239.671593,309.577918 L239.891071,309.610051 C242.539872,309.970238 245.181647,309.344913 247.338909,307.848684 L247.617504,307.648594 L251.754647,304.574185 L253.361326,303.366117 C253.609969,303.178038 253.850607,302.995405 254.085586,302.816436 L255.722984,301.558075 L256.914569,300.628653 C258.963753,299.105262 260.36164,296.847539 260.841218,294.323899 L260.898542,293.993259 L260.962889,293.547342 C261.271429,291.169519 260.668296,288.619401 259.317767,286.570579 L259.119767,286.281373 L258.987857,286.099572 L258.858802,285.929496 C257.336997,283.965074 255.124627,282.628072 252.661929,282.163835 L252.339325,282.108252 L251.887077,282.043428 C249.505166,281.736989 246.949956,282.341996 244.895235,283.694235 L244.605181,283.892478 L244.420709,284.02615 L235.121694,291.047538 C234.088662,291.827548 232.64681,291.706105 231.727278,290.757763 L231.610378,290.629383 L231.527339,290.523111 L230.052265,288.516208 C229.302995,287.496792 229.419859,286.094347 230.333645,285.179345 L230.463185,285.057676 L230.571216,284.970855 L239.893121,277.932383 C243.582005,275.211307 248.065658,274.036441 252.720892,274.524605 Z" id="Shape" fill="#000000" fill-rule="nonzero"></path>
        <rect id="Rectangle" stroke="#000000" stroke-width="10" stroke-linejoin="round" x="306" y="770" width="654" height="191"></rect>
        <path d="M249.945166,770 C249.668174,769.193427 249.3934,768.386576 249.120844,767.579445 C230.86359,754.588193 217,690.770126 217,614 C217,537.169732 230.88532,473.311825 249.165717,460.38725 C249.422584,459.593551 249.682881,458.796775 249.945166,458 L960,458 L960,770 L249.945166,770 Z" id="Combined-Shape" stroke="#000000" stroke-width="10" stroke-linejoin="round"></path>
        <path d="M217,614 C217,652.523959 220.535782,687.786428 226.395618,715.001843 L172,715 C165.333333,684.166667 162,652.666667 162,620.5 C162,588.333333 165.333333,556.166667 172,524 L224.232847,523.998067 C219.677046,549.427512 217,580.47907 217,614 Z" id="Combined-Shape" stroke="#000000" stroke-width="10" stroke-linejoin="round"></path>
        <path d="M174,458 C184.797105,458 194.345265,484.068443 200.140609,523.99897 L172,524 C165.333333,556.166667 162,588.333333 162,620.5 C162,652.666667 165.333333,684.166667 172,715 L172,715 L198.388236,715.002555 C192.62478,748.043646 184.086213,769.223706 174.529179,769.9791 L174,770 L121.363636,770 L121.218113,769.588339 C101.530119,763.740427 86,696.315629 86,614 C86,531.674612 101.533802,464.243586 121.225116,458.409583 C121.271355,458.276066 121.317465,458.138033 121.363636,458 L174,458 Z" id="Combined-Shape" stroke="#000000" stroke-width="10" stroke-linejoin="round"></path>
        <path d="M174,458 C184.797105,458 194.345265,484.068443 200.140609,523.99897 L172,524 C165.333333,556.166667 162,588.333333 162,620.5 C162,652.666667 165.333333,684.166667 172,715 L172,715 L198.388236,715.002555 C192.518611,748.652299 183.770692,770 174,770 C156.326888,770 142,700.156421 142,614 C142,527.843579 156.326888,458 174,458 Z" id="Combined-Shape" stroke="#000000" stroke-width="10" stroke-linejoin="round"></path>
        <path d="M217,614 C217,652.523959 220.535782,687.786428 226.395618,715.001843 L172,715 C165.333333,684.166667 162,652.666667 162,620.5 C162,588.333333 165.333333,556.166667 172,524 L224.232847,523.998067 C219.677046,549.427512 217,580.47907 217,614 Z" id="Combined-Shape" stroke="#000000" stroke-width="10" stroke-linejoin="round"></path>
    </g>
</svg>