<?xml version="1.0" encoding="UTF-8"?>
<svg width="960px" height="960px" viewBox="0 0 960 960" version="1.1" xmlns="http://www.w3.org/2000/svg" xmlns:xlink="http://www.w3.org/1999/xlink">
    <!-- Generator: Sketch 60.1 (88133) - https://sketch.com -->
    <title>signal_repeater/icon</title>
    <desc>Created with Sketch.</desc>
    <g id="signal_repeater/icon" stroke="none" stroke-width="1" fill="none" fill-rule="evenodd">
        <path d="M310.00274,289.299299 L303.513713,286.052705 L286.209617,289.299299 L87.2125727,413.752199 C87.2125727,413.752199 75.9135353,421.865716 70.989979,426.738588 C63.7042813,433.949272 57.6167833,442.303149 51.5228805,450.546967 C45.3391361,458.912303 38.8625407,467.209824 34.218789,476.519746 C27.9050598,489.177679 23.3033877,502.768402 20.1592153,516.561108 C17.2552251,529.300205 15.690245,542.454767 15.8162461,555.520289 C15.9525994,566.437397 16.2119098,577.808024 20.1592153,587.986256 C23.8133712,597.408603 37.4633054,612.876841 37.4633054,612.876841 L50.4413711,620.452223 L636.61746,874.769043 C636.61746,874.769043 650.701059,882.774868 658.517945,884.238316 C665.52147,885.549526 672.996603,885.276274 679.877679,883.426696 C686.574636,881.626554 692.380171,877.360045 698.263288,873.686888 C756.503116,837.324478 864.815188,752.480479 864.815188,752.480479 C864.815188,752.480479 877.345819,741.244318 885.429435,731.219164 C890.074207,725.458748 893.714673,722.290445 899.423391,714.603556 C906.699424,704.806216 914.402612,695.161954 919.971949,684.301976 C928.563767,667.548306 935.177002,649.615745 939.439057,631.274225 C942.558718,617.848778 943.516981,603.932006 943.765072,590.150656 C943.953805,579.666255 943.70238,569.040208 941.602097,558.766883 C939.842597,550.160708 937.713773,541.254896 932.950069,533.876298 C927.830095,525.945945 920.714902,518.861578 912.401434,514.39672 C910.517947,513.38516 709.718382,438.352686 310.00274,289.299299 Z" id="path856" stroke="#000000" stroke-width="30"></path>
        <polyline id="path858" stroke="#000000" stroke-width="30" stroke-linejoin="round" points="724.838107 445.052705 774.426218 409.183148 779.816246 399.400548 732.384106 328.74836 722.68206 318.96576 528.641468 245.052705 520.075316 246.00476 394.816246 321.251783"></polyline>
        <path d="M634.816246,412.052705 L424.15104,552.089947 C424.15104,552.089947 404.853448,570.643371 397.003467,581.400076 C387.450973,594.489684 379.232217,608.733027 373.113601,623.736913 C366.74965,639.342363 362.942363,655.978914 360.082751,672.587103 C357.943103,685.013918 356.165833,697.71512 357.047122,710.293867 C357.963337,723.371045 360.143582,736.769369 365.638366,748.672221 C367.977131,753.738432 375.699441,762.052705 375.699441,762.052705" id="path860" stroke="#000000" stroke-width="15"></path>
        <path d="M898.816246,511.052705 L685.274173,656.117807 C685.274173,656.117807 663.478934,678.770522 654.923015,691.842814 C642.913602,710.191579 631.649094,729.746068 626.027801,750.935978 C621.16771,769.25646 621.397839,788.75249 622.403915,807.678446 C623.084159,820.474725 623.704211,832.644982 628.90774,845.568515 C633.911909,857.996903 635.731606,863.342601 641.508885,870.738386 C645.390054,875.706889 655.87149,883.052705 655.87149,883.052705" id="path862" stroke="#000000" stroke-width="15"></path>
        <polygon id="path864" stroke="#000000" stroke-width="10" stroke-linejoin="round" points="739.816246 700.222232 829.732892 634.052705 830.816246 691.544266 740.899587 762.052705"></polygon>
        <polyline id="path866" stroke="#000000" stroke-width="5" points="791.723455 663.052705 792.816246 685.961799 739.816246 726.052705"></polyline>
        <line x1="792.816246" y1="685.052705" x2="830.816246" y2="690.052705" id="path868" stroke="#000000" stroke-width="10"></line>
        <path d="M762.993586,354.052705 C762.993586,354.052705 764.634528,352.740043 796.535587,330.600063 C807.118985,319.797211 789.446782,297.860673 780.922546,302.754071 C747.564322,325.771383 764.39672,313.486902 744.816246,327.908548" id="path874" stroke="#000000" stroke-width="15"></path>
        <path d="M673.328987,204.829691 C678.031704,201.703893 683.894951,201.194677 690.120089,203.168605 C696.832376,205.297004 701.920195,212.53273 703.995246,219.56627 C706.451639,227.892406 704.464971,237.77018 697.362706,242.881374 L697.362706,242.881374 L654.622106,273.66924 C649.027793,277.505314 641.546695,272.484888 643.056088,265.783147 L643.056088,265.783147 L643.165372,265.288047 C643.623697,263.167611 643.884199,261.372775 643.95738,259.928569 C644.018389,258.724584 643.94363,257.910755 643.826706,257.534367 C643.66804,257.023609 643.118229,255.99 642.163345,254.591767 C641.37023,253.430412 640.355138,252.099383 639.121495,250.608187 L639.121495,250.608187 L638.791356,250.211603 L632.643467,248.621032 C626.565141,247.048763 625.000709,239.18259 629.907382,235.380913 L629.907382,235.380913 L630.112675,235.226994 C633.323595,232.897664 640.768075,227.447531 642.67454,226.111982 L642.67454,226.111982 L672.606166,205.327905 Z" id="Combined-Shape" fill="#000000" fill-rule="nonzero"></path>
        <path d="M822.019258,265.093524 C826.773108,261.725164 832.763686,261.136836 839.133494,263.185252 C845.840235,265.342018 850.923851,272.674186 852.996831,279.800248 C855.449242,288.230646 853.466082,298.230664 846.374913,303.406166 L846.374913,303.406166 L803.602656,334.653323 C798.028128,338.530089 790.564603,333.467995 792.066803,326.703703 C792.594302,324.328416 792.891068,322.333921 792.970123,320.751688 C793.031501,319.523257 792.95607,318.690481 792.836847,318.301255 C792.696318,317.842472 792.255834,316.978804 791.506057,315.816879 L791.506057,315.816879 L791.16576,315.300962 C790.371293,314.121147 789.35472,312.76928 788.119442,311.254943 L788.119442,311.254943 L787.781518,310.843741 L781.622117,309.227758 C775.568536,307.639708 774.008864,299.711551 778.892775,295.874191 L778.892775,295.874191 L779.097117,295.718821 C782.310729,293.354513 789.76048,287.823257 791.668091,286.467975 L791.668091,286.467975 Z" id="Combined-Shape" fill="#000000" fill-rule="nonzero"></path>
        <path d="M639.339875,276.052705 C639.339875,276.052705 641.824942,273.982947 646.679348,270.865833 C656.798978,260.340815 639.901167,238.968491 631.750456,243.736032 C599.853946,266.161358 623.538722,248.920396 604.816246,262.971133" id="path880" stroke="#000000" stroke-width="15"></path>
        <polygon id="Path-7" fill="#000000" points="739.816246 733.052705 801.816246 685.421337 801.816246 655.052705 739.816246 700.254346"></polygon>
    </g>
</svg>