<?xml version="1.0" encoding="UTF-8"?>
<svg width="960px" height="960px" viewBox="0 0 960 960" version="1.1" xmlns="http://www.w3.org/2000/svg" xmlns:xlink="http://www.w3.org/1999/xlink">
    <!-- Generator: Sketch 60.1 (88133) - https://sketch.com -->
    <title>signal_repeater/learnmode</title>
        	<style type="text/css">
	    	#pair {
	    		animation: pair 5s infinite;
	    	}
	    	
	    	@keyframes pair {
	    		0%, 55%, 70%, 80%, 90%, 100% {
	    			fill: rgba(255,255,255,0);
	    		}
	    		 60%, 75%, 85% {
	    			fill: #0074CC;
	    		}
	    	}
	    	
	    	#move {
	    		animation: move 5s infinite;
	    	}
	    	
	    	@keyframes move {
	    		0%, 100% {
	    			transform: translate3d(0px, 0px, 0px);
	    	        animation-timing-function: ease-in;
	    		}
	    	    20%, 68% {
	    	        transform: translate3d(-60px, -20px, 0px);
	    	        animation-timing-function: ease-out;
	    	    }
	
	    	}
    	</style>
    <g id="signal_repeater/learnmode" stroke="none" stroke-width="1" fill="none" fill-rule="evenodd">
        <path d="M274.497474,278.856352 L268.791605,276 L253.575935,278.856352 L78.5957747,388.349972 C78.5957747,388.349972 68.6604142,395.488242 64.3310802,399.775393 C57.9246909,406.119351 52.5718909,413.469088 47.2134591,420.721997 C41.7760287,428.081817 36.0810914,435.381973 31.9977924,443.572839 C26.4460651,454.709285 22.3997672,466.666398 19.6350638,478.801216 C17.0815552,490.009069 15.705452,501.582449 15.8162461,513.07749 C15.936143,522.682359 16.1641573,532.686232 19.6350638,541.641037 C22.8482009,549.930815 34.8507293,563.539766 34.8507293,563.539766 L46.2624767,570.204584 L561.693176,793.952438 C561.693176,793.952438 574.077029,800.99596 580.950498,802.283501 C587.10877,803.437103 593.681733,803.196696 599.732334,801.569438 C605.621037,799.985674 610.725904,796.232001 615.89899,793.000358 C667.109873,761.008722 762.349798,686.363 762.349798,686.363 C762.349798,686.363 773.368112,676.477429 780.476119,667.657303 C784.560315,662.58929 787.761415,659.801819 792.78115,653.038896 C799.17904,644.419199 805.952534,635.934181 810.849709,626.379576 C818.404584,611.639703 824.219669,595.862642 827.967339,579.725778 C830.710489,567.914074 831.553099,555.670103 831.771248,543.545276 C831.937203,534.321103 831.716123,524.972311 829.869322,515.933843 C828.322175,508.362133 826.450278,500.526803 822.261504,494.035114 C817.759458,487.057992 811.502995,480.825169 804.192876,476.896988 C802.536707,476.007018 625.971573,409.993472 274.497474,278.856352 Z" id="path856" stroke="#000000" stroke-width="20" stroke-linejoin="round"></path>
        <polyline id="path858" stroke="#000000" stroke-width="20" stroke-linejoin="round" points="639.549724 417 683.084221 385.076094 687.816246 376.369581 646.174523 313.489133 637.656883 304.782619 467.304363 239 459.783949 239.847329 349.816246 306.817179"></polyline>
        <path d="M559.816246,387 L374.915849,510.232773 C374.915849,510.232773 357.978395,526.559786 351.088483,536.025687 C342.70428,547.544542 335.490695,560.078684 330.120399,573.282103 C324.534773,587.0149 321.193125,601.655064 318.68325,616.27027 C316.805286,627.205868 315.24538,638.382925 316.018886,649.452223 C316.823045,660.96014 318.736641,672.750665 323.559401,683.225174 C325.612131,687.68344 332.389986,695 332.389986,695" id="path860" stroke="#000000" stroke-width="10" stroke-linejoin="round"></path>
        <path d="M792.816246,474 L604.714204,601.516904 C604.714204,601.516904 585.515509,621.429372 577.978887,632.920338 C567.400199,649.049495 557.477672,666.238521 552.526063,684.865135 C548.244972,700.96943 548.447686,718.107069 549.333904,734.743595 C549.933108,745.991937 550.479291,756.689986 555.062905,768.050188 C559.47091,778.975142 561.07382,783.674183 566.16283,790.175317 C569.581622,794.542791 578.814367,801 578.814367,801" id="path862" stroke="#000000" stroke-width="10" stroke-linejoin="round"></path>
        <polygon id="path864" stroke="#000000" stroke-width="10" stroke-linejoin="round" points="652.816246 640.415286 731.863847 582 732.816246 632.754269 653.768634 695"></polygon>
        <polyline id="path866" stroke="#000000" stroke-width="5" points="697.867786 607 698.816246 627.36364 652.816246 663"></polyline>
        <line x1="698.816246" y1="626" x2="732.816246" y2="630" id="path868" stroke="#000000" stroke-width="10"></line>
        <path d="M673.010604,335 C673.010604,335 674.472534,333.864043 702.893477,314.704445 C712.322323,305.355823 696.577996,286.37228 688.983677,290.606951 C659.264531,310.525779 674.260669,299.894978 656.816246,312.375249" id="path874" stroke="#000000" stroke-width="10" stroke-linejoin="round"></path>
        <path d="M592.795412,206.403299 C596.834925,203.748512 601.871304,203.316027 607.218538,204.992514 C612.984221,206.800195 617.354527,212.945606 619.136942,218.919298 C621.246921,225.990811 619.540424,234.380153 613.43976,238.721167 L613.43976,238.721167 L576.726681,264.869765 C571.92131,268.127801 565.495238,263.863878 566.791768,258.171988 L566.791768,258.171988 L566.88564,257.751492 C567.27933,255.950574 567.503094,254.426193 567.565955,253.199607 C567.61836,252.177044 567.554144,251.485847 567.453709,251.166175 C567.317419,250.73238 566.845145,249.85452 566.024924,248.66698 C565.343659,247.680624 564.471721,246.550161 563.412053,245.283666 L563.412053,245.283666 L563.128473,244.946841 L557.847594,243.595945 C552.626467,242.260593 551.28266,235.579734 555.497367,232.350912 L555.497367,232.350912 L555.673708,232.220187 C558.431806,230.241852 564.826423,225.612971 566.464028,224.47867 L566.464028,224.47867 L592.174527,206.82644 Z" id="Combined-Shape" fill="#000000" fill-rule="nonzero"></path>
        <path d="M724.529363,257.717285 C728.612798,254.75859 733.758551,254.241816 739.230053,256.0411 C744.990971,257.935557 749.357667,264.375974 751.138304,270.635353 C753.244862,278.040433 751.541378,286.824232 745.450246,291.370281 L745.450246,291.370281 L708.709973,318.817108 C703.921597,322.222375 697.51062,317.775941 698.800972,311.834334 C699.25408,309.747933 699.508994,307.996011 699.576901,306.606212 C699.629623,305.527185 699.56483,304.795693 699.46242,304.453805 C699.341709,304.05082 698.963345,303.292192 698.319305,302.271583 L698.319305,302.271583 L698.026999,301.818413 C697.344572,300.782089 696.471362,299.594638 695.41029,298.264477 L695.41029,298.264477 L695.120022,297.903286 L689.829254,296.483841 C684.629384,295.088932 683.289665,288.125011 687.48482,284.754357 L687.48482,284.754357 L687.660344,284.617883 C690.420754,282.541126 696.819899,277.682591 698.458489,276.49214 L698.458489,276.49214 Z" id="Combined-Shape" fill="#000000" fill-rule="nonzero"></path>
        <path d="M561.969533,267 C561.969533,267 564.068034,265.181122 568.16731,262.44184 C576.712776,253.192581 562.443513,234.410842 555.56069,238.6005 C528.625859,258.307604 548.626337,243.156456 532.816246,255.504074" id="path880" stroke="#000000" stroke-width="10" stroke-linejoin="round"></path>
        <polygon id="Path-7" fill="#000000" points="652.816246 669 706.816246 626.864559 706.816246 600 652.816246 639.986067"></polygon>
        <path d="M616.862588,695.91221 C621.14601,696.690156 625.493093,692.211386 626.572068,685.908596 C627.651044,679.605807 625.053327,673.865737 620.769904,673.08779 C616.486482,672.309844 612.139399,676.788614 611.060424,683.091404 C609.981448,689.394193 612.579165,695.134263 616.862588,695.91221 Z" id="Oval" fill="#000000"></path>
        <path d="M759.691616,598.87404 C765.849036,599.990224 772.097967,593.564162 773.648995,584.521029 C775.200022,575.477897 771.465803,567.242144 765.308384,566.12596 C759.150964,565.009776 752.902033,571.435838 751.351005,580.478971 C749.799978,589.522103 753.534197,597.757856 759.691616,598.87404 Z" id="pair" fill="#0074CC"></path>
        <path d="M953.476454,815.673286 L953.187676,816.365202 C943.586239,838.852083 917.677432,849.745644 894.680881,840.963446 L893.984927,840.691287 L768.935565,790.63795 C748.000752,782.258092 736.745935,760.256602 741.375177,739.113076 L676.047144,712.963401 C671.766392,711.249941 669.698225,706.422921 671.425303,702.180955 C673.123392,698.024135 677.839747,695.97322 682.057899,697.509022 L682.310362,697.605486 L747.829233,723.831495 C759.413502,706.284801 782.141853,698.600807 802.55667,706.43885 L803.174579,706.681123 L928.223941,756.73446 C951.391281,766.007933 962.703943,791.96326 953.753879,814.976826 L953.476454,815.673286 Z M932.807111,807.399953 L932.95061,807.039621 C937.485452,795.373351 931.855036,782.232216 920.23412,777.359915 L919.872805,777.211872 L794.823278,727.158204 C782.837146,722.360506 769.194674,728.097565 764.351847,739.972237 C759.558167,751.727056 765.184234,765.08979 776.924953,770.012322 L777.286268,770.160364 L902.335796,820.214033 C914.200855,824.963269 927.688963,819.389497 932.65768,807.75791 L932.807111,807.399953 Z" id="move" fill="#000000" fill-rule="nonzero"></path>
    </g>
</svg>