<?xml version="1.0" encoding="UTF-8"?>
<svg width="960px" height="960px" viewBox="0 0 960 960" version="1.1" xmlns="http://www.w3.org/2000/svg" xmlns:xlink="http://www.w3.org/1999/xlink">
    <!-- Generator: Sketch 60.1 (88133) - https://sketch.com -->
    <title>remote_rotating_dimmer/learnmode</title>
    <style type="text/css">
    	#pair {
    		animation: pair 4s infinite;
    	}
    	
    	@keyframes pair {
    		0%, 20%, 80%, 100% {
    			fill: rgba(255,255,255,0);
    		}
    		40%, 60% {
    			fill: #0074CC;
    		}
    	}
    </style>
    <g id="remote_rotating_dimmer/learnmode" stroke="none" stroke-width="1" fill="none" fill-rule="evenodd">
        <circle id="Oval" stroke="#000000" stroke-width="20" stroke-linejoin="round" cx="480" cy="480" r="465"></circle>
        <path d="M480,878 C488.300355,878 496.541365,877.745911 504.715675,877.245086 C713.012776,864.483119 878,691.508975 878,480 C878,468.287164 877.494039,456.692502 876.502781,445.236676 M803.403439,247.969505 C731.163245,147.459233 613.226034,82 480,82 C394.421294,82 315.151104,109.009973 250.249162,154.970189 M117.318659,315.853616 C94.6321556,365.900141 82,421.474871 82,480 C82,634.330986 169.841345,768.145527 298.254348,834.173936" id="Shape" stroke="#000000" stroke-width="10"></path>
        <circle id="Oval" stroke="#000000" stroke-width="10" stroke-linejoin="round" cx="480" cy="480" r="299"></circle>
        <path d="M872.727273,443.524476 C864.447552,443.524476 856.615385,439.048951 852.363636,431.664336 C851.244755,429.874126 850.573427,427.86014 849.902098,425.846154 C849.678322,424.055944 849.454545,422.713287 849.230769,421.146853 C842.293706,377.062937 827.524476,334.545455 805.370629,295.384615 L805.370629,295.384615 C804.699301,294.265734 804.251748,293.370629 803.58042,292.251748 C799.104895,284.41958 794.181818,276.587413 789.034965,268.979021 C788.363636,267.86014 787.468532,266.741259 786.797203,265.846154 L786.573427,265.622378 C783.888112,259.58042 786.125874,252.41958 791.944056,249.062937 C797.314685,245.93007 804.251748,247.048951 808.27972,251.972028 L809.398601,253.762238 C810.741259,255.776224 812.083916,257.79021 813.426573,259.804196 C823.72028,254.657343 836.699301,258.013986 843.188811,267.636364 L844.979021,270.993007 C870.489511,315.748252 887.496504,364.307692 895.328671,414.881119 C895.552448,416 895.776224,417.342657 895.776224,418.461538 C896.447552,427.636364 891.972028,435.916084 884.13986,440.391608 C881.678322,441.958042 878.769231,442.853147 875.86014,443.300699 C874.965035,443.300699 873.846154,443.524476 872.727273,443.524476 Z" id="Path" stroke="#000000" stroke-width="10" fill-rule="nonzero"></path>
        <path d="M433.281264,953.215918 C425.001543,953.215918 417.169376,948.740394 412.917627,941.355778 C411.798746,939.565568 411.127418,937.551582 410.456089,935.537596 C410.232313,933.747387 410.008536,932.404729 409.78476,930.838296 C402.847697,886.75438 388.078467,844.236897 365.92462,805.076058 L365.92462,805.076058 C365.253292,803.957177 364.805739,803.062072 364.134411,801.943191 C359.658886,794.111023 354.735809,786.278855 349.588956,778.670464 C348.917627,777.551582 348.022522,776.432701 347.351194,775.537596 L347.127418,775.31382 C344.442103,769.271862 346.679865,762.111023 352.498047,758.75438 C357.868676,755.621512 364.805739,756.740394 368.833711,761.663471 L369.952592,763.45368 C371.29525,765.467666 372.637907,767.481652 373.980564,769.495638 C384.274271,764.348785 397.253292,767.705429 403.742802,777.327806 L405.533012,780.68445 C431.043501,825.439694 448.050494,873.999135 455.882662,924.572561 C456.106439,925.691443 456.330215,927.0341 456.330215,928.152981 C457.001543,937.327806 452.526019,945.607526 444.693851,950.083051 C442.232313,951.649485 439.323222,952.544589 436.414131,952.992142 C435.519026,952.992142 434.400145,953.215918 433.281264,953.215918 Z" id="Path" stroke="#000000" stroke-width="10" fill-rule="nonzero" transform="translate(401.198197, 855.107959) rotate(123.000000) translate(-401.198197, -855.107959) "></path>
        <path d="M130.013986,325.146853 C127.776224,325.146853 125.538462,324.475524 123.524475,323.356643 C118.153846,320.223776 115.692308,313.510489 117.93007,307.692308 L118.825175,305.678322 C119.944056,303.440559 120.839161,301.426573 121.958042,299.188811 C112.335664,292.699301 108.755245,279.944056 113.678322,269.426573 L115.468531,266.06993 C141.426573,221.538462 174.993007,182.601399 214.825175,150.601399 C215.72028,149.93007 216.839161,149.034965 217.734266,148.363636 C225.342657,143.216783 234.741259,142.993007 242.573427,147.468531 C245.034965,149.034965 247.272727,150.825175 249.286713,153.286713 C255.328671,160.895105 256.223776,171.188811 251.300699,179.692308 C250.181818,181.482517 249.062937,183.272727 247.496503,184.615385 C246.153846,185.734266 245.034965,186.629371 243.692308,187.524475 C209.006993,215.72028 179.692308,249.510489 156.643357,288.447552 L156.643357,288.447552 C155.972028,289.566434 155.524475,290.461538 154.853147,291.58042 C150.377622,299.412587 145.902098,307.468531 142.097902,315.748252 C141.426573,316.867133 140.979021,317.986014 140.307692,319.328671 L140.083916,319.552448 C138.06993,323.356643 134.041958,325.146853 130.013986,325.146853 Z" id="Path" stroke="#000000" stroke-width="10" fill-rule="nonzero"></path>
        <circle id="pair" fill="#0074CC" cx="480" cy="480" r="111"></circle>
        <circle id="Oval" stroke="#000000" stroke-width="10" stroke-linejoin="round" cx="480" cy="480" r="111"></circle>
        <path d="M453.497488,455.81332 C461.3522,453.041069 469.70367,453.535971 477.386522,457.005816 C484.886303,460.505713 490.879979,466.881965 493.643515,474.711982 C493.982622,475.672785 493.544402,476.725217 492.645954,477.16957 L492.500315,477.234576 L490.342,478.097 L488.176437,479.180463 C486.935288,479.801037 485.489583,479.000052 485.302338,477.681701 L485.287158,477.538511 L485.255204,477.450869 C483.1858,471.985004 479.00596,467.563769 473.661303,465.096752 C468.448327,462.594524 462.060574,462.26125 456.45155,464.263738 L453.740957,465.304025 C450.616738,466.491934 447.511595,467.632132 443.22424,469.17032 L441.966074,469.621017 L435.591046,471.890477 C430.086163,473.856507 425.59799,477.947372 423.03583,483.229334 L422.654258,484.041656 C420.393736,489.033725 420.081077,495.033215 421.867885,500.409719 L422.026185,500.868999 L422.175948,501.276404 C424.245352,506.742269 428.425192,511.163504 433.769849,513.63052 C438.845642,516.066901 445.035194,516.44698 450.57371,514.602361 L451.021318,514.447919 L472.056283,506.839527 C473.05507,506.478264 474.152002,506.961426 474.569357,507.919518 L474.624272,508.059579 L476.190705,512.535103 C476.534833,513.518325 476.06593,514.591136 475.13308,515.015508 L474.989717,515.074209 L454.15744,522.690176 C446.302729,525.462428 437.951258,524.967526 430.268406,521.497681 C422.91568,518.066409 417.010574,511.870475 414.177687,504.250416 L414.054776,503.911425 L413.884764,503.572749 L413.832643,503.459866 L413.787637,503.343962 C411.01241,495.480817 411.512155,487.110086 414.980133,479.678705 C418.480031,472.178924 424.856282,466.185247 432.629951,463.442556 L434.65729,462.662699 C437.325652,461.643152 439.916845,460.681704 443.173164,459.502958 L445.751712,458.573852 L453.497488,455.81332 Z M504.721264,437.787637 C512.575976,435.015386 520.927446,435.510288 528.610298,438.980133 C536.110079,442.480031 542.103755,448.856282 544.867291,456.686299 C544.923888,456.846659 544.959726,457.013361 544.974107,457.182345 L544.98131,457.35194 L544.981,457.456 L545.034006,457.605239 C547.50769,464.794249 547.112164,472.572569 544.101523,479.814941 L543.892203,480.307895 L543.674795,480.799109 C540.243523,488.151836 534.047589,494.056941 526.447403,496.882689 L505.15744,504.664494 C497.302729,507.436745 488.951258,506.941843 481.268406,503.471998 C473.768625,499.9721 467.774949,493.595849 465.011413,485.765832 C464.672307,484.805029 465.110526,483.752596 466.008974,483.308244 L466.154613,483.243238 L468.312,482.38 L470.478491,481.297351 C471.675313,480.69894 473.062342,481.422362 473.327779,482.656881 L473.35259,482.796112 L473.367,482.939 L473.399724,483.026945 C475.36157,488.208721 479.220174,492.451635 484.146532,494.969714 L484.559516,495.175544 L484.96628,495.368189 C490.429373,497.889616 496.600394,498.214407 502.256547,496.194357 L511.496611,492.896265 C514.723677,491.73272 517.281677,490.790849 519.811114,489.833066 L520.443249,489.593151 L523.063882,488.587337 C528.568765,486.621307 533.056938,482.530442 535.619098,477.24848 L536.00067,476.436157 C538.261192,471.444088 538.573851,465.444599 536.787043,460.068095 L536.628743,459.608815 L536.47898,459.20141 C534.462638,453.875695 530.4427,449.541727 525.293893,447.040903 L524.471122,446.654258 C519.479051,444.393737 513.479472,444.081111 508.09964,445.869139 L507.640067,446.027547 L486.828878,453.635939 C485.828927,454.001512 484.72798,453.518884 484.30949,452.558624 L484.254433,452.418235 L482.687999,447.94271 C482.343872,446.959489 482.812775,445.886678 483.745624,445.462305 L483.888987,445.403605 L504.721264,437.787637 Z" id="Shape" fill="#000000" fill-rule="nonzero"></path>
    </g>
</svg>