<?xml version="1.0" encoding="UTF-8"?>
<svg width="960px" height="960px" viewBox="0 0 960 960" version="1.1" xmlns="http://www.w3.org/2000/svg" xmlns:xlink="http://www.w3.org/1999/xlink">
    <!-- Generator: Sketch 60.1 (88133) - https://sketch.com -->
    <title>drivers/dimmable_spot_leptiter/assets/icon</title>
    <desc>Created with Sketch.</desc>
    <g id="drivers/dimmable_spot_leptiter/assets/icon" stroke="none" stroke-width="1" fill="none" fill-rule="evenodd">
        <path d="M477.365473,776.336517 C565.102695,777.863966 647.448304,768.590783 708.307064,750.999898 C767.014809,734.030751 800.110165,710.802915 800.509519,688.097011 C800.904923,665.39049 768.643176,641.025377 710.565471,622.023249 C650.359381,602.324747 568.38846,590.19093 480.651292,588.663483 C392.91407,587.136034 310.568461,596.409217 249.709701,614.000102 C191.001956,630.969249 157.9066,654.197085 157.507246,676.902989 C157.111842,699.60951 189.373589,723.974623 247.451294,742.976751 C307.657384,762.675253 389.628305,774.80907 477.365473,776.336517 Z" id="Oval" stroke="#000000" stroke-width="15"></path>
        <path d="M482.266028,844.832091 C687.988289,848.433263 855.76307,793.672499 857.008383,722.520499 C858.239907,651.3685 692.472999,590.769081 486.750738,587.167909 C281.028476,583.566737 113.253695,638.327501 112.008383,709.479501 C110.776858,780.6315 276.543766,841.230919 482.266028,844.832091 Z" id="Oval" stroke="#000000" stroke-width="15" stroke-linejoin="round"></path>
        <path d="M15,705.912292 C16.5707044,616.555772 225.57281,547.738989 481.828072,552.205707 C557.506548,553.524838 628.842902,561.087985 691.761381,573.393648 L695.070674,580.013074 L797.649932,601.234181 C887.83897,632.346302 943.811439,675.402063 943,722.087708 C941.429296,811.444228 732.42719,880.261011 476.171928,875.794293 C219.916666,871.327576 13.4469025,795.268813 15,705.912292 Z" id="Combined-Shape" stroke="#000000" stroke-width="15" stroke-linejoin="round"></path>
        <path d="M942.991214,698 C943.755302,653.579127 894.636791,612.406045 814.279625,581.475694 C811.231039,580.30226 808.137491,579.143568 805,578 M675,545.312192 L668.388041,544.262279 C611.355169,534.402488 548.199276,528.37501 481.688624,527.207161 C225.505078,522.708877 16.5614638,592.011991 15,682" id="Shape" stroke="#000000" stroke-width="15" stroke-linejoin="round"></path>
        <path d="M807.091122,595.069355 L789,540 C822.388834,559.899542 842.722167,578.566208 850,596 M122,579.819844 C139.273843,538.588432 189.48625,511.309092 272.637219,497.981823 C355.788189,484.654555 441.707349,478.345161 530.3947,479.053643 C575.325058,480.764609 615.147931,484.442966 649.863319,490.088712 L694.766578,580.21224 L761,594" id="Shape" stroke="#000000" stroke-width="15" stroke-linejoin="round"></path>
        <path d="M171.008383,539.310155 C197.988794,481.626468 216.467002,434.248485 226.443006,397.176207 C236.41901,360.10393 245.55338,288.016019 253.846114,180.912476 C256.14746,167.448166 263.03177,155.545432 274.499047,145.204273 C291.699961,129.692535 377.814998,66.5356253 535.850371,85.5273334 C693.885745,104.519042 727.293392,175.615496 727.293392,187.493214 C727.293392,199.370931 735.862038,324.886846 745.934291,372.172565 C756.006544,419.458284 774.284239,478.623257 781.937857,503.526613 C789.591474,528.429968 797.008383,540.589674 797.008383,554" id="Path-8" stroke="#004DFF" stroke-width="2"></path>
        <path d="M536.139117,85.5289854 C694.424582,104.529588 727.885097,175.659339 727.885097,187.54262 C727.885097,199.4259 736.467303,325.000598 746.555495,372.308462 L747.170498,375.160826 C756.226664,416.716196 771.217864,466.568376 779.725183,494.319234 L782.616036,503.724027 C790.193835,528.353254 790.193835,517.905886 797.70749,532.865098 C825.935975,551.12604 843.353122,571.478135 849.959632,587.652632 L847.804285,587.602741 C907.460403,615.940418 942.897644,668.500765 942.971832,705.62689 L942.963245,706.752632 C943.023428,713.55626 943.023428,718.688787 942.963245,722.150213 C941.392632,811.470445 732.402652,880.25928 476.162258,875.794377 C219.921864,871.329473 13.4640794,795.301599 15.0083825,705.981366 C15.0755501,702.491579 15.0755501,697.317265 15.0083825,690.458423 C15.6952366,651.374577 55.4807274,596.649548 121.261045,569.716793 L120.560512,569.704655 C129.248571,548.992887 146.256626,530.448168 171.584677,516.775909 L173.95204,511.684645 C199.224391,457.105743 216.653994,432.915017 226.242113,397.323814 C236.233904,360.234175 245.382729,288.112503 253.688587,180.9588 C255.993574,167.488184 262.88878,155.579876 274.374203,145.233874 C291.602338,129.714871 377.853652,66.5283829 536.139117,85.5289854 Z" id="Path" stroke="#000000" stroke-width="30" stroke-linejoin="round"></path>
        <polygon id="Path-9" stroke="#000000" stroke-width="15" stroke-linejoin="round" points="643.008383 478.206562 694.079056 580.835393 810.008383 605 768.453871 488.358787 726.508383 488.358787 650.453405 469"></polygon>
        <polyline id="Path-10" stroke="#000000" stroke-width="15" stroke-linejoin="round" points="170.008383 845 170.008383 862.655573 272.680158 886 283.008383 870.119893"></polyline>
        <path d="M732.633762,276.686343 C734.326496,277.038008 736.012893,277.528245 737.678723,278.162621 L738.186355,278.360664 L959.999762,366.973343 L959.999762,437.921343 L741.026817,350.446341 C737.884926,329.308324 735.004361,302.477773 732.633762,276.686343 Z" id="Combined-Shape" fill="#000000" fill-rule="nonzero"></path>
    </g>
</svg>