<?xml version="1.0" encoding="UTF-8"?>
<svg width="960px" height="960px" viewBox="0 0 960 960" version="1.1" xmlns="http://www.w3.org/2000/svg" xmlns:xlink="http://www.w3.org/1999/xlink">
    <!-- Generator: Sketch 60.1 (88133) - https://sketch.com -->
    <title>remote_control/icon</title>
    <desc>Created with Sketch.</desc>
    <g id="remote_control/icon" stroke="none" stroke-width="1" fill="none" fill-rule="evenodd">
        <circle id="Oval" stroke="#000000" stroke-width="40" stroke-linejoin="round" cx="480" cy="480" r="459"></circle>
        <circle id="Oval" stroke="#000000" stroke-width="20" stroke-linejoin="round" cx="480" cy="480" r="287"></circle>
        <circle id="Oval" stroke="#000000" stroke-width="20" stroke-linejoin="round" cx="480" cy="480" r="416"></circle>
        <line x1="136" y1="722" x2="247.394897" y2="643.634985" id="Path" stroke="#000000" stroke-width="10" stroke-linecap="round" stroke-linejoin="round"></line>
        <line x1="714.444342" y1="722" x2="824" y2="644.928868" id="Path" stroke="#000000" stroke-width="10" stroke-linecap="round" stroke-linejoin="round" transform="translate(769.222171, 683.464434) scale(-1, 1) translate(-769.222171, -683.464434) "></line>
        <line x1="136" y1="315.736247" x2="245.079623" y2="239" id="Path" stroke="#000000" stroke-width="10" stroke-linecap="round" stroke-linejoin="round" transform="translate(190.539812, 277.368123) scale(1, -1) translate(-190.539812, -277.368123) "></line>
        <line x1="714.978102" y1="315.695638" x2="824" y2="239" id="Path" stroke="#000000" stroke-width="10" stroke-linecap="round" stroke-linejoin="round" transform="translate(769.489051, 277.347819) scale(-1, -1) translate(-769.489051, -277.347819) "></line>
        <g id="Group" transform="translate(122.000000, 104.000000)" fill="#000000" fill-rule="nonzero" stroke="#000000">
            <path d="M359.5,46 C365.839744,46 371,40.8397436 371,34.5 C371,28.1602564 365.839744,23 359.5,23 C353.160256,23 348,28.1602564 348,34.5 C348,40.8397436 353.160256,46 359.5,46 Z M359.5,26.0961538 C364.070513,26.0961538 367.903846,29.9294872 367.903846,34.5 C367.903846,39.0705128 364.217949,42.9038462 359.5,42.9038462 C354.929487,42.9038462 351.096154,39.0705128 351.096154,34.5 C351.096154,29.9294872 354.782051,26.0961538 359.5,26.0961538 Z" id="Shape" stroke-width="4"></path>
            <path d="M358.5,16 C359.318182,16 360,15.2523364 360,14.3551402 L360,1.64485981 C360,0.747663551 359.318182,0 358.5,0 C357.681818,0 357,0.747663551 357,1.64485981 L357,14.3551402 C357,15.2523364 357.681818,16 358.5,16 Z" id="Path" stroke-width="4"></path>
            <path d="M347.077922,19.2447741 C347.374768,19.6979096 347.820037,20 348.413729,20 C348.710575,20 349.007421,19.8489548 349.304267,19.6979096 C350.046382,19.2447741 350.194805,18.1874579 349.749536,17.432232 L342.922078,6.70802428 C342.476809,5.95279838 341.437848,5.8017532 340.695733,6.25488874 C339.953618,6.70802428 339.805195,7.76534053 340.250464,8.52056642 L347.077922,19.2447741 Z" id="Path" stroke-width="4"></path>
            <path d="M327.886841,22.1900506 L339.729009,27.8386125 C339.882804,28 340.190393,28 340.344187,28 C340.959365,28 341.574542,27.677225 341.882131,27.0316751 C342.18972,26.2247377 341.882131,25.0950253 341.113159,24.7722504 L329.270991,19.1236885 C328.502019,18.8009135 327.425458,19.1236885 327.117869,19.9306259 C326.81028,20.7375633 327.117869,21.8672757 327.886841,22.1900506 Z" id="Path" stroke-width="4"></path>
            <path d="M326.44623,41 C326.588672,41 326.588672,41 326.731114,41 L338.696211,39.1902169 C339.550861,39.0394016 340.120628,38.2853253 339.978186,37.3804338 C339.835744,36.4755422 339.123536,35.8722811 338.268886,36.0230964 L326.303789,37.8328795 C325.449139,37.9836948 324.879372,38.7377711 325.021814,39.6426627 C325.021814,40.396739 325.734022,41 326.44623,41 Z" id="Path" stroke-width="4"></path>
            <path d="M342.31936,46.4503487 L332.541799,55.034549 C331.930701,55.6588545 331.777927,56.7513891 332.389024,57.3756945 C332.694573,57.6878473 333.152896,58 333.611219,58 C333.916768,58 334.375091,57.8439236 334.68064,57.5317709 L344.458201,48.9475706 C345.069299,48.3232651 345.222073,47.2307306 344.610976,46.6064251 C344.152652,45.8260432 343.083232,45.8260432 342.31936,46.4503487 Z" id="Path" stroke-width="4"></path>
            <path d="M352.874241,52.0828888 C351.935012,51.7676985 350.995784,52.3980792 350.839246,53.186055 L347.082333,65.9512629 C346.769257,66.8968339 347.395409,67.8424048 348.178099,68 C348.334637,68 348.491175,68 348.647713,68 C349.430404,68 350.056556,67.5272145 350.213094,66.7392387 L353.970007,53.9740308 C354.126545,53.186055 353.656931,52.240484 352.874241,52.0828888 Z" id="Path" stroke-width="4"></path>
            <path d="M366.190499,53.1876459 C365.880998,52.2521288 364.952495,51.7843703 364.178742,52.0962093 C363.250239,52.4080484 362.785987,53.3435655 363.095488,54.123163 L366.809501,66.7526439 C366.964252,67.5322415 367.738004,68 368.357007,68 C368.511757,68 368.666508,68 368.821258,68 C369.749761,67.688161 370.214013,66.7526439 369.904512,65.9730463 L366.190499,53.1876459 Z" id="Path" stroke-width="4"></path>
            <path d="M374.68064,46.3991928 C374.069543,45.7721222 373.000122,45.9288898 372.389024,46.5559605 C371.777927,47.1830312 371.930701,48.2804048 372.541799,48.9074755 L382.31936,57.529697 C382.624909,57.8432323 382.930457,58 383.388781,58 C383.847104,58 384.305427,57.8432323 384.610976,57.3729293 C385.222073,56.7458587 385.069299,55.648485 384.458201,55.0214144 L374.68064,46.3991928 Z" id="Path" stroke-width="4"></path>
            <path d="M378.021609,37.3804338 C377.880507,38.2853253 378.444914,39.0394016 379.291524,39.1902169 L391.144069,41 C391.285171,41 391.285171,41 391.426272,41 C392.131781,41 392.837289,40.396739 392.978391,39.6426627 C393.119493,38.7377711 392.555086,37.9836948 391.708476,37.8328795 L379.855931,36.0230964 C378.868219,35.8722811 378.162711,36.4755422 378.021609,37.3804338 Z" id="Path" stroke-width="4"></path>
            <path d="M375.117351,27.0390936 C375.423588,27.6796979 376.036062,28 376.648536,28 C376.801655,28 377.107891,28 377.26101,27.8398489 L389.051134,22.2345614 C389.816727,21.9142592 390.276082,20.7932017 389.816727,19.9924463 C389.51049,19.191691 388.43866,18.7112378 387.673068,19.191691 L375.882944,24.7969785 C375.117351,25.1172807 374.811114,26.2383382 375.117351,27.0390936 Z" id="Path" stroke-width="4"></path>
            <path d="M368.695733,19.6979096 C368.992579,19.8489548 369.289425,20 369.586271,20 C370.03154,20 370.625232,19.6979096 370.922078,19.2447741 L377.749536,8.52056642 C378.194805,7.76534053 378.046382,6.70802428 377.304267,6.25488874 C376.562152,5.8017532 375.523191,5.95279838 375.077922,6.70802428 L368.250464,17.432232 C367.805195,18.1874579 367.953618,19.2447741 368.695733,19.6979096 Z" id="Path" stroke-width="4"></path>
            <path d="M359.5,708 C353.160256,708 348,713.160256 348,719.5 C348,725.839744 353.160256,731 359.5,731 C365.839744,731 371,725.839744 371,719.5 C371,713.160256 365.839744,708 359.5,708 Z M359.5,727.903846 C354.929487,727.903846 351.096154,724.217949 351.096154,719.5 C351.096154,714.782051 354.929487,711.096154 359.5,711.096154 C364.070513,711.096154 367.903846,714.782051 367.903846,719.5 C367.903846,724.217949 364.070513,727.903846 359.5,727.903846 Z" id="Shape" stroke-width="4"></path>
            <path d="M358.5,701 C359.318182,701 360,700.268293 360,699.390244 L360,696.609756 C360,695.731707 359.318182,695 358.5,695 C357.681818,695 357,695.731707 357,696.609756 L357,699.390244 C357,700.268293 357.681818,701 358.5,701 Z" id="Path" stroke-width="4"></path>
            <path d="M348.252988,703.681592 C349.049801,703.20398 349.209163,702.089552 348.731076,701.293532 L347.13745,698.746269 C346.659363,697.950249 345.543825,697.791045 344.747012,698.268657 C343.950199,698.746269 343.790837,699.860697 344.268924,700.656716 L345.86255,703.20398 C346.181275,703.681592 346.659363,704 347.296813,704 C347.615538,703.840796 347.934263,703.840796 348.252988,703.681592 Z" id="Path" stroke-width="4"></path>
            <path d="M337.003279,710.74854 L339.677307,711.860949 C339.834602,712 340.149194,712 340.30649,712 C340.935673,712 341.564856,711.721898 341.879447,711.165694 C342.194039,710.470438 341.879447,709.497081 341.092969,709.218978 L338.418941,708.10657 C337.632462,707.828468 336.531391,708.10657 336.2168,708.801825 C335.744912,709.497081 336.059504,710.470438 337.003279,710.74854 Z" id="Path" stroke-width="4"></path>
            <path d="M339.977037,722.515851 C339.828181,721.522192 339.083901,720.859752 338.190765,721.025362 L335.362501,721.522192 C334.469364,721.687802 333.87394,722.515851 334.022796,723.509511 C334.171652,724.33756 334.767076,725 335.660213,725 C335.809069,725 335.809069,725 335.957925,725 L338.786189,724.50317 C339.530469,724.33756 340.125893,723.509511 339.977037,722.515851 Z" id="Path" stroke-width="4"></path>
            <path d="M342.5,731.358037 L340.505289,733.243835 C339.935371,733.82408 339.792892,734.839509 340.362809,735.419755 C340.647768,735.709877 341.075206,736 341.502644,736 C341.787603,736 342.215041,735.854939 342.5,735.564816 L344.494711,733.82408 C345.064629,733.243835 345.207108,732.228405 344.637191,731.64816 C344.209753,730.922853 343.212397,730.777792 342.5,731.358037 Z" id="Path" stroke-width="4"></path>
            <path d="M352.881449,737.081913 C351.948235,736.770434 351.01502,737.393391 350.859484,738.172087 L350.081806,740.975391 C349.770734,741.909826 350.392877,742.844261 351.170556,743 C351.326092,743 351.481627,743 351.637163,743 C352.414842,743 353.036985,742.532783 353.19252,741.754087 L353.970199,738.950782 C354.125735,738.327826 353.659128,737.393391 352.881449,737.081913 Z" id="Path" stroke-width="4"></path>
            <path d="M366.14355,738.153601 C365.838604,737.244901 364.923763,736.790551 364.161396,737.093451 C363.246556,737.396351 362.789136,738.305051 363.094083,739.062301 L363.85645,741.7884 C364.008923,742.54565 364.77129,743 365.381183,743 C365.533657,743 365.68613,743 365.838604,743 C366.753444,742.6971 367.210864,741.7884 366.905917,741.03115 L366.14355,738.153601 Z" id="Path" stroke-width="4"></path>
            <path d="M375.5,731.379534 C374.930082,730.783345 373.932727,730.932392 373.362809,731.528581 C372.792892,732.12477 372.935371,733.168101 373.505289,733.764291 L375.5,735.552858 C375.784959,735.850953 376.069918,736 376.497356,736 C376.924794,736 377.352232,735.850953 377.637191,735.403811 C378.207108,734.807622 378.064629,733.764291 377.494711,733.168101 L375.5,731.379534 Z" id="Path" stroke-width="4"></path>
            <path d="M381.542031,721.522192 L378.77189,721.025362 C377.897109,720.859752 377.168125,721.522192 377.022328,722.515851 C376.876531,723.509511 377.459719,724.33756 378.3345,724.50317 L381.104641,725 C381.250437,725 381.250437,725 381.396234,725 C382.125219,725 382.854203,724.33756 383,723.509511 C383,722.515851 382.416812,721.687802 381.542031,721.522192 Z" id="Path" stroke-width="4"></path>
            <path d="M376.749801,712 C376.906076,712 377.218625,712 377.3749,711.862999 L380.031574,710.766994 C380.812949,710.492993 381.281773,709.533988 380.812949,708.848985 C380.344124,708.163981 379.406474,707.752979 378.6251,708.163981 L375.968426,709.259987 C375.187051,709.533988 374.718227,710.492993 375.187051,711.177996 C375.499601,711.725999 376.124701,712 376.749801,712 Z" id="Path" stroke-width="4"></path>
            <path d="M372.252988,698.268657 C371.456175,697.791045 370.340637,697.950249 369.86255,698.746269 L368.268924,701.293532 C367.790837,702.089552 367.950199,703.20398 368.747012,703.681592 C369.065737,703.840796 369.384462,704 369.703187,704 C370.181275,704 370.818725,703.681592 371.13745,703.20398 L372.731076,700.656716 C373.209163,699.701493 373.049801,698.746269 372.252988,698.268657 Z" id="Path" stroke-width="4"></path>
            <path d="M22.3365385,394.431858 L5.08653846,377.037168 L22.3365385,359.642478 C23.2211538,358.750442 23.2211538,357.412389 22.3365385,356.669027 C21.4519231,355.776991 20.125,355.776991 19.3878205,356.669027 L0.663461538,375.550442 C-0.221153846,376.442478 -0.221153846,377.780531 0.663461538,378.523894 L19.3878205,397.40531 C19.8301282,397.851327 20.2724359,398 20.8621795,398 C21.4519231,398 21.8942308,397.851327 22.3365385,397.40531 C23.0737179,396.513274 23.0737179,395.175221 22.3365385,394.431858 Z" id="Path" stroke-width="7"></path>
            <path d="M696.538706,397.40531 C696.983484,397.851327 697.428262,398 698.021299,398 C698.614337,398 699.059115,397.851327 699.503893,397.40531 L718.332833,378.523894 C719.222389,377.631858 719.222389,376.293805 718.332833,375.550442 L699.652152,356.669027 C698.762596,355.776991 697.428262,355.776991 696.686965,356.669027 C695.797409,357.561062 695.797409,358.899115 696.686965,359.642478 L714.033311,377.037168 L696.686965,394.431858 C695.797409,395.175221 695.797409,396.513274 696.538706,397.40531 Z" id="Path" stroke-width="7"></path>
            <path d="M356.351225,411 C376.560837,411 393,394.642426 393,374.533116 C393,361.176932 385.609918,348.871234 373.846113,342.418246 C372.337933,341.517829 370.377299,342.118107 369.472391,343.768872 C368.567483,345.269567 369.170755,347.22047 370.829753,348.120887 C380.632924,353.373319 386.665644,363.578043 386.665644,374.533116 C386.665644,391.040759 373.092023,404.547012 356.502043,404.547012 C339.912062,404.547012 326.338442,391.040759 326.338442,374.533116 C326.338442,363.578043 332.371162,353.373319 342.174332,348.120887 C343.682512,347.22047 344.285784,345.269567 343.531694,343.768872 C342.626786,342.268177 340.666152,341.667899 339.157972,342.418246 C327.394168,348.871234 320.004086,361.026862 320.004086,374.383046 C319.70245,394.642426 336.141612,411 356.351225,411 Z" id="Path" stroke-width="4"></path>
            <path d="M357,367 C358.714286,367 360,365.508772 360,363.868421 L360,336.131579 C360,334.342105 358.571429,333 357,333 C355.428571,333 354,334.491228 354,336.131579 L354,363.868421 C354,365.508772 355.285714,367 357,367 Z" id="Path" stroke-width="4"></path>
        </g>
    </g>
</svg>