<?xml version="1.0" encoding="UTF-8" standalone="no"?>
<!-- Created with Inkscape (http://www.inkscape.org/) -->

<svg
   width="500"
   height="500"
   viewBox="0 0 132.29166 132.29167"
   version="1.1"
   id="svg5"
   inkscape:version="1.1 (c68e22c387, 2021-05-23)"
   sodipodi:docname="icon.svg"
   xmlns:inkscape="http://www.inkscape.org/namespaces/inkscape"
   xmlns:sodipodi="http://sodipodi.sourceforge.net/DTD/sodipodi-0.dtd"
   xmlns="http://www.w3.org/2000/svg"
   xmlns:svg="http://www.w3.org/2000/svg">
  <sodipodi:namedview
     id="namedview7"
     pagecolor="#ffffff"
     bordercolor="#666666"
     borderopacity="1.0"
     inkscape:pageshadow="2"
     inkscape:pageopacity="0.0"
     inkscape:pagecheckerboard="0"
     inkscape:document-units="mm"
     showgrid="false"
     units="px"
     inkscape:zoom="1.1082211"
     inkscape:cx="338.8313"
     inkscape:cy="243.63369"
     inkscape:window-width="1368"
     inkscape:window-height="850"
     inkscape:window-x="-6"
     inkscape:window-y="-6"
     inkscape:window-maximized="1"
     inkscape:current-layer="layer1" />
  <defs
     id="defs2" />
  <g
     inkscape:label="Ebene 1"
     inkscape:groupmode="layer"
     id="layer1">
    <path
       style="fill:#000000;stroke-width:0.0951798"
       d="m 43.294076,130.88847 c -2.954819,-0.37916 -5.942661,-1.48014 -8.311056,-3.06252 -2.498843,-1.66953 -5.513687,-4.05965 -7.326685,-5.80848 -0.722403,-0.69684 -1.591861,-1.45359 -1.932129,-1.68167 -3.36045,-2.25255 -6.15018,-5.72413 -7.647816,-9.51706 -0.788621,-1.99727 -1.063812,-3.16353 -1.628239,-6.90053 C 13.371642,83.549065 12.566776,64.5015 13.92241,44.145312 14.172986,40.382668 14.271729,39.367799 14.54584,37.737804 16.529364,25.942799 24.588036,15.93892 35.670494,11.514069 37.058497,10.959887 37.47124,10.830408 40.381893,10.036094 47.496629,8.0944894 55.037316,6.4956049 62.653963,5.31365 64.434479,5.0373488 64.891782,4.9332425 65.366587,4.6961147 66.394223,4.1828903 69.371734,3.8428322 70.22354,4.1414075 c 0.335347,0.1175458 0.598285,0.1134227 2.093955,-0.032836 1.866892,-0.1825595 4.834261,-0.4046464 7.516419,-0.5625515 0.94228,-0.055474 3.81195,-0.1249444 6.377045,-0.1543781 4.368312,-0.050125 4.772361,-0.040576 6.377046,0.1507087 1.538831,0.1834346 3.243406,0.5450604 3.686524,0.782096 0.09068,0.048507 0.754557,0.1315629 1.475286,0.1845692 1.728082,0.1270924 3.564495,0.3973759 5.051875,0.7435344 0.66434,0.1546128 1.89318,0.437536 2.73077,0.6287183 2.89223,0.6601681 4.71867,1.4134549 6.75776,2.7871461 2.81806,1.8984634 5.11125,4.5924404 6.80164,7.9903704 1.79424,3.606668 2.71144,7.411901 3.00047,12.448123 0.46718,8.140574 0.58361,19.122142 0.2881,27.173825 -0.0962,2.621596 -0.51765,10.075099 -0.72115,12.75409 -0.65822,8.665733 -1.82958,18.084448 -2.66924,21.463039 -1.41003,5.673562 -4.47606,11.579148 -8.32642,16.037788 -3.44793,3.99264 -6.95493,6.59714 -11.650979,8.65268 -7.232744,3.1659 -10.272225,4.42737 -14.229378,5.90559 -8.523151,3.18386 -18.269139,6.06585 -26.88829,7.95113 -3.756838,0.82174 -8.037651,1.63929 -9.432241,1.80138 -1.391099,0.16167 -4.066715,0.18344 -5.168656,0.042 z m 5.450422,-0.79285 c 2.13665,-0.27388 8.844506,-1.65552 13.191658,-2.71714 8.098174,-1.97764 17.510504,-4.933 24.950199,-7.83405 2.508143,-0.97803 7.229844,-2.97368 11.441576,-4.83583 2.641779,-1.16803 4.754809,-2.34707 6.419689,-3.58208 4.83706,-3.58818 8.97615,-8.96232 11.56285,-15.013051 1.74549,-4.082989 2.40381,-6.74342 3.16338,-12.784021 1.12775,-8.968621 1.61478,-14.802281 2.139,-25.621018 0.30884,-6.373751 0.29312,-16.927417 -0.0364,-24.413612 -0.32859,-7.466145 -0.65721,-9.857674 -1.81786,-13.229989 C 117.82037,14.433222 114.26511,10.176993 109.67278,7.9904436 107.85582,7.1253365 107.18744,6.9633733 104.05717,6.6296661 101.53789,6.361095 92.229156,6.5524719 86.974574,6.9808648 79.171812,7.6170042 70.811897,8.8242051 63.84371,10.321043 c -3.191627,0.685594 -10.062302,2.385808 -14.404384,3.564501 -5.107067,1.386355 -8.894291,3.463384 -12.936436,7.094735 -5.588288,5.020363 -9.972103,12.71658 -11.577261,20.325016 -0.564072,2.673696 -0.794181,4.805663 -1.148916,10.644759 -0.624725,10.283268 -0.749697,18.548888 -0.427405,28.268393 0.292924,8.833833 0.850912,15.691128 1.998187,24.556383 1.022151,7.89839 1.328241,9.62304 2.159388,12.16695 1.013131,3.10091 3.213985,6.62802 5.192313,8.32123 1.210318,1.03589 3.315047,2.45071 4.633376,3.1146 1.901732,0.9577 4.345322,1.63763 6.808922,1.89458 0.733754,0.0765 3.437634,-0.0272 4.603004,-0.17657 z M 45.569191,128.2234 C 45.202749,128.177 44.367546,128.00937 43.713185,127.85086 37.35817,126.3114 32.316278,121.33018 30.676693,114.97124 30.235675,113.2608 29.178161,105.42267 28.536928,99.111632 26.793703,81.954769 26.6416,65.619334 28.057029,47.571784 c 0.321385,-4.097859 0.765902,-6.423849 1.808995,-9.465801 1.668733,-4.866494 4.223817,-8.953014 7.892232,-12.62258 2.661383,-2.662217 5.211493,-4.520538 8.382014,-6.108156 2.203076,-1.103177 2.987584,-1.399934 6.209588,-2.348911 15.544804,-4.578411 30.537277,-6.928191 47.13154,-7.3869523 3.732962,-0.1032006 3.901752,-0.1000587 5.663202,0.1054097 1.71315,0.1998356 1.90682,0.2437306 3.43361,0.7782186 1.46422,0.512583 1.75832,0.655549 3.09334,1.503699 1.31631,0.836259 1.61504,1.078832 2.77215,2.250965 1.74669,1.769377 2.77555,3.259765 3.8592,5.590365 1.11943,2.40753 1.75422,4.677871 2.13082,7.62081 0.77589,6.063334 1.00444,22.348647 0.46883,33.408101 -0.40457,8.353781 -1.10951,16.373428 -2.14599,24.413613 -0.60843,4.719741 -1.14412,6.981371 -2.38769,10.080718 -1.70007,4.23708 -3.98363,7.676367 -7.31014,11.009827 -3.0607,3.06711 -5.65571,4.88718 -9.379831,6.57872 -13.398664,6.08587 -27.630358,10.77222 -41.879105,13.79035 -2.489445,0.52731 -6.237618,1.24807 -7.341059,1.41167 -1.10491,0.1638 -3.74639,0.18626 -4.889544,0.0416 z m 5.615608,-0.51331 c 10.859238,-1.85752 23.919378,-5.41729 34.978571,-9.53403 5.377423,-2.00172 12.177967,-4.8579 15.05215,-6.3218 1.33954,-0.68225 3.67151,-2.218 5.0326,-3.31429 1.25812,-1.01335 3.921,-3.67275 4.86606,-4.85971 2.98181,-3.745047 5.03103,-7.80179 6.22623,-12.32578 0.54962,-2.080357 0.87448,-4.15929 1.50963,-9.660747 0.99809,-8.645049 1.57806,-16.340207 1.85794,-24.651561 0.36207,-10.752407 0.0825,-24.106446 -0.61965,-29.60091 -0.68199,-5.336529 -2.75647,-9.846007 -6.00607,-13.055935 -1.04198,-1.029248 -1.43026,-1.337381 -2.64866,-2.1019 -1.23929,-0.777626 -1.62867,-0.966699 -2.95057,-1.432734 -1.36614,-0.481632 -1.68622,-0.556729 -3.11004,-0.729698 -3.70024,-0.4495157 -13.542814,-0.0079 -22.398143,1.004904 -10.590757,1.211316 -22.378862,3.676465 -32.234141,6.740859 -3.156174,0.981378 -6.228393,2.563163 -9.081728,4.675886 -5.838142,4.322791 -10.038866,10.417968 -12.02528,17.448471 -0.640111,2.265539 -0.943113,4.080711 -1.193929,7.15236 -0.61452,7.525795 -0.885318,13.352287 -0.968785,20.844371 -0.155354,13.944765 0.773723,28.256438 2.724863,41.974284 0.107964,0.75906 0.260196,1.87266 0.338294,2.47467 0.903049,6.96105 5.487961,12.58511 11.989297,14.70663 2.872142,0.93723 5.492676,1.10868 8.661361,0.56666 z m 23.485612,-13.52833 c -0.222483,-0.0785 -0.404515,-0.18296 -0.404515,-0.23211 0,-0.0491 0.127972,-0.37157 0.284381,-0.71652 0.259587,-0.5725 0.30486,-0.62205 0.519291,-0.56823 0.510198,0.12805 0.719005,0.24868 0.713173,0.412 -0.0081,0.22663 -0.492734,1.19525 -0.612637,1.22445 -0.05235,0.0127 -0.277211,-0.0411 -0.499693,-0.11959 z m 0.55387,-0.61572 c 0.162649,-0.31881 0.176583,-0.40897 0.07332,-0.47435 -0.200275,-0.12679 -0.305223,-0.0486 -0.451814,0.33653 -0.11746,0.30861 -0.117607,0.36932 -0.0011,0.44307 0.07427,0.047 0.144869,0.0861 0.156893,0.0869 0.01202,9.5e-4 0.112227,-0.17567 0.222675,-0.39218 z m 1.460813,0.64536 c -0.02723,-0.071 -0.03659,-0.39833 -0.02081,-0.72751 l 0.02869,-0.59851 0.428309,-0.12766 c 0.675346,-0.20131 0.666259,-0.20921 0.666259,0.5796 v 0.71016 l -0.493175,0.14646 c -0.594332,0.17649 -0.548751,0.17519 -0.60928,0.0175 z m 0.666361,-0.40468 c 0.09424,-0.0362 0.150554,-0.17263 0.150554,-0.36485 0,-0.36833 -0.048,-0.42851 -0.29105,-0.36495 -0.14298,0.0374 -0.184849,0.13206 -0.184849,0.41796 0,0.37182 0.04834,0.41814 0.325345,0.31184 z m -4.461117,-1.11562 c -0.133374,-0.22759 -0.242498,-0.45447 -0.242498,-0.50418 0,-0.12635 0.887237,-0.98746 1.017408,-0.98746 0.05866,0 0.222273,0.19728 0.363577,0.43839 l 0.256915,0.4384 -0.414436,0.42555 c -0.643184,0.66042 -0.6986,0.67112 -0.980966,0.1893 z m 0.898202,-0.67662 c -7.61e-4,-0.0556 -0.04237,-0.16541 -0.09238,-0.24394 -0.07617,-0.1196 -0.139302,-0.0945 -0.389101,0.15444 -0.2622,0.26135 -0.28448,0.3228 -0.184647,0.50935 l 0.113532,0.21213 0.277026,-0.26541 c 0.152364,-0.14597 0.27637,-0.31093 0.275568,-0.36657 z m 5.116678,0.56121 c -0.143579,-0.23771 -0.261051,-0.46436 -0.261051,-0.50368 0,-0.0393 0.19071,-0.25865 0.423802,-0.4874 0.482667,-0.4737 0.533848,-0.461 0.905833,0.22504 l 0.235068,0.43352 -0.373359,0.38235 c -0.205348,0.2103 -0.439933,0.38236 -0.521301,0.38236 -0.08137,0 -0.265414,-0.19448 -0.408992,-0.43219 z m 0.731052,-0.22602 c 0.156146,-0.17254 0.156213,-0.19571 0.0012,-0.43222 l -0.163742,-0.24989 -0.217722,0.20453 c -0.183698,0.17258 -0.201511,0.24012 -0.113988,0.43222 0.125363,0.27514 0.273919,0.28878 0.494205,0.0454 z m -4.044508,-0.6943 c -0.584222,-0.25706 -1.030285,-0.90997 -1.18532,-1.73497 -0.311924,-1.65988 0.673104,-3.65577 2.205921,-4.4697 1.616402,-0.85831 3.155911,-0.16153 3.466947,1.56913 0.397162,2.2099 -1.516475,4.86814 -3.481509,4.8362 -0.346003,-0.006 -0.742506,-0.0847 -1.006039,-0.20066 z m 2.100607,-0.46143 c 1.770102,-0.89186 2.676463,-3.58465 1.690614,-5.02279 -0.984898,-1.43675 -3.182385,-0.72419 -4.242379,1.37565 -0.792508,1.56995 -0.503484,3.23844 0.659914,3.80958 0.531275,0.26081 1.158773,0.20693 1.891851,-0.16244 z m -1.539011,-0.57096 c -1.694995,-0.88151 -0.681347,-4.15045 1.37436,-4.43221 0.5428,-0.0744 1.109226,0.20511 1.416192,0.69885 0.31693,0.50976 0.314145,1.68677 -0.0055,2.31107 -0.624832,1.22047 -1.910589,1.87708 -2.785083,1.42229 z m 1.33766,-0.36971 c 0.783609,-0.39976 1.360112,-1.36447 1.368835,-2.29057 0.01779,-1.88817 -2.022652,-1.88773 -2.982792,9.6e-4 -0.309012,0.60775 -0.311321,1.56793 -0.0047,1.95884 0.428124,0.54584 0.977459,0.6582 1.618667,0.33108 z m -5.282179,0.2388 c -0.02624,-0.0684 -0.03457,-0.35479 -0.01851,-0.63647 l 0.0292,-0.51214 0.475899,-0.15893 c 0.813453,-0.27167 0.821835,-0.26679 0.789582,0.45993 l -0.02814,0.63414 -0.60016,0.1689 c -0.481257,0.13544 -0.609612,0.14427 -0.647869,0.0446 z m 0.765934,-0.4324 c 0.166808,-0.0634 0.244146,-0.16393 0.244146,-0.31728 0,-0.30948 -0.0676,-0.35106 -0.388811,-0.23908 -0.220526,0.0769 -0.277448,0.15339 -0.277448,0.37295 0,0.30053 0.05321,0.32365 0.422113,0.18341 z m 7.691964,0.39363 c -0.251478,-0.0946 -0.404514,-0.21173 -0.404514,-0.30957 0,-0.1805 0.351732,-1.00949 0.454814,-1.07194 0.133279,-0.0808 1.068062,0.33221 1.068062,0.47184 0,0.23595 -0.472094,1.08544 -0.596477,1.0733 -0.06455,-0.006 -0.299402,-0.0799 -0.521885,-0.16363 z m 0.599448,-0.50002 c 0.173774,-0.33604 0.174021,-0.33536 -0.153405,-0.41754 -0.200086,-0.0502 -0.263833,-0.0168 -0.356729,0.18709 -0.06221,0.13654 -0.113109,0.26903 -0.113109,0.29443 0,0.0354 0.286111,0.17816 0.44966,0.22437 0.01174,0.003 0.08986,-0.12644 0.173583,-0.28835 z m -0.298794,-2.121 c -0.02766,-0.0721 -0.03703,-0.33944 -0.02081,-0.59412 0.03318,-0.52099 0.177567,-0.64023 0.91879,-0.75875 l 0.40538,-0.0648 -0.02867,0.60781 -0.02867,0.60782 -0.475899,0.15893 c -0.598657,0.19994 -0.707606,0.20604 -0.770119,0.0431 z m 0.942092,-0.70759 c 0.06135,-0.31933 0.0638,-0.31734 -0.299541,-0.24467 -0.265133,0.053 -0.300741,0.0976 -0.300741,0.37643 0,0.30755 0.0076,0.31363 0.275558,0.22022 0.187581,-0.0654 0.291255,-0.17777 0.324724,-0.35198 z m -8.857129,0.57403 c -0.222483,-0.0855 -0.404514,-0.19928 -0.404514,-0.25289 0,-0.27198 0.43037,-1.10054 0.571638,-1.10054 0.248385,0 1.046418,0.29511 1.046418,0.38696 0,0.0459 -0.10472,0.32031 -0.232711,0.60972 -0.257887,0.58313 -0.326622,0.60812 -0.980831,0.35675 z m 0.67191,-0.53756 c 0.06627,-0.1988 0.05565,-0.28788 -0.04164,-0.34951 -0.228666,-0.14486 -0.359696,-0.0933 -0.512233,0.20172 -0.142723,0.27599 -0.139997,0.29079 0.06894,0.37434 0.300296,0.12009 0.382131,0.0819 0.484933,-0.22655 z m 6.777102,-1.76577 c -0.131528,-0.20836 -0.239143,-0.41341 -0.239143,-0.45568 0,-0.1561 0.941479,-0.99823 1.063442,-0.95123 0.06947,0.0268 0.224691,0.22407 0.344939,0.43845 l 0.218635,0.38976 -0.504174,0.4769 c -0.277295,0.26229 -0.535759,0.47774 -0.574365,0.47877 -0.03861,10e-4 -0.177805,-0.16862 -0.309334,-0.37697 z m 0.903014,-0.72793 c 0,-0.24521 -0.214561,-0.23819 -0.479547,0.0157 -0.224671,0.21525 -0.25587,0.29559 -0.174111,0.44837 0.09586,0.17911 0.110018,0.17614 0.376633,-0.0793 0.152364,-0.14598 0.277025,-0.31911 0.277025,-0.38475 z m -6.848405,0.51282 -0.28485,-0.49876 0.397922,-0.40544 c 0.218857,-0.22301 0.452384,-0.40546 0.518949,-0.40546 0.06656,0 0.249211,0.22444 0.405878,0.49875 l 0.284851,0.49876 -0.397922,0.40545 c -0.218858,0.22301 -0.452385,0.40546 -0.51895,0.40546 -0.06657,0 -0.24921,-0.22445 -0.405878,-0.49876 z m 0.709659,-0.16789 c 0.142634,-0.15761 0.153819,-0.23201 0.06438,-0.42831 -0.131024,-0.28757 -0.219611,-0.29675 -0.446288,-0.0463 -0.150979,0.16683 -0.156893,0.22159 -0.04626,0.42831 0.153435,0.2867 0.205497,0.29233 0.428164,0.0463 z m 1.52756,-0.74016 c -0.02894,-0.0289 -0.05262,-0.35993 -0.05262,-0.73554 v -0.68291 l 0.367967,-0.11025 c 0.736321,-0.22061 0.77419,-0.19369 0.77419,0.5504 0,0.36335 -0.04132,0.68618 -0.09182,0.71739 -0.18201,0.11249 -0.946274,0.31236 -0.997712,0.26091 z m 0.558261,-0.45938 c 0.16374,-0.0628 0.221932,-0.79885 0.06316,-0.79885 -0.279339,0 -0.388504,0.13659 -0.388504,0.48609 0,0.37269 0.04826,0.41908 0.325344,0.31276 z m 1.744816,0.37581 c -0.196309,-0.0814 -0.356925,-0.20488 -0.356925,-0.27435 0,-0.25388 0.504489,-1.28103 0.629184,-1.28103 0.193746,0 0.893693,0.29597 0.893693,0.3779 0,0.20023 -0.589204,1.33466 -0.691002,1.33044 -0.06491,-0.003 -0.278642,-0.0715 -0.47495,-0.15296 z m 0.592286,-1.08309 c -0.219734,-0.13896 -0.252509,-0.11599 -0.415387,0.29107 -0.188288,0.47058 -0.188784,0.45229 0.01346,0.49612 0.115467,0.025 0.224168,-0.0766 0.354337,-0.33123 0.162309,-0.3175 0.168763,-0.37933 0.04759,-0.45596 z M 42.22828,84.906051 c -0.156503,-0.117785 -1.816361,-1.49774 -3.688572,-3.066566 -2.521414,-2.112827 -3.392862,-2.895078 -3.360987,-3.016969 0.05864,-0.224248 6.847014,-9.589222 6.954195,-9.593736 0.155742,-0.0066 0.914011,0.672869 0.914011,0.818979 0,0.07896 -1.353133,2.009429 -3.006962,4.289922 l -3.006961,4.146348 0.247593,0.200951 c 2.248344,1.824794 6.042067,5.091393 6.046299,5.206189 0.0045,0.122744 -0.706761,1.229036 -0.790205,1.229036 -0.01312,0 -0.151908,-0.09637 -0.308411,-0.214154 z m 0.720907,-0.940303 c 0.0014,-0.03294 -1.41086,-1.247439 -3.138373,-2.698888 -1.727513,-1.451449 -3.140933,-2.692934 -3.140933,-2.758856 0,-0.06592 1.333078,-1.956314 2.962395,-4.200872 1.629317,-2.244559 2.980643,-4.128567 3.002944,-4.186685 0.05233,-0.136376 -0.448982,-0.469145 -0.528269,-0.350661 -0.03268,0.04883 -1.528611,2.110111 -3.324299,4.580623 l -3.264888,4.49184 0.307234,0.259789 c 0.168978,0.142885 1.72384,1.44784 3.455247,2.899901 l 3.148013,2.640109 0.259184,-0.308205 c 0.142551,-0.169513 0.260336,-0.335155 0.261745,-0.368095 z M 108.53946,68.13974 c -0.17576,-0.181339 -0.29707,-0.388309 -0.26959,-0.459932 0.0275,-0.07162 1.19178,-1.768883 2.58731,-3.771686 l 2.53735,-3.64146 -0.54527,-0.589062 c -0.29989,-0.323985 -1.36216,-1.459055 -2.36057,-2.522379 -0.99841,-1.063322 -1.83042,-1.97598 -1.84888,-2.028128 -0.0426,-0.120371 0.62327,-1.130674 0.74523,-1.130674 0.0901,0 5.40663,5.615293 5.54874,5.860541 0.0869,0.149999 -5.71623,8.543441 -5.93614,8.585794 -0.0762,0.01468 -0.28242,-0.121675 -0.45818,-0.303014 z m 3.16315,-4.013976 c 1.45875,-2.08994 2.6962,-3.892617 2.7499,-4.005951 0.088,-0.185831 -0.15329,-0.4739 -2.45817,-2.934385 l -2.55578,-2.728327 -0.21552,0.269352 c -0.11853,0.148145 -0.20503,0.29687 -0.19222,0.330502 0.0128,0.03363 1.07265,1.179935 2.35519,2.547342 1.28255,1.367407 2.34398,2.540611 2.35872,2.607122 0.0147,0.06651 -1.1318,1.784493 -2.5479,3.817739 -2.07405,2.977973 -2.55306,3.722888 -2.4634,3.830919 0.0612,0.07376 0.15756,0.118688 0.2141,0.09984 0.0565,-0.01885 1.29632,-1.744217 2.75508,-3.834156 z M 74.444814,38.964673 c -2.692283,-0.79587 -4.687819,-3.334352 -5.233953,-6.658004 -1.039361,-6.325335 3.010141,-12.972423 8.481508,-13.922041 1.056824,-0.183424 1.130634,-0.18444 2.140516,-0.0295 0.902953,0.138537 1.182719,0.229279 2.046365,0.663743 0.857272,0.431256 1.110358,0.616994 1.768783,1.2981 2.050399,2.121026 2.911208,5.442494 2.333455,9.003724 -0.56519,3.483789 -2.507497,6.670345 -5.15957,8.464805 -0.756436,0.511825 -1.199799,0.731318 -2.09736,1.038327 -1.0623,0.363358 -1.212332,0.390045 -2.251124,0.400413 -0.965073,0.0096 -1.234647,-0.02486 -2.02862,-0.25957 z m 4.104173,-0.44751 c 2.76071,-0.904986 5.192036,-3.461177 6.443245,-6.774152 0.913965,-2.420014 1.072706,-5.248634 0.424576,-7.565516 C 85.02555,22.778857 84.279254,21.44005 83.37081,20.507099 82.8034,19.924382 82.51977,19.723238 81.67662,19.30562 c -0.882937,-0.437326 -1.135341,-0.517223 -1.970005,-0.623592 -0.84244,-0.107359 -1.078105,-0.102179 -1.963862,0.04318 -2.125601,0.348818 -4.097732,1.638574 -5.697865,3.726351 -4.46269,5.822703 -3.082801,14.55513 2.559178,16.195391 0.841706,0.244704 1.05765,0.27095 1.946145,0.236535 0.81305,-0.03149 1.185726,-0.09979 1.998776,-0.36632 z M 76.80761,37.213551 c -0.02668,-0.06953 -0.12315,-0.909059 -0.214379,-1.865632 -0.181462,-1.902685 -0.184333,-1.887388 0.361494,-1.925871 0.752892,-0.05308 0.668877,-0.210212 0.848016,1.586006 0.23135,2.319732 0.260434,2.107484 -0.305417,2.228838 -0.607193,0.130219 -0.631098,0.12941 -0.689714,-0.02334 z m 0.681018,-0.339208 c 0.108807,-0.06894 0.106011,-0.320045 -0.01758,-1.578653 -0.08083,-0.823171 -0.167951,-1.51766 -0.1936,-1.543309 -0.02565,-0.02565 -0.135525,-0.01842 -0.244168,0.01606 -0.231456,0.07346 -0.238263,0.178947 -0.102359,1.586453 0.16008,1.65789 0.193877,1.749971 0.557704,1.51945 z m -3.682263,-0.133717 c -0.494573,-0.248287 -0.503519,-0.134367 0.179035,-2.279856 0.337791,-1.061789 0.518779,-1.499082 0.620443,-1.499082 0.259266,0 0.897391,0.381319 0.897391,0.536247 0,0.306532 -1.076218,3.461112 -1.178847,3.4554 -0.05834,-0.0032 -0.291454,-0.09897 -0.518022,-0.212709 z m 0.875144,-1.69434 c 0.428795,-1.363891 0.443041,-1.443519 0.279837,-1.564058 -0.09458,-0.06985 -0.199805,-0.09777 -0.233836,-0.06203 -0.03403,0.03574 -0.266998,0.699903 -0.517705,1.475925 -0.382078,1.182663 -0.433666,1.424972 -0.318844,1.497624 0.07534,0.04767 0.182383,0.08733 0.237869,0.08813 0.05549,7.61e-4 0.304192,-0.645217 0.552679,-1.435597 z m 5.166895,-0.01444 C 79.570807,34.59997 79.156238,33.929767 78.927138,33.542507 l -0.416546,-0.704108 0.471302,-0.409794 c 0.366855,-0.31898 0.496563,-0.384417 0.585298,-0.29528 0.0627,0.06298 0.502534,0.735563 0.977412,1.494622 l 0.863416,1.380107 -0.424588,0.404514 c -0.233524,0.222482 -0.470876,0.404514 -0.527448,0.404514 -0.05657,0 -0.329983,-0.353355 -0.60758,-0.785233 z m 0.930143,0.126892 c 0.192552,-0.212768 0.229891,-0.125421 -0.679382,-1.589266 -0.655534,-1.055347 -0.65759,-1.057458 -0.865687,-0.88895 -0.114726,0.0929 -0.208592,0.216043 -0.208592,0.273654 0,0.09613 1.133534,1.993404 1.355042,2.268029 0.130677,0.162013 0.205316,0.150129 0.398619,-0.06347 z M 71.311951,34.27041 c -0.299581,-0.485355 -0.329387,-0.721069 -0.121019,-0.957067 0.985063,-1.115682 1.985212,-2.160007 2.068376,-2.159737 0.05631,1.9e-4 0.227231,0.231796 0.379826,0.514697 l 0.277445,0.514364 -0.991294,1.063548 c -0.545211,0.584951 -1.025545,1.124293 -1.067408,1.198539 -0.125786,0.223085 -0.34354,0.153545 -0.545926,-0.174344 z m 2.036637,-2.378014 -0.133026,-0.260263 -0.6523,0.688572 c -1.146909,1.210689 -1.195017,1.281559 -1.06446,1.568099 l 0.114066,0.250347 0.934373,-0.993245 c 0.92122,-0.979264 0.932501,-0.996909 0.801347,-1.25351 z m 8.313522,-0.08053 c -0.722005,-0.365172 -1.338833,-0.731956 -1.370729,-0.815075 -0.06608,-0.1722 0.394892,-1.176037 0.540047,-1.176037 0.05246,0 0.716799,0.30984 1.476321,0.688531 0.871265,0.434408 1.380603,0.741788 1.380016,0.832823 -0.0016,0.254855 -0.461926,1.143853 -0.589565,1.138694 -0.06784,-0.0027 -0.714085,-0.303763 -1.43609,-0.668936 z m 1.513529,-0.05022 c 0.07892,-0.188878 0.130272,-0.355324 0.114118,-0.369877 -0.01615,-0.01455 -0.553041,-0.288149 -1.193081,-0.60799 l -1.16371,-0.581531 -0.148902,0.287945 c -0.0819,0.15837 -0.122385,0.330849 -0.08998,0.383287 0.04514,0.07304 2.172701,1.203099 2.309411,1.226648 0.01576,0.0027 0.09322,-0.149602 0.17214,-0.338482 z M 76.10703,32.28773 c -1.294334,-0.243779 -2.120545,-1.330937 -2.203263,-2.899132 -0.07563,-1.433802 0.356499,-2.624855 1.289297,-3.553623 0.765586,-0.762278 1.310464,-1.011157 2.213765,-1.011157 0.606109,0 0.78057,0.03922 1.155921,0.259878 0.901766,0.530114 1.407671,1.442102 1.484388,2.67589 0.08108,1.303946 -0.336407,2.496671 -1.196824,3.41924 -0.847786,0.909021 -1.787571,1.288906 -2.743284,1.108904 z m 1.545589,-0.590826 c 0.537747,-0.272496 1.266163,-1.006846 1.540747,-1.553295 0.490113,-0.975373 0.659628,-2.248508 0.417035,-3.13212 -0.158121,-0.575932 -0.62214,-1.242013 -1.07317,-1.540491 -0.351976,-0.232926 -0.493368,-0.266461 -1.123451,-0.266461 -0.879946,0 -1.282116,0.174989 -1.966963,0.855851 -0.923362,0.917988 -1.40177,2.389495 -1.1838,3.641175 0.332308,1.908252 1.826129,2.787612 3.389602,1.995341 z m -1.721076,-0.730492 c -0.104698,-0.04379 -0.327739,-0.223264 -0.495646,-0.398836 -0.871636,-0.91142 -0.776622,-2.712574 0.199162,-3.775418 1.191963,-1.298313 2.85903,-0.92211 3.29814,0.744283 0.314502,1.193511 -0.377607,2.786263 -1.451193,3.339633 -0.369678,0.190547 -1.195777,0.23868 -1.550463,0.09034 z m 1.216599,-0.322204 c 1.214829,-0.509078 1.872862,-2.269223 1.294786,-3.46337 -0.217774,-0.449859 -0.454947,-0.647179 -0.947787,-0.788523 -0.700627,-0.200938 -1.591274,0.36224 -2.047465,1.294661 -0.812043,1.659756 0.277027,3.553727 1.700466,2.957232 z m -6.815296,-0.02924 c -0.110321,-0.11032 -0.07222,-1.254103 0.04417,-1.326037 0.18816,-0.116288 2.50544,-0.674897 2.628928,-0.633734 0.07735,0.02578 0.117797,0.249693 0.117797,0.652043 0,0.721775 0.06514,0.674349 -1.427697,1.039465 -0.549663,0.134437 -1.066732,0.264305 -1.149042,0.288597 -0.08231,0.02429 -0.17868,0.01514 -0.214154,-0.02033 z m 1.111509,-0.562025 c 1.40874,-0.357793 1.298665,-0.301498 1.298665,-0.664163 0,-0.377784 -0.01066,-0.380209 -0.79529,-0.180929 -1.408741,0.357794 -1.298665,0.301499 -1.298665,0.664164 0,0.377784 0.01066,0.380209 0.79529,0.180928 z m 9.579306,-2.127962 c 0,-0.456868 0.03905,-0.694648 0.118975,-0.724528 0.200829,-0.07507 3.160074,-0.404781 3.236113,-0.360554 0.10391,0.06044 0.08763,1.246345 -0.018,1.311632 -0.04916,0.03038 -0.638088,0.118497 -1.308722,0.195805 -0.670634,0.07731 -1.401365,0.166916 -1.623848,0.199128 l -0.404514,0.05857 z m 2.022571,0.07912 1.023182,-0.113036 v -0.369482 c 0,-0.332916 -0.02119,-0.365072 -0.214154,-0.324925 -0.117785,0.02451 -0.663879,0.093 -1.213542,0.152217 -1.352871,0.145737 -1.332517,0.137499 -1.332517,0.53928 0,0.33791 0.001,0.338722 0.356924,0.283929 0.196308,-0.03022 0.817356,-0.105815 1.380107,-0.167983 z m -10.99322,-1.261327 c -0.562725,-0.322539 -1.023157,-0.638752 -1.023183,-0.702696 -8.2e-5,-0.209523 0.462993,-1.168665 0.564233,-1.168665 0.153337,0 2.212481,1.177003 2.257465,1.290364 0.07494,0.188847 -0.446638,1.184815 -0.615791,1.17587 -0.08777,-0.0046 -0.619998,-0.272335 -1.182724,-0.594873 z m 1.279141,-0.520428 c -0.239417,-0.185124 -1.503416,-0.875035 -1.603166,-0.875035 -0.08063,0 -0.345258,0.576031 -0.290011,0.631278 0.01384,0.01384 0.409149,0.239654 0.878466,0.501809 l 0.853303,0.476645 0.161116,-0.305172 c 0.151245,-0.286472 0.151262,-0.312792 2.86e-4,-0.429525 z m 7.430365,-0.231097 c -0.0531,-0.06625 -0.191176,-0.308206 -0.306843,-0.537687 -0.203965,-0.404661 -0.205029,-0.422293 -0.03531,-0.584855 0.233642,-0.223796 2.570325,-1.89468 2.74153,-1.960378 0.09046,-0.03471 0.214843,0.106324 0.378372,0.429033 0.133987,0.264409 0.243612,0.519822 0.243612,0.567583 0,0.04776 -0.524679,0.463802 -1.165952,0.924536 -0.641274,0.460734 -1.299358,0.937715 -1.462409,1.059957 -0.23245,0.174274 -0.3173,0.196255 -0.392996,0.101811 z m 2.624554,-2.128631 c 0.02784,-0.01933 -0.151379,-0.409809 -0.230245,-0.501637 -0.0166,-0.01933 -0.587204,0.361072 -1.268007,0.845337 l -1.237824,0.880483 0.139202,0.269184 0.1392,0.269185 1.213083,-0.870336 c 0.667197,-0.478685 1.227263,-0.880182 1.244591,-0.892216 z m -8.981389,0.907847 c -0.08285,-0.160219 -0.345929,-0.790757 -0.584614,-1.401194 l -0.433973,-1.109886 0.463195,-0.405131 c 0.254757,-0.222823 0.501979,-0.393144 0.549383,-0.378493 0.0474,0.01465 0.340364,0.662395 0.651025,1.439431 l 0.564838,1.412793 -0.413075,0.362835 c -0.227193,0.19956 -0.465515,0.364662 -0.529607,0.366894 -0.06409,0.0022 -0.184319,-0.12703 -0.267172,-0.287249 z m 0.575159,-0.375982 0.203726,-0.19139 -0.433863,-1.093537 c -0.238625,-0.601445 -0.461996,-1.093537 -0.496381,-1.093537 -0.03439,0 -0.153759,0.07495 -0.265274,0.166565 l -0.202756,0.166565 0.447396,1.118362 c 0.246068,0.615099 0.469003,1.118362 0.495411,1.118362 0.02641,0 0.139692,-0.08613 0.251741,-0.19139 z m 4.115429,-0.338398 c -0.248658,-0.129414 -0.452104,-0.291538 -0.452104,-0.360275 0,-0.146631 1.565593,-2.901473 1.761745,-3.099994 0.115468,-0.116862 0.186116,-0.111623 0.519023,0.0385 0.211948,0.09557 0.427652,0.224731 0.479343,0.287014 0.0658,0.07928 -0.16035,0.552989 -0.754074,1.579559 -1.143446,1.97706 -1.006571,1.840073 -1.553933,1.555198 z m 1.162576,-1.581353 c 0.733035,-1.258141 0.774731,-1.358222 0.614637,-1.475287 -0.09446,-0.06907 -0.195682,-0.125138 -0.224939,-0.124595 -0.02926,5.71e-4 -0.406902,0.610883 -0.839212,1.356312 -0.713345,1.230012 -0.771065,1.366324 -0.624272,1.474298 0.08896,0.06544 0.19002,0.118975 0.224575,0.118975 0.03456,0 0.4167,-0.607367 0.849211,-1.349703 z m -3.72583,1.239887 c -0.07858,-0.225801 0.305351,-3.359207 0.425658,-3.473988 0.06326,-0.06036 0.339887,-0.139332 0.614719,-0.175496 0.387745,-0.05102 0.499694,-0.03707 0.499694,0.06228 0,0.07042 -0.08536,0.874801 -0.189685,1.787517 -0.188781,1.651588 -0.239661,1.809624 -0.583651,1.812866 -0.08507,7.62e-4 -0.28235,0.02699 -0.438407,0.05821 -0.193254,0.03865 -0.297958,0.01589 -0.328328,-0.07138 z M 77.369732,23.317 c 0.006,-0.0088 0.06231,-0.487199 0.125165,-1.063036 0.06286,-0.575838 0.138822,-1.229009 0.168815,-1.451492 0.04918,-0.364832 0.03492,-0.404514 -0.145417,-0.404514 -0.289139,0 -0.362503,0.209035 -0.484376,1.380107 -0.05993,0.575838 -0.131981,1.191561 -0.16012,1.368276 -0.04973,0.312297 -0.04365,0.319413 0.216944,0.254008 0.147458,-0.03701 0.273003,-0.07452 0.278989,-0.08335 z m -48.058078,98.31908 c -0.568643,-0.86786 -1.457201,-2.67331 -1.917394,-3.89593 -0.572695,-1.52151 -1.22116,-4.28482 -1.534903,-6.54069 -1.728903,-12.431103 -2.31066,-18.484967 -2.807968,-29.220187 -0.264476,-5.70917 -0.20723,-19.27545 0.106834,-25.317821 0.418482,-8.051285 0.681721,-11.179193 1.192272,-14.167029 0.872112,-5.10376 3.045802,-10.431402 6.141722,-15.053161 3.543967,-5.290626 8.758779,-9.876133 13.709172,-12.054795 1.668566,-0.734334 3.702398,-1.460381 5.174994,-1.847394 12.626111,-3.318267 17.94115,-4.4574047 26.3648,-5.6505984 8.259569,-1.1699525 14.894968,-1.6634487 22.605199,-1.6812223 3.505068,-0.00808 4.346648,-0.032966 4.045138,-0.1196162 -0.26151,-0.075155 -1.6175,-0.1070297 -4.330677,-0.1017995 -15.923357,0.030696 -32.857684,2.5018966 -48.910756,7.1374744 -2.881351,0.832036 -3.899627,1.202138 -5.865211,2.131763 -10.574581,5.001264 -18.226199,15.216865 -20.070766,26.796283 -0.262286,1.646517 -0.336903,2.387567 -0.57982,5.758376 -0.589239,8.17653 -0.756842,12.829887 -0.755907,20.987141 0.0017,15.005379 1.004381,28.178381 3.269887,42.959936 0.455773,2.97375 1.334155,5.52562 2.69395,7.82647 0.571133,0.96639 1.468756,2.27632 1.559834,2.27632 0.03083,0 -0.0098,-0.10059 -0.0904,-0.22352 z m -1.476376,-0.70448 c -1.358367,-2.00546 -2.589549,-4.98616 -3.115651,-7.543 -0.545826,-2.65271 -1.774674,-12.14156 -2.32349,-17.941389 -1.433671,-15.150922 -1.635207,-30.012116 -0.617628,-45.543523 0.448565,-6.846501 0.726581,-8.871331 1.667304,-12.143257 2.837491,-9.869064 9.538925,-18.043075 18.601726,-22.689281 2.37797,-1.219109 3.655584,-1.702307 7.1837,-2.7169 C 64.064545,8.0885815 79.252014,5.7459292 95.01509,5.292136 96.998445,5.2350384 97.401956,5.2051691 96.680736,5.1688387 93.585422,5.0129169 86.282663,5.1102341 82.308588,5.3603632 78.129689,5.6233841 72.445355,6.1868486 72.314711,6.351015 71.987513,6.7621695 70.371452,6.9733662 66.413564,7.1222129 62.946325,7.2526075 52.465342,9.2605006 44.760163,11.27046 c -8.656867,2.258216 -10.620333,3.002664 -14.253845,5.404347 -1.660956,1.097861 -2.945154,2.163488 -4.596502,3.814173 -3.564218,3.562792 -6.09059,7.579983 -7.784107,12.377529 -1.530888,4.336838 -1.867113,6.906676 -2.403403,18.369696 -0.161614,3.454458 -0.222068,15.972514 -0.09588,19.853761 0.331849,10.206878 1.081784,19.039661 2.391262,28.164436 1.110826,7.740518 1.532146,9.506018 2.941427,12.325778 1.448104,2.89745 2.87957,5.08846 4.75711,7.28126 0.754166,0.8808 2.38503,2.61744 2.458012,2.61744 0.01745,0 -0.135076,-0.24628 -0.338959,-0.54728 z m -3.646134,-2.7727 c -1.205327,-1.65262 -1.633839,-2.28813 -2.323482,-3.44581 -1.147271,-1.92589 -2.256227,-4.21553 -2.698287,-5.57109 -0.43951,-1.34775 -0.900906,-3.38177 -1.163369,-5.12861 C 16.943437,96.954668 16.549272,93.94555 16.115167,89.593655 14.639493,74.800059 14.411083,60.293916 15.39955,44.145312 c 0.313721,-5.125273 0.731776,-7.580504 1.863733,-10.945674 1.061924,-3.156974 2.262653,-5.604702 4.089263,-8.336102 3.789239,-5.666194 9.305364,-9.995089 15.412515,-12.095293 1.523844,-0.524039 7.725922,-2.198099 11.231215,-3.0315209 4.980534,-1.1841763 12.435855,-2.6586474 15.192783,-3.0047424 0.608099,-0.076339 0.647147,-0.1017414 0.829456,-0.5396029 0.135673,-0.3258513 0.135322,-0.3569242 -0.004,-0.3569242 -0.519619,0 -7.42438,1.1946084 -10.402599,1.7997771 -6.610112,1.3431628 -14.707062,3.3903213 -17.227541,4.3556523 -11.695852,4.479454 -19.986111,15.234106 -21.411344,27.77616 -0.05354,0.47114 -0.161621,1.798898 -0.240182,2.950573 -0.07856,1.151676 -0.165545,2.393772 -0.193297,2.760214 -0.526147,6.947541 -0.669197,21.213749 -0.290609,28.982241 0.355302,7.290677 0.778302,12.571369 1.536279,19.178725 0.634291,5.529183 1.659607,12.511135 2.089618,14.229375 0.932824,3.72739 2.708864,6.84686 5.435566,9.54712 0.922155,0.91321 1.131934,1.09073 0.878771,0.74361 z M 68.07921,6.3120527 C 69.85705,6.2318478 71.174154,6.1035275 71.277197,6.0004855 71.29429,5.983392 71.22429,5.831304 71.121642,5.6625121 70.875047,5.2570199 70.158735,4.8122479 69.622856,4.7318879 68.922691,4.6268917 66.405304,4.9660875 65.842485,5.2412596 65.467417,5.4246374 64.958388,5.908773 64.7777,6.2539727 l -0.144336,0.2757506 0.69974,-0.062676 C 65.717962,6.4325758 66.953709,6.3628281 68.07921,6.3120527 Z M 74.479963,5.3123528 C 80.077038,4.7284416 83.83235,4.5025652 89.304303,4.4206914 93.220862,4.36209 93.31919,4.3561387 92.397646,4.2334676 89.680624,3.8717918 81.143793,4.065136 74.218307,4.6451976 72.19149,4.8149587 71.505683,4.8910244 71.505683,4.9460657 c 0,0.1329825 0.441216,0.6037028 0.565183,0.6029765 0.08177,-4.759e-4 1.16586,-0.1069894 2.409097,-0.2366894 z"
       id="path39" />
  </g>
</svg>
