<?xml version="1.0" encoding="UTF-8" standalone="no"?>
<!-- Created with Inkscape (http://www.inkscape.org/) -->

<svg
   width="500"
   height="500"
   viewBox="0 0 132.29166 132.29167"
   version="1.1"
   id="svg5"
   inkscape:version="1.1 (c68e22c387, 2021-05-23)"
   sodipodi:docname="learnmode.svg"
   xmlns:inkscape="http://www.inkscape.org/namespaces/inkscape"
   xmlns:sodipodi="http://sodipodi.sourceforge.net/DTD/sodipodi-0.dtd"
   xmlns="http://www.w3.org/2000/svg"
   xmlns:svg="http://www.w3.org/2000/svg">
  <sodipodi:namedview
     id="namedview7"
     pagecolor="#ffffff"
     bordercolor="#666666"
     borderopacity="1.0"
     inkscape:pageshadow="2"
     inkscape:pageopacity="0.0"
     inkscape:pagecheckerboard="0"
     inkscape:document-units="mm"
     showgrid="false"
     width="50mm"
     units="px"
     inkscape:zoom="1.0690236"
     inkscape:cx="445.73386"
     inkscape:cy="225.43937"
     inkscape:window-width="1368"
     inkscape:window-height="850"
     inkscape:window-x="-6"
     inkscape:window-y="-6"
     inkscape:window-maximized="1"
     inkscape:current-layer="layer1" />
  <defs
     id="defs2" />
  <g
     inkscape:label="Ebene 1"
     inkscape:groupmode="layer"
     id="layer1">
    <path
       style="fill:#000000;stroke-width:0.17394"
       d="M 62.03513,104.11224 C 56.523523,103.41341 51.036232,100.91022 45.724048,96.671461 41.70987,93.468424 36.650417,88.622639 31.986234,83.513816 30.501438,81.887473 29.197305,80.45959 29.088163,80.340742 c -0.157875,-0.171914 -0.499667,-0.163075 -1.67206,0.04325 -3.035465,0.534193 -5.852113,0.26407 -7.692796,-0.737754 C 18.511905,78.98691 17.096558,77.395065 16.633259,76.17085 16.181457,74.977015 15.992655,72.681628 16.264357,71.685868 16.36877,71.303199 16.974073,70.1291 17.60947,69.076761 l 1.15527,-1.913346 -0.218223,-0.782732 c -0.120022,-0.430502 -0.321015,-1.156685 -0.446654,-1.613738 -0.32562,-1.184555 -0.560971,-3.028199 -0.699519,-5.479754 -0.06606,-1.168945 -0.174122,-2.125353 -0.240132,-2.125353 -0.06601,0 -0.732109,0.156546 -1.48022,0.347881 -1.637794,0.418876 -4.473341,0.462849 -6.2032712,0.09619 C 7.6007223,57.208297 5.8180161,56.285623 4.6295646,55.097171 3.1528451,53.620453 2.822131,52.807085 2.816906,50.639066 2.812926,48.986312 2.85048,48.805514 3.5708237,47.009772 4.6680609,44.274471 6.3735893,41.042353 8.034779,38.550203 c 4.75859,-7.138929 9.744548,-11.615252 23.386827,-20.996361 2.917851,-2.00646 5.921555,-4.0921 6.674898,-4.634755 2.910628,-2.096616 5.944,-3.5689987 11.872829,-5.7630075 1.709324,-0.6325488 3.968868,-1.4684109 5.021208,-1.8574714 1.05234,-0.3890604 3.791902,-1.4335773 6.087917,-2.3211488 C 67.079611,0.65759031 68.292571,0.2209015 68.409729,0.33806008 68.676313,0.60464466 68.218125,0.93609431 66.880456,1.4443205 66.081038,1.7480472 63.077714,2.897499 60.2064,3.9986583 57.335088,5.0998173 53.695383,6.4674467 52.118168,7.0378346 45.343294,9.4879165 42.084895,10.981272 39.199934,12.958387 27.140501,21.222926 22.981652,24.203181 19.322718,27.20252 12.544499,32.758829 7.966369,38.644013 4.7054014,45.993076 c -1.5632439,3.522997 -1.751677,4.99823 -0.8804647,6.893112 0.5521455,1.200912 1.2204055,1.950102 2.4460404,2.742267 2.6435448,1.708607 6.3344299,2.105461 10.0302679,1.078481 l 0.969134,-0.269296 0.194347,-2.029585 c 0.518579,-5.415589 2.949369,-9.685924 7.127656,-12.521646 3.246325,-2.203218 25.43823,-11.999381 32.943172,-14.542088 8.019295,-2.716973 14.332508,-2.359915 21.110892,1.193971 2.682576,1.406467 13.440145,7.550667 17.029603,9.726482 1.521565,0.922324 2.793505,1.676953 2.826533,1.676953 0.03303,0 0.06005,-0.183163 0.06005,-0.407028 0,-0.939214 0.801426,-3.388878 2.506328,-7.660924 1.92155,-4.814899 2.34136,-6.072882 2.87096,-8.603013 0.4116,-1.966348 0.25223,-3.789646 -0.45468,-5.202058 -0.25138,-0.502259 -1.54527,-2.360312 -2.87532,-4.129007 -2.168239,-2.883318 -2.560376,-3.567851 -2.043856,-3.567851 0.175494,0 3.241546,3.990932 4.649936,6.052592 0.5025,0.735591 1.00869,1.611942 1.12486,1.947449 l 0.21122,0.610013 0.12097,-0.869703 c 0.22314,-1.604325 0.16155,-5.059986 -0.11374,-6.38094 -0.26427,-1.268122 -1.15542,-3.3801242 -1.82008,-4.3135559 -0.39646,-0.556776 -0.45715,-1.0464857 -0.1297,-1.0464857 0.29315,0 1.32172,1.5872166 1.81045,2.7937444 1.07353,2.6502512 1.30802,5.2416592 0.84898,9.3823952 -0.58783,5.302513 -1.22555,7.695135 -3.65919,13.72858 -2.6423,6.550757 -2.608738,6.337963 -2.800273,17.75434 -0.135146,8.055331 -0.03401,9.115945 1.0947,11.480071 0.903363,1.89213 2.793963,3.750729 4.764713,4.684059 3.84046,1.81881 8.52608,1.554293 11.11926,-0.627719 1.51837,-1.277629 2.49128,-3.469251 4.25167,-9.577519 1.34165,-4.655299 2.40928,-7.633247 4.69307,-13.090452 2.10858,-5.038516 2.6872,-6.519522 3.57028,-9.138229 0.45282,-1.342836 1.28456,-3.523745 1.8483,-4.846465 0.97211,-2.280895 1.02769,-2.369055 1.07751,-1.709146 0.0389,0.515972 -0.14631,1.161651 -0.71682,2.49827 -0.42314,0.991358 -1.17709,3.003832 -1.67545,4.472165 -0.49835,1.468334 -1.83403,4.910886 -2.96818,7.650116 -1.13415,2.73923 -2.04006,5.00245 -2.01313,5.029379 0.0589,0.05894 5.55946,-2.903312 6.53731,-3.520604 0.82852,-0.523018 0.87071,-0.527951 0.87071,-0.101792 0,0.403266 -0.20454,0.532759 -4.51058,2.855553 l -3.37996,1.823246 -0.76997,2.059692 c -0.42349,1.132829 -1.30808,3.938247 -1.96577,6.234261 -1.81488,6.335885 -2.48013,7.829868 -4.27861,9.608761 -0.76449,0.756163 -1.09763,1.217467 -1.09763,1.519899 0,0.729824 -1.04134,3.740677 -1.86615,5.395686 -0.42911,0.861005 -1.20421,2.206589 -1.72245,2.990186 -1.21264,1.833557 -4.30619,5.098046 -4.83109,5.098046 -0.38805,0 -0.79916,-0.293205 -0.79916,-0.569962 0,-0.08388 0.80379,-0.987933 1.7862,-2.009012 2.15294,-2.237689 3.20275,-3.628004 1.58903,-2.104436 -1.93086,1.822993 -3.26048,2.944005 -3.49184,2.944005 -0.54892,0 -0.11521,-0.562298 1.61944,-2.099582 2.51389,-2.227871 4.34803,-4.230314 4.92766,-5.379859 0.54672,-1.084258 1.51134,-3.944103 1.37599,-4.07945 -0.049,-0.04904 -0.35794,-0.0092 -0.68644,0.08845 -2.79055,0.829877 -6.40939,0.415606 -9.24268,-1.058068 l -0.99204,-0.515984 -2.47987,1.81604 c -2.941246,2.153908 -3.214061,2.315476 -3.472848,2.056689 -0.136583,-0.136583 0.11908,-0.412538 0.916701,-0.989459 0.608361,-0.440027 1.875442,-1.363834 2.815737,-2.052901 l 1.70963,-1.252848 -0.56289,-0.45941 -0.5629,-0.459409 -1.10067,0.877263 c -1.734699,1.382592 -4.128747,3.064757 -4.36721,3.068599 -0.51544,0.0083 -0.142927,-0.556043 0.782732,-1.185815 1.522496,-1.035828 4.218058,-3.152158 4.218058,-3.311665 0,-0.07782 -0.1542,-0.281039 -0.34266,-0.451593 -0.33271,-0.301099 -0.37074,-0.284434 -1.310307,0.574282 -1.098352,1.003833 -3.634983,2.935013 -4.206434,3.202429 -0.523858,0.245144 -0.924279,0.05086 -0.924279,-0.448461 0,-0.328112 0.400898,-0.718102 1.86986,-1.818982 1.028423,-0.770729 2.239191,-1.779091 2.690598,-2.240804 l 0.820738,-0.83948 -0.385887,-0.996775 c -0.236383,-0.610593 -0.489745,-0.997926 -0.653953,-0.999747 -0.272866,-0.003 -3.975027,-2.662745 -4.208238,-3.023298 -0.260036,-0.402027 -0.132596,-1.134883 0.24311,-1.398038 0.206925,-0.144935 0.44455,-0.221295 0.528055,-0.169685 0.08351,0.05161 0.72715,-0.264748 1.430321,-0.703016 0.703172,-0.438267 1.356976,-0.796851 1.452897,-0.796851 0.171194,0 0.494463,-7.275096 0.362419,-8.156199 C 98.13971,45.538472 96.91233,44.694142 91.778953,41.46441 76.672176,31.95978 74.625624,30.800144 71.753354,30.117345 68.16217,29.263643 62.583987,29.858295 57.991891,31.584362 52.40792,33.683251 37.479617,40.25204 32.564259,42.77309 c -1.951607,1.000965 -3.540407,2.411147 -4.380761,3.888262 -0.45772,0.804553 -0.507518,1.046061 -0.504719,2.447852 0.0028,1.382081 0.05356,1.631285 0.456298,2.23831 0.249255,0.375692 2.257053,2.561633 4.461777,4.857647 8.789958,9.153928 17.695737,17.110937 22.933205,20.490037 4.948801,3.19286 9.853886,4.318864 14.763103,3.388992 0.571725,-0.108292 0.928577,-0.23387 0.793005,-0.27906 -0.135573,-0.04519 -1.309435,-0.990372 -2.608584,-2.100401 -1.299149,-1.110029 -2.588758,-2.183323 -2.865796,-2.385096 -0.372809,-0.271524 -0.503708,-0.510345 -0.503708,-0.918986 0,-0.68067 0.184499,-0.876921 0.910827,-0.968844 0.311137,-0.03938 1.072918,-0.389616 1.692848,-0.77831 0.619931,-0.388696 1.315319,-0.706719 1.545308,-0.706719 0.275872,0 1.234251,0.670626 2.816486,1.970838 1.31908,1.083962 2.604944,2.022564 2.857477,2.085785 0.487825,0.122125 0.720542,0.483422 0.567784,0.8815 -0.05102,0.13295 -0.908437,0.764785 -1.905377,1.404076 -0.99694,0.639288 -1.858361,1.23636 -1.914271,1.326821 -0.136312,0.220559 1.834557,-0.530035 3.195088,-1.216828 2.159532,-1.090129 10.528233,-6.133067 14.734314,-8.878825 1.552097,-1.013219 2.083419,-1.08275 2.083419,-0.272643 0,0.481582 -0.211198,0.652705 -2.956988,2.395881 -4.044915,2.567928 -10.60241,6.50928 -12.63437,7.593827 -5.17469,2.761961 -10.374,3.22117 -15.59856,1.377685 C 54.401267,78.462226 46.939928,72.517687 34.192984,59.654128 26.38641,51.776136 26.350486,51.729363 26.34796,49.440035 c -0.001,-0.955843 0.07225,-1.290988 0.361442,-1.652434 0.19952,-0.249372 0.556574,-0.818491 0.793453,-1.264711 0.567886,-1.069748 2.144859,-2.75692 3.274456,-3.503276 2.381259,-1.573359 22.933624,-10.658806 27.95295,-12.356971 4.821662,-1.631291 9.8743,-2.018364 13.653917,-1.046002 2.647103,0.681005 4.396616,1.680992 19.170469,10.957469 3.559823,2.235205 6.553773,4.06401 6.653224,4.06401 0.09945,0 0.179851,-0.254388 0.178666,-0.565307 -0.0018,-0.460618 -0.122548,-0.643407 -0.652276,-0.987042 -5.728292,-3.715945 -18.981654,-11.884673 -21.278498,-13.115034 -3.842119,-2.058126 -8.151327,-2.500579 -13.744674,-1.41125 -2.563239,0.499202 -3.450203,0.775715 -7.198727,2.244227 -5.597034,2.192678 -20.036503,8.587516 -24.967773,11.057531 -2.361966,1.183081 -4.13285,2.912087 -5.160127,5.038101 -0.668766,1.384057 -0.672793,3.073448 -0.01002,4.200897 0.923662,1.571227 11.599846,12.373988 17.701168,17.911032 4.583132,4.159263 9.349111,7.946768 12.409364,9.861673 6.596197,4.127465 13.555949,4.720023 19.848013,1.689872 1.678555,-0.808364 9.916773,-5.707503 14.32216,-8.517164 1.609983,-1.026814 2.76413,-1.656089 2.924527,-1.594538 0.520362,0.199682 0.269792,0.377783 -6.012233,4.273437 -11.747961,7.285229 -14.242,8.35441 -19.488038,8.35441 -5.363303,0 -10.20017,-2.000451 -16.350405,-6.762265 C 44.815593,71.738249 36.369284,63.866813 28.41594,55.522315 24.508393,51.422593 24.219,50.951046 24.315624,48.841139 c 0.08806,-1.922954 0.808107,-3.322124 2.658844,-5.166601 1.61996,-1.61448 2.114083,-1.891881 9.05656,-5.084325 9.639003,-4.432421 18.455395,-8.202341 22.21591,-9.499597 5.123225,-1.767347 10.968695,-2.212711 14.917226,-1.136534 1.88532,0.513844 3.675865,1.405653 7.676602,3.823448 2.877621,1.739052 15.185432,9.434604 17.069588,10.672888 l 0.478337,0.314366 -0.0025,-0.672281 -0.0025,-0.672282 -4.128599,-2.464142 C 85.357513,33.645574 76.987654,29.00918 74.841839,28.202307 72.16513,27.195804 70.919718,26.999392 67.253345,27.005536 c -4.019295,0.0067 -5.308271,0.235452 -9.662702,1.714576 -5.64003,1.91582 -23.567564,9.683786 -30.430579,13.185513 -2.241715,1.143792 -3.576594,2.430058 -4.531823,4.366786 -0.604961,1.226562 -0.677856,1.514781 -0.681883,2.696077 -0.0036,1.046909 0.08159,1.49758 0.408442,2.16145 1.050529,2.133747 16.238866,17.156624 23.422547,23.167381 9.311512,7.791166 14.509099,10.34711 21.041146,10.34711 3.447807,0 6.417585,-0.754764 9.592823,-2.438002 2.635125,-1.396916 11.738217,-6.89965 15.794652,-9.547718 1.409787,-0.920319 1.899386,-1.0844 1.803479,-0.604408 -0.0613,0.306801 -8.740979,5.797542 -13.963121,8.833031 -4.912034,2.855233 -7.241954,3.792767 -10.618725,4.272858 C 65.482227,85.721122 60.8967,84.873013 56.710541,82.808124 50.280347,79.636328 40.455615,71.15913 26.080365,56.379102 21.71444,51.890241 21.309873,51.276603 21.30872,49.141576 c -3.48e-4,-0.721383 0.117003,-1.613065 0.267498,-2.031833 0.367174,-1.021715 0.06989,-0.771298 -0.741347,0.624463 -1.552808,2.671677 -2.11116,5.229481 -2.11043,9.667838 5.22e-4,3.644107 0.24145,5.814474 0.777071,7.002384 1.349024,2.991893 5.586298,7.992758 15.296028,18.052496 6.238398,6.463275 11.983252,11.766283 14.821334,13.681403 2.732348,1.843769 6.990023,3.589599 10.589881,4.342303 7.119377,1.48863 13.383849,0.54845 19.046483,-2.858502 3.786637,-2.278248 11.446336,-7.513957 16.663794,-11.390367 2.468766,-1.834218 2.482932,-1.848653 1.866873,-1.902406 -0.982409,-0.08572 -1.138143,-0.492939 -0.943827,-2.467974 0.193667,-1.968439 0.07495,-3.464028 -0.410861,-5.176216 -0.292078,-1.029385 -0.320621,-1.345113 -0.154559,-1.709583 0.258417,-0.56716 0.65026,-0.448067 0.581452,0.176721 -0.02865,0.260129 0.08607,0.917242 0.254931,1.460249 0.235451,0.757152 0.30841,1.607309 0.312997,3.647189 0.0059,2.613517 0.01282,2.661627 0.398614,2.758738 0.21968,0.0553 0.572104,-0.01876 0.800065,-0.168126 0.328179,-0.21503 0.429439,-0.477491 0.520556,-1.349244 0.06222,-0.595256 0.11312,-1.485648 0.11312,-1.978651 0,-0.94221 0.207692,-1.313827 0.734279,-1.313827 0.583048,0 0.711528,0.680372 0.513078,2.717071 -0.10094,1.035949 -0.16439,1.902682 -0.141,1.926076 0.0234,0.02339 0.52324,-0.346424 1.11076,-0.821813 1.04539,-0.845859 1.69106,-1.10179 1.57884,-0.625814 C 102.81523,82.418342 82.333073,96.859202 77.917702,99.126638 70.026958,103.17879 59.472655,102.55205 50.620168,97.50564 48.917621,96.535094 47.639432,95.567786 44.981602,93.23848 38.303594,87.385919 24.272915,72.632949 20.75979,67.769747 c -0.186306,-0.257903 -0.151208,-0.124355 0.08697,0.330932 0.472301,0.902817 3.680423,4.938593 6.928872,8.716429 9.039094,10.512155 17.49695,18.499646 23.377474,22.077384 7.916038,4.816148 17.589973,5.449808 25.595409,1.676548 3.401948,-1.60347 18.645997,-11.960464 24.971685,-16.966072 0.97885,-0.774575 1.89325,-1.385913 2.032,-1.358528 0.34807,0.0687 0.62709,0.555886 0.50323,0.878664 -0.42454,1.106347 -21.718955,15.974942 -26.146716,18.256666 -2.648263,1.36471 -5.737341,2.30444 -8.998095,2.73731 -1.563172,0.20751 -5.414258,0.20379 -7.075489,-0.007 z M 27.29256,79.765461 c 0.486537,-0.09227 0.920026,-0.203176 0.963308,-0.246458 0.04328,-0.04328 -0.42722,-0.649347 -1.045561,-1.34681 -1.43215,-1.615405 -5.25936,-6.230263 -6.186454,-7.459638 -0.389895,-0.51702 -0.980512,-1.391636 -1.312482,-1.943591 l -0.603584,-1.003557 -1.105105,1.873259 -1.105106,1.873257 v 1.913345 c 0,2.232024 0.270451,3.017793 1.496474,4.347872 1.118493,1.213421 2.553385,1.939537 4.417502,2.235445 0.699093,0.110972 3.381201,-0.03455 4.481008,-0.243124 z m 44.881526,-2.110999 0.863597,-0.554167 -0.761398,-0.658226 c -0.418769,-0.362022 -0.843916,-0.660559 -0.94477,-0.663414 -0.100854,-0.0029 -0.554822,0.230377 -1.008818,0.518292 l -0.825445,0.523483 0.80197,0.694101 c 0.441085,0.381756 0.849062,0.6941 0.906619,0.6941 0.05756,0 0.493268,-0.249376 0.968245,-0.554169 z m 1.764348,-1.166436 c 0.125888,-0.203689 -4.369548,-3.845984 -4.744187,-3.843837 -0.457044,0.0026 -2.462724,1.351799 -2.462724,1.656626 0,0.303178 0.04821,0.283664 1.161954,-0.470297 0.399905,-0.270721 0.923607,-0.49222 1.163778,-0.49222 0.410914,0 1.828104,1.030349 3.675215,2.672013 0.706499,0.627918 1.033161,0.757318 1.205964,0.477715 z m -4.00526,-0.671076 c 0.433392,-0.263085 0.790459,-0.53027 0.793482,-0.593744 0.0085,-0.1776 -1.424592,-1.189146 -1.684659,-1.189146 -0.126555,0 -0.556272,0.205904 -0.954926,0.457563 l -0.724826,0.457561 0.721547,0.673052 c 0.396851,0.370178 0.798013,0.67305 0.891473,0.67305 0.09346,0 0.524518,-0.215251 0.957909,-0.478336 z M 98.136809,57.119406 c -0.06758,-0.597339 -0.152375,-1.115572 -0.188433,-1.151628 -0.08876,-0.08876 -1.646268,0.903029 -1.64666,1.048553 -5.22e-4,0.188063 1.438097,1.189146 1.708858,1.189146 0.20271,0 0.226223,-0.202302 0.126235,-1.086071 z M 96.56425,55.961154 c 0.41148,-0.277706 0.912039,-0.556936 1.112353,-0.620513 0.357907,-0.113596 0.521157,-0.613974 0.200311,-0.613974 -0.262497,0 -2.445211,1.414752 -2.445211,1.584894 0,0.278117 0.371615,0.16314 1.132547,-0.350407 z M 62.623665,98.453909 c -0.207375,-0.826248 0.689434,-11.301377 0.995385,-11.626527 0.450445,-0.478714 0.485598,0.312437 0.150632,3.390197 -0.192195,1.765964 -0.399218,4.443647 -0.460048,5.950406 -0.08496,2.10452 -0.16409,2.739563 -0.341357,2.739563 -0.126917,0 -0.281992,-0.204137 -0.344612,-0.453639 z M 102.56326,79.167588 C 95.627386,71.569838 89.952577,65.258474 89.952577,65.142336 c 0,-0.116138 0.08318,-0.238888 0.184847,-0.272777 0.101665,-0.03389 5.880256,6.169081 12.841316,13.784374 11.58866,12.677829 13.03986,14.364702 12.33112,14.333692 -0.0747,-0.0033 -5.81072,-6.222288 -12.7466,-13.820037 z M 53.926352,72.610385 C 48.697125,68.091323 36.491371,57.217928 36.300353,56.908406 c -0.208849,-0.338411 -0.213184,-0.456512 -0.02507,-0.683175 0.125085,-0.15072 0.403535,-0.25946 0.618775,-0.241647 0.327367,0.0271 20.695962,-9.934577 20.570249,-10.060293 -0.02302,-0.02302 -0.485844,0.108033 -1.028493,0.29123 -1.362281,0.459904 -3.580128,0.601791 -5.390255,0.344843 -1.301566,-0.184756 -1.561662,-0.176543 -2.026845,0.06401 -0.293516,0.151782 -0.688763,0.275969 -0.878325,0.275969 -0.406219,0 -4.021128,-3.035435 -4.021128,-3.376536 0,-0.339287 0.360279,-0.584899 0.956672,-0.652188 0.48826,-0.05509 0.528915,-0.116987 0.632097,-0.962367 0.190562,-1.561275 1.093203,-2.601312 2.979414,-3.432928 1.288132,-0.567926 2.516447,-0.794826 4.302781,-0.794826 3.361094,0 6.055028,1.179454 6.95898,3.046767 0.20714,0.427897 0.448121,0.822186 0.53551,0.876194 0.255769,0.158075 0.176445,0.978878 -0.167851,1.736838 -0.175505,0.386372 -0.695139,1.033495 -1.15474,1.438052 -0.736518,0.64831 -0.01218,0.330659 6.106443,-2.677926 3.818145,-1.877416 8.05721,-3.95353 9.420147,-4.613587 l 2.478064,-1.200102 8.797683,5.828126 c 4.838725,3.205469 8.902796,5.828126 9.031267,5.828126 0.783579,0 1.070202,0.746333 0.47946,1.248459 -0.325996,0.277094 -29.866718,17.711053 -30.01024,17.711053 -0.04705,0 -2.423033,1.379574 -5.279972,3.06572 -2.85694,1.686146 -5.283745,3.100163 -5.3929,3.142262 -0.109156,0.0421 -0.49873,-0.182945 -0.865724,-0.500098 z m 3.064504,-2.288218 c 1.74466,-1.052601 1.824399,-1.126513 1.782228,-1.651991 -0.03521,-0.438765 0.02229,-0.550092 0.284109,-0.550092 0.181002,0 0.368708,0.154687 0.418429,0.344825 0.104591,0.399952 -1.023144,1.037212 19.125612,-10.807503 l 12.826383,-7.540161 -0.104601,-0.565307 c -0.08274,-0.447166 -0.04603,-0.565306 0.175668,-0.565306 0.154148,0 0.281467,0.05871 0.282931,0.130455 0.0014,0.07175 0.07142,0.23902 0.155448,0.371709 0.122822,0.193942 0.363784,0.113077 1.228727,-0.412347 0.591768,-0.359481 1.011024,-0.714653 0.931681,-0.789272 -0.07934,-0.07462 -3.822789,-2.566099 -8.318766,-5.536623 -6.651752,-4.39486 -8.194099,-5.345832 -8.279697,-5.105048 -0.05786,0.162749 -0.150356,0.584892 -0.205553,0.938099 -0.09673,0.618981 -0.08038,0.644131 0.452376,0.695762 0.722034,0.06998 0.643702,0.366978 -0.139718,0.529748 -0.339627,0.07056 -0.926264,0.285815 -1.303635,0.478336 -0.817576,0.417095 -1.047871,0.43746 -1.047871,0.09266 0,-0.141557 0.313093,-0.417103 0.695762,-0.612326 l 0.695762,-0.354952 V 38.35823 c 0,-0.580031 -0.06864,-1.028512 -0.152537,-0.996621 -0.608152,0.231159 -13.180323,6.422941 -24.840279,12.233812 l -13.960991,6.957619 0.947655,0.833055 0.947657,0.833057 0.542107,-0.280335 c 0.29816,-0.154184 0.657942,-0.235884 0.799517,-0.181555 0.397802,0.15265 0.211547,0.853456 -0.255938,0.962986 -0.352486,0.08259 -0.0696,0.388293 2.29769,2.483018 1.748877,1.547515 2.790964,2.353802 2.958889,2.289363 0.177246,-0.06802 0.33826,0.0897 0.509164,0.498729 0.137469,0.32901 0.499258,0.775727 0.803975,0.992704 0.545895,0.388712 0.564091,0.389969 1.239036,0.08561 0.772845,-0.348505 0.78229,-0.345401 0.947087,0.311202 0.111579,0.444562 0.08216,0.47798 -0.420712,0.47798 -0.297374,0 -0.535844,0.05871 -0.529936,0.130455 0.02547,0.309339 5.412445,4.830718 5.816497,4.881887 0.239039,0.03027 0.434618,0.167249 0.434618,0.304395 0,0.42616 0.374804,0.284701 2.261226,-0.853428 z m -4.254937,-1.781563 c -0.161872,-0.247049 -0.574456,-0.759266 -0.916852,-1.138256 -0.46689,-0.516791 -0.572837,-0.738774 -0.423754,-0.887856 0.149081,-0.149081 0.313973,-0.09281 0.659511,0.225068 0.623415,0.573513 1.457223,1.726712 1.457223,2.015414 0,0.391296 -0.463087,0.263389 -0.776128,-0.21437 z m 1.850689,-1.477118 c -0.969268,-1.146153 -1.070159,-1.379226 -0.596225,-1.377388 0.318718,0.0012 1.86986,1.752414 1.86986,2.110998 0,0.505902 -0.439495,0.252753 -1.273635,-0.73361 z m 2.329243,-1.836883 c -0.785395,-0.878098 -0.965809,-1.178453 -0.803229,-1.33723 0.161987,-0.158197 0.424171,0.02455 1.152747,0.803497 0.896994,0.959004 1.114731,1.387245 0.80323,1.579764 -0.07691,0.04754 -0.595649,-0.423179 -1.152748,-1.046031 z M 51.172459,63.95944 c -0.103954,-0.168199 0.69863,-0.88363 0.991271,-0.88363 0.103668,0 0.123442,-0.312026 0.05057,-0.79798 -0.106792,-0.712138 -0.08553,-0.7915 0.197675,-0.737759 0.197009,0.03739 0.33821,0.241036 0.372379,0.537069 0.05874,0.508934 0.344851,0.614272 0.704615,0.259423 0.176682,-0.174267 0.269905,-0.150404 0.46964,0.120216 0.387642,0.525213 0.304335,0.792972 -0.246714,0.792972 -0.272753,0 -0.863945,0.195683 -1.313759,0.434851 -0.893217,0.474929 -1.076601,0.51605 -1.225677,0.274838 z m 15.618312,-1.05757 c 0.04562,-0.239168 0.216872,-1.217584 0.380557,-2.174256 0.163685,-0.956673 0.389197,-1.83757 0.501138,-1.957549 0.159306,-0.170743 0.400921,0.08723 1.111939,1.187227 0.499625,0.772955 0.855648,1.490738 0.791165,1.595076 -0.07332,0.118636 -0.254203,0.01794 -0.482822,-0.268771 l -0.365576,-0.458477 -0.736915,0.439443 c -0.581639,0.346848 -0.736912,0.540309 -0.736912,0.918158 0,0.263294 -0.122743,0.630656 -0.272762,0.816359 -0.263483,0.326156 -0.26994,0.322849 -0.189812,-0.09721 z m 1.680157,-2.43543 c 0,-0.0909 -0.148763,-0.409889 -0.330583,-0.708868 -0.364568,-0.599488 -0.39728,-0.559318 -0.620558,0.762077 l -0.111814,0.661737 0.531476,-0.274838 c 0.292314,-0.151161 0.531479,-0.34921 0.531479,-0.440108 z m -23.985486,0.913451 c -0.09233,-0.167418 -0.48388,-0.617489 -0.870101,-1.000158 -0.790003,-0.782738 -0.910896,-1.183502 -0.331589,-1.099226 0.414742,0.06034 1.879152,1.735335 1.879152,2.149384 0,0.35394 -0.473974,0.318957 -0.677462,-0.05 z m 3.077917,-0.311117 c -0.138699,-0.30441 -0.286122,-0.405522 -0.474607,-0.325513 -0.150377,0.06383 -0.449529,0.154254 -0.66478,0.200938 -0.55706,0.120816 -0.509936,-0.367632 0.06054,-0.62756 0.333082,-0.151763 0.418674,-0.284879 0.325512,-0.506255 -0.44071,-1.04725 -0.19438,-1.436776 0.396036,-0.626264 0.29274,0.401867 0.37982,0.431642 0.723862,0.247517 0.2151,-0.115119 0.521952,-0.158404 0.681894,-0.09619 0.24806,0.09649 0.217144,0.176814 -0.210322,0.546476 -0.442851,0.382965 -0.478249,0.48357 -0.304396,0.865137 0.264143,0.579729 0.247811,0.763287 -0.06791,0.763287 -0.145551,0 -0.355176,-0.198708 -0.465833,-0.441572 z m 8.211078,0.224146 c 0.0016,-0.299443 2.389834,-1.576147 2.714981,-1.451376 0.390382,0.149802 0.183039,0.356331 -1.050037,1.045905 -1.162785,0.650268 -1.666912,0.773039 -1.664944,0.405471 z m 14.199756,-0.681011 c 0.354659,-2.217917 0.693595,-3.689782 0.862616,-3.746005 0.171119,-0.05692 1.982631,2.487404 1.982631,2.784663 0,0.249753 -0.39043,0.106368 -0.678263,-0.249091 -0.282504,-0.348878 -0.328381,-0.354364 -0.823283,-0.09844 -0.689034,0.356314 -0.864572,0.597352 -1.005792,1.381093 -0.163628,0.908096 -0.483729,0.839683 -0.337909,-0.07222 z m 1.26617,-1.694334 0.421241,-0.323811 -0.368109,-0.581387 c -0.396708,-0.626556 -0.44933,-0.578697 -0.64264,0.584466 -0.121712,0.732348 -0.0188,0.78834 0.589508,0.320732 z m 1.864759,-0.219012 c 0.345392,-2.159965 0.691086,-3.688456 0.844931,-3.735867 0.248126,-0.07647 2.036541,2.695568 1.891005,2.931048 -0.07803,0.126251 -0.256751,0.02518 -0.504183,-0.285132 l -0.383305,-0.480714 -0.694846,0.438636 c -0.570637,0.360229 -0.715109,0.565364 -0.808209,1.147581 -0.06235,0.389921 -0.191639,0.708945 -0.287306,0.708945 -0.106662,0 -0.12913,-0.280225 -0.05809,-0.724497 z m 1.6257,-1.97158 c 1.3e-4,-0.09567 -0.192245,-0.40876 -0.427496,-0.695762 l -0.427732,-0.521821 -0.0063,0.456593 c -0.0034,0.251127 -0.05562,0.703429 -0.11596,1.005115 l -0.109704,0.548522 0.543456,-0.309354 c 0.2989,-0.170143 0.543561,-0.387626 0.543691,-0.483293 z m -24.416791,1.191468 c -0.686004,-0.918448 -0.938044,-1.386527 -0.813591,-1.510979 0.236084,-0.236085 0.878429,0.365944 1.681742,1.576186 0.549325,0.827591 0.639589,1.265462 0.260869,1.265462 -0.07432,0 -0.582376,-0.598801 -1.12902,-1.330669 z m 10.157108,0.852332 c 0.0016,-0.331182 2.498422,-1.776141 2.707613,-1.566949 0.257375,0.257374 -0.12289,0.62271 -1.282318,1.231973 -1.400006,0.735681 -1.427266,0.742088 -1.425295,0.334976 z m -17.569462,-2.02737 c 0,-0.39302 3.158426,-1.878136 3.852838,-1.811633 0.863367,0.08268 0.772275,0.552306 -0.130506,0.672815 -0.392234,0.05236 -1.264685,0.385021 -1.938782,0.739247 -1.306577,0.686587 -1.78355,0.793444 -1.78355,0.399571 z m 16.406451,-0.539615 c 0.05842,-0.190585 0.311092,-1.227091 0.561485,-2.303348 0.294358,-1.265232 0.535766,-1.95683 0.683049,-1.95683 0.125284,0 0.590341,0.639913 1.03346,1.422029 0.601547,1.061749 0.749765,1.456581 0.585014,1.558404 -0.143457,0.08866 -0.299071,-0.01329 -0.444795,-0.291418 -0.269775,-0.514883 -0.235159,-0.512308 -1.081682,-0.08045 -0.536902,0.273908 -0.704771,0.47486 -0.793997,0.950476 -0.06223,0.331723 -0.233661,0.703149 -0.380954,0.825391 -0.22878,0.18987 -0.252327,0.171762 -0.16158,-0.124258 z m 1.850008,-2.481755 c -0.004,-0.06929 -0.148602,-0.391217 -0.32132,-0.715386 l -0.314029,-0.589397 -0.105124,0.52562 c -0.05782,0.289091 -0.158375,0.737786 -0.223458,0.997102 l -0.118335,0.471481 0.54478,-0.281716 c 0.299628,-0.154944 0.541497,-0.33841 0.537486,-0.407704 z m 3.836922,2.526604 c 0.0042,-0.310479 2.800306,-1.745298 3.00407,-1.541534 0.258692,0.258691 0.02111,0.480337 -1.223005,1.140963 -1.21009,0.64256 -1.786088,0.772106 -1.781065,0.400571 z M 47.540091,54.610706 c -0.254386,-0.254386 -0.06589,-0.426703 1.120131,-1.023973 1.134256,-0.571202 1.90388,-0.688384 1.632009,-0.248486 -0.09356,0.151373 -2.386794,1.38842 -2.573858,1.38842 -0.03428,0 -0.114505,-0.05218 -0.178282,-0.115961 z m 15.024942,-0.06668 c 0.02029,-0.633263 0.987276,-4.23675 1.151618,-4.291531 0.101395,-0.0338 0.521448,0.508992 0.93345,1.206201 0.412001,0.697209 0.814048,1.293743 0.893437,1.325631 0.07939,0.03189 0.144342,0.168869 0.144342,0.304396 0,0.39899 -0.458223,0.282417 -0.771944,-0.196382 l -0.290133,-0.4428 -0.723091,0.399315 c -0.554429,0.306173 -0.750781,0.53493 -0.841811,0.980735 -0.126679,0.620389 -0.510578,1.173502 -0.495868,0.714435 z m 1.462229,-2.10651 c 0.520505,-0.237157 0.520221,-0.23468 0.113783,-0.997566 -0.354459,-0.66532 -0.447825,-0.596315 -0.622644,0.460181 -0.134995,0.815817 -0.125119,0.826246 0.508861,0.537385 z m 5.83519,1.195138 c 0,-0.222019 2.207419,-1.515098 2.586427,-1.515098 0.536768,0 0.07625,0.559195 -0.918769,1.115642 -1.171022,0.654872 -1.667658,0.773832 -1.667658,0.399456 z m -3.944586,-0.733729 c 0.05842,-0.190585 0.311093,-1.227091 0.561485,-2.303348 0.302123,-1.298603 0.534022,-1.95683 0.689413,-1.95683 0.179752,0 1.414366,1.941513 1.794995,2.822751 0.133231,0.308459 -0.470499,0.103964 -0.696077,-0.235775 l -0.245679,-0.370009 -0.724227,0.369472 c -0.580813,0.296309 -0.746634,0.488908 -0.837376,0.972606 -0.06223,0.331723 -0.233661,0.703149 -0.380954,0.825391 -0.22878,0.189869 -0.252326,0.171762 -0.16158,-0.124258 z m 1.8573,-2.521036 c 0,-0.0909 -0.146066,-0.405457 -0.324594,-0.69902 l -0.324592,-0.533752 -0.101851,0.509254 c -0.05602,0.280091 -0.155102,0.721422 -0.220186,0.980738 l -0.118335,0.471481 0.54478,-0.281716 c 0.299628,-0.154944 0.544778,-0.356087 0.544778,-0.446985 z m -15.729855,1.758693 c -0.192554,-0.311559 2.454667,-1.709778 2.725094,-1.439351 0.268648,0.268648 0.01743,0.516233 -1.092129,1.076337 -1.06427,0.537241 -1.469598,0.627348 -1.632965,0.363014 z m 22.460964,-0.825339 c -0.251233,-0.251231 -0.08756,-0.40557 1.161112,-1.094847 1.388196,-0.766302 1.674506,-0.844193 1.674506,-0.455549 0,0.138819 -0.489208,0.525527 -1.087128,0.859351 -1.330309,0.742724 -1.592993,0.846543 -1.74849,0.691045 z m -17.8633,-1.539697 c 0,-0.318511 2.371611,-1.542288 2.725611,-1.406446 0.402509,0.154458 0.117881,0.412775 -1.168746,1.06071 -1.336406,0.673004 -1.556865,0.721961 -1.556865,0.345736 z m 32.053187,-0.292267 c -0.313768,-0.313767 -0.422062,-0.339695 -0.645231,-0.15448 -0.147498,0.122413 -0.398311,0.172633 -0.557361,0.111601 -0.256967,-0.09861 -0.245866,-0.157077 0.09966,-0.524871 0.329264,-0.350485 0.357437,-0.472577 0.183883,-0.796867 -0.154108,-0.287953 -0.155475,-0.432277 -0.0055,-0.581717 0.149688,-0.149167 0.28155,-0.09027 0.528544,0.236099 0.263438,0.348092 0.372617,0.391471 0.547219,0.217426 0.299146,-0.298195 0.844305,-0.274068 0.844305,0.03737 0,0.140135 -0.157541,0.339104 -0.350092,0.442153 -0.277698,0.14862 -0.313667,0.255426 -0.17394,0.516508 0.208958,0.390442 0.231563,0.873833 0.04086,0.873833 -0.07441,0 -0.30496,-0.169672 -0.512337,-0.377051 z m -9.614865,-0.91178 c 0,-0.365639 2.598725,-1.748116 2.837394,-1.509447 0.245933,0.245933 0.107754,0.371695 -1.245155,1.133268 -1.186855,0.668098 -1.592239,0.763873 -1.592239,0.376179 z m -17.87731,-1.189821 c 0.03715,-0.119584 0.638513,-0.518815 1.336355,-0.887183 0.964827,-0.509298 1.316752,-0.621091 1.468926,-0.466627 0.237841,0.241421 -0.07112,0.511455 -1.316079,1.15026 -0.891741,0.457564 -1.598115,0.554113 -1.489202,0.20355 z m 27.999467,-0.760339 c -0.815426,-0.827596 -1.015743,-1.283461 -0.563978,-1.283461 0.311608,0 1.921893,1.61663 1.921893,1.929464 0,0.532016 -0.371227,0.355413 -1.357915,-0.646003 z m -6.017934,-0.21292 c -0.219904,-0.355814 -0.318276,-1.633617 -0.134506,-1.747194 0.106236,-0.06566 0.239031,-0.546888 0.295099,-1.069399 L 83.448056,42.637804 82.6562,42.166161 c -0.869509,-0.517897 -0.926104,-0.503738 -0.512101,0.128111 0.258265,0.394159 0.257413,0.435533 -0.0111,0.538567 -0.192858,0.07401 -0.388508,-0.02795 -0.580723,-0.302624 -0.159432,-0.227827 -0.532755,-0.688188 -0.829605,-1.023024 -0.296851,-0.334835 -0.588236,-0.742578 -0.647521,-0.906094 -0.05929,-0.163516 -0.365745,-0.364144 -0.681017,-0.445839 -0.594534,-0.154059 -0.842876,-0.622776 -0.507604,-0.958048 0.217046,-0.217047 5.23828,3.038754 5.240185,3.397768 6.96e-4,0.119221 -0.09112,0.822953 -0.20389,1.563847 -0.112771,0.740894 -0.160949,1.391171 -0.107062,1.445058 0.05389,0.05389 0.486955,-0.141365 0.962375,-0.433895 0.935217,-0.575442 1.95654,-0.716883 1.95654,-0.270957 0,0.1435 -0.130649,0.26091 -0.290332,0.26091 -0.159682,0 -0.70641,0.23482 -1.214948,0.521822 -0.508539,0.287001 -1.043213,0.521821 -1.188163,0.521821 -0.14495,0 -0.263546,0.07827 -0.263546,0.173941 0,0.211238 -0.465181,0.232365 -0.59217,0.02689 z M 66.035761,45.075157 c 0,-0.145878 0.529164,-0.525206 1.213242,-0.869702 1.349456,-0.679575 1.569806,-0.729021 1.569806,-0.352254 0,0.145879 -0.529163,0.525207 -1.213242,0.869703 -1.349456,0.679575 -1.569806,0.729021 -1.569806,0.352253 z M 78.916833,43.60843 c -0.758678,-1.117202 -0.85076,-1.405477 -0.448949,-1.405477 0.267072,0 1.483116,1.665444 1.483116,2.031213 0,0.555094 -0.394292,0.316523 -1.034167,-0.625736 z m -8.32006,-0.927141 c 0.09153,-0.294623 2.529583,-1.567828 2.746047,-1.434045 0.345115,0.213293 0.150984,0.42883 -0.931462,1.034167 -1.116212,0.624222 -1.940734,0.80592 -1.814585,0.399878 z m -22.003827,0.130456 c 0.313701,-0.572071 0.957904,-1.089967 1.87731,-1.509235 0.709392,-0.323496 1.168758,-0.395285 2.519969,-0.393811 1.9345,0.0021 3.138003,0.425321 3.999384,1.40638 0.476534,0.542743 0.593635,0.810449 0.733723,1.677393 0.09071,0.561367 1.313918,-0.827501 1.611581,-1.829838 0.236978,-0.797992 0.233475,-0.916133 -0.04094,-1.380679 -0.421149,-0.712945 -1.871363,-1.663647 -3.188032,-2.08994 -1.623729,-0.525711 -4.677802,-0.517843 -6.246644,0.01609 -2.265742,0.771111 -3.530959,1.990974 -3.476582,3.35196 0.04385,1.097515 0.02411,1.186531 -0.263139,1.186531 -0.48253,0 -0.267186,0.299948 0.913188,1.271964 l 1.174098,0.966846 0.09766,-1.162889 c 0.05371,-0.63959 0.183504,-1.319438 0.288424,-1.510772 z m 6.823885,2.333784 0.878263,-0.188355 v -0.755895 c 0,-1.284672 -1.152249,-1.988128 -3.266971,-1.994506 -2.136006,-0.0064 -3.342767,0.721557 -3.342767,2.016579 0,0.731219 0.01091,0.74462 0.739247,0.907726 1.033568,0.23146 3.941102,0.239876 4.992228,0.01445 z m 30.528954,22.100233 c -1.933357,-0.613196 -3.059122,-1.972732 -3.074763,-3.713254 -0.0096,-1.067232 0.311249,-1.768783 1.14282,-2.498912 0.947364,-0.831796 2.162521,-1.156282 3.814275,-1.018529 l 1.388233,0.115773 1.237816,-0.729609 c 0.6808,-0.401286 1.572533,-0.957076 1.981631,-1.235093 0.935887,-0.636009 1.517411,-0.598236 1.517411,0.09856 0,0.441894 -0.216375,0.630188 -2.048778,1.78289 l -2.048781,1.288815 h -1.93657 c -1.746308,0 -2.008696,0.04227 -2.670718,0.43024 -0.403784,0.236633 -0.780284,0.550461 -0.836668,0.697397 -0.07328,0.190971 0.04417,0.158704 0.411881,-0.113153 0.620144,-0.458493 2.359615,-0.542987 3.275208,-0.15909 0.472044,0.197924 0.607479,0.201521 0.720199,0.01913 0.27548,-0.445735 2.27642,0.192526 2.509744,0.800559 0.171556,0.447067 -0.215982,0.744791 -0.488846,0.375552 -0.435862,-0.58981 -2.114205,-0.938496 -1.906026,-0.39599 0.116361,0.303231 -0.249677,0.823391 -0.479479,0.681367 -0.08483,-0.05243 -0.154231,-0.241177 -0.154231,-0.419446 0,-0.667319 -2.520114,-0.930216 -3.234401,-0.337411 -0.349464,0.29003 -0.151309,0.482763 0.722589,0.702812 0.447248,0.112619 0.772407,0.295638 0.772407,0.434755 0,0.535161 -1.851414,0.06742 -2.25483,-0.569657 -0.168723,-0.266449 -0.1875,-0.205502 -0.111008,0.360315 0.18854,1.394637 1.75838,2.35116 4.024797,2.452357 0.605002,0.02702 1.183696,0.100842 1.285987,0.164061 0.248793,0.153763 0.236147,0.670434 -0.02275,0.929327 -0.317203,0.317203 -2.343399,0.234844 -3.537153,-0.143772 z m 5.867956,-2.465335 c -0.363373,-0.363372 -0.257291,-2.047069 0.168087,-2.66787 0.321778,-0.469602 2.242855,-1.810042 3.591448,-2.505946 0.472591,-0.243868 0.902069,0.0041 0.902069,0.520884 0,0.360371 -0.321153,0.625239 -2.156783,1.778788 -1.279552,0.804094 -1.322026,0.85263 -1.322026,1.510656 0,1.312944 -0.572908,1.973375 -1.182795,1.363488 z M 87.43044,64.162669 c -0.439723,-0.219668 -0.624075,-0.436967 -0.66383,-0.782463 -0.06467,-0.562007 0.396,-0.682219 0.53771,-0.140316 0.05315,0.203232 0.321229,0.398353 0.672299,0.489324 0.32715,0.08477 0.608748,0.280321 0.640407,0.444712 0.07424,0.385497 -0.401404,0.380984 -1.186586,-0.01125 z m 22.67858,-0.91555 c -2.09374,-0.300413 -4.99673,-1.563532 -6.36189,-2.768127 -2.43183,-2.145805 -2.38503,-5.231406 0.15815,-10.428116 1.33443,-2.726748 2.97539,-4.021232 5.09753,-4.021232 1.54898,0 5.93587,1.599728 7.35483,2.682023 1.03277,0.787734 1.42905,1.821906 1.40505,3.666804 -0.0351,2.696326 -0.75639,6.014592 -1.72137,7.918898 -1.14085,2.251341 -3.30388,3.326877 -5.9323,2.94975 z m 3.16345,-1.002353 c 1.93478,-0.987989 2.96465,-3.093018 3.64928,-7.459048 0.26549,-1.693009 0.29238,-3.903855 0.0504,-4.145798 -0.0547,-0.05471 -0.71482,0.06935 -1.4669,0.275679 -2.83176,0.77688 -5.00204,0.05234 -7.74464,-2.585507 -0.9044,-0.869852 -1.0061,-0.922739 -1.35987,-0.707121 -0.98987,0.603311 -3.13562,4.873616 -3.66868,7.301103 -0.62965,2.867318 0.52513,4.948031 3.56188,6.417904 2.84862,1.378811 5.39994,1.708868 6.97849,0.902788 z m 2.1369,-11.944647 c 0.51214,-0.136317 0.97557,-0.292245 1.02983,-0.346503 0.20976,-0.209762 -0.79793,-1.021635 -1.96101,-1.579942 -0.66968,-0.321457 -1.95731,-0.831769 -2.86141,-1.134026 -1.35719,-0.453729 -1.84844,-0.537998 -2.8172,-0.483257 -0.64535,0.03646 -1.23006,0.122994 -1.29935,0.192285 -0.31711,0.317109 2.48214,2.604544 3.90192,3.188494 1.15866,0.476553 2.60762,0.535474 4.00722,0.162949 z m -29.74255,6.872612 c -0.334297,-0.274337 -0.374833,-0.395598 -0.218052,-0.652276 0.105921,-0.173412 0.332367,-0.342757 0.503211,-0.376324 0.240402,-0.04723 0.289023,0.02159 0.215067,0.304396 -0.07675,0.293484 -0.01636,0.365426 0.306722,0.365426 0.316646,0 0.382916,-0.07406 0.31131,-0.347881 -0.06272,-0.239839 -0.0053,-0.347881 0.184765,-0.347881 0.174671,0 0.238729,-0.09645 0.174768,-0.263125 -0.121687,-0.317111 0.227612,-0.780518 0.588326,-0.780518 0.174262,0 0.229923,0.114625 0.168926,0.347881 -0.06748,0.258039 -0.0053,0.347881 0.240624,0.347881 0.215635,0 0.331596,-0.121655 0.331596,-0.347881 0,-0.191334 0.07827,-0.347881 0.173941,-0.347881 0.09567,0 0.17394,-0.146962 0.17394,-0.326583 0,-0.39497 0.434648,-0.791466 0.692757,-0.631947 0.102393,0.06328 0.164528,0.243299 0.138073,0.400035 -0.02739,0.162261 0.09021,0.313298 0.273094,0.350753 0.256747,0.05258 0.297965,-0.0074 0.205432,-0.298948 -0.07891,-0.248613 -0.0292,-0.397943 0.156147,-0.469065 0.149547,-0.05739 0.232963,-0.167348 0.185368,-0.244357 -0.160773,-0.260137 0.123503,-0.693233 0.455025,-0.693233 0.21331,0 0.329271,0.122515 0.329271,0.347881 0,0.193267 0.115961,0.347881 0.260911,0.347881 0.14495,0 0.26091,-0.154614 0.26091,-0.347881 0,-0.191334 0.07308,-0.347881 0.162388,-0.347881 0.08931,0 0.187155,-0.214582 0.217425,-0.476849 0.06935,-0.600853 0.612093,-0.756679 0.693885,-0.199219 0.06582,0.44862 0.491767,0.668062 0.491767,0.253351 0,-0.15277 0.07256,-0.413681 0.161243,-0.579801 0.08868,-0.16612 0.203637,-0.439014 0.255452,-0.606431 0.130241,-0.420823 0.626948,-0.386373 0.626948,0.04349 0,0.193267 0.115961,0.347881 0.26091,0.347881 0.14495,0 0.260911,-0.154614 0.260911,-0.347881 0,-0.191335 0.08289,-0.347881 0.184207,-0.347881 0.101313,0 0.140196,-0.07121 0.0864,-0.158244 -0.170298,-0.27555 0.101594,-0.711458 0.443761,-0.711458 0.21331,0 0.329271,0.122514 0.329271,0.34788 0,0.191335 0.114954,0.347881 0.255452,0.347881 0.147396,0 0.215956,-0.102922 0.162082,-0.243316 -0.139939,-0.364677 0.273646,-0.531573 0.573708,-0.231512 0.546872,0.546873 -0.274038,1.368141 -1.064391,1.064855 -0.195869,-0.07516 -0.274732,-0.002 -0.274732,0.254947 0,0.441918 -0.586726,0.78189 -1.160199,0.672262 -0.305872,-0.05847 -0.400249,-0.01565 -0.33578,0.152356 0.142966,0.372562 -0.390197,0.765575 -1.038583,0.765575 -0.476847,0 -0.596367,0.06849 -0.596367,0.341762 0,0.434004 -0.60239,0.763028 -1.146814,0.626387 -0.327317,-0.08215 -0.41865,-0.03605 -0.41865,0.211333 0,0.490194 -0.356267,0.733863 -1.072973,0.733863 -0.469747,0 -0.630677,0.06473 -0.567868,0.228402 0.153904,0.401066 -0.546678,0.861906 -1.195199,0.786195 -0.479146,-0.05594 -0.576347,-0.01543 -0.516075,0.215044 0.199501,0.762896 -1.144156,1.132988 -1.890315,0.520661 z m 34.20125,-16.675156 c -0.38392,-0.162215 -1.55801,-0.733925 -2.60911,-1.270465 -2.46983,-1.260752 -3.07763,-1.445195 -6.5051,-1.97405 -1.57005,-0.242256 -2.89079,-0.47663 -2.93499,-0.520832 -0.0442,-0.0442 -0.0396,-0.186743 0.0104,-0.316758 0.0744,-0.193804 0.63443,-0.150043 3.10893,0.242927 3.86543,0.61386 3.9254,0.632529 7.00854,2.181742 2.63153,1.322289 2.60489,1.315135 3.99222,1.072246 0.54591,-0.09558 0.51242,0.337858 -0.0485,0.62793 -0.65896,0.340762 -1.13866,0.330625 -2.02231,-0.04274 z m -1.82411,-3.929973 c -0.33483,-0.12897 -1.1567,-0.466508 -1.82637,-0.750085 -1.26931,-0.537499 -3.47072,-1.286678 -4.73988,-1.613063 -0.76646,-0.197112 -1.04207,-0.698525 -0.38396,-0.698525 0.47673,0 4.53464,1.326116 5.73263,1.873409 0.52617,0.240375 1.3089,0.532473 1.73941,0.649108 0.45033,0.122005 0.78273,0.314682 0.78273,0.45372 0,0.330297 -0.57165,0.367734 -1.30456,0.08544 z M 26.850542,36.041576 c -0.148371,-0.148371 -0.405168,-0.681747 -0.570659,-1.185281 -0.235275,-0.71586 -0.579888,-1.191273 -1.580216,-2.180002 -0.703627,-0.695468 -1.279323,-1.302086 -1.279323,-1.348039 0,-0.269545 0.753515,-0.0012 1.414967,0.503801 0.95829,0.731708 1.587769,1.628683 2.15028,3.06404 0.439513,1.121502 0.376388,1.65692 -0.135049,1.145481 z m 95.356738,-1.418603 c -0.79032,-0.95227 -6.15858,-2.73548 -8.9438,-2.970917 -1.24068,-0.104875 -1.67221,-0.274544 -1.39729,-0.54938 0.21595,-0.215874 2.41174,-0.02725 4.00352,0.343908 3.69367,0.861266 7.04459,2.393062 7.04459,3.220278 0,0.316807 -0.42982,0.290126 -0.70702,-0.04389 z M 43.615969,28.223072 c -0.108904,-0.131221 -0.387278,-0.795063 -0.618609,-1.475205 -0.647669,-1.904225 -1.758321,-3.417203 -3.230723,-4.401028 -0.326153,-0.217926 -0.382481,-0.337984 -0.231988,-0.49445 0.26751,-0.278127 0.79583,5.22e-4 1.769322,0.933031 0.955109,0.914944 1.812829,2.325885 2.275432,3.743063 0.199423,0.610931 0.448349,1.21412 0.553168,1.340418 0.192773,0.232279 0.08561,0.592755 -0.176218,0.592755 -0.07831,0 -0.23148,-0.107363 -0.340384,-0.238584 z m 22.874624,-5.718878 c -0.252732,-1.341843 -0.32866,-5.861351 -0.111503,-6.636963 0.25751,-0.91974 0.802235,-1.536946 0.970183,-1.099279 0.05675,0.147889 -0.02069,0.508434 -0.172092,0.801212 -0.396975,0.767664 -0.518252,2.789999 -0.291797,4.865831 0.108059,0.990537 0.243541,1.988521 0.301072,2.217741 0.08418,0.335406 0.03686,0.416765 -0.242393,0.416765 -0.253682,0 -0.37563,-0.152022 -0.45347,-0.565307 z m -34.1558,-22.52528839 c 18.152864,-0.02441265 47.857549,-0.02441265 66.010413,0 18.152864,0.02441265 3.300524,0.04438664 -33.005207,0.04438664 -36.305726,0 -51.158069,-0.01997399 -33.005206,-0.04438664 z"
       id="path21" />
  </g>
</svg>
